<svg width="80" height="80" viewBox="0 0 80 80" fill="none" xmlns="http://www.w3.org/2000/svg">
<path fill-rule="evenodd" clip-rule="evenodd" d="M69.6695 50.5534V50.5534L69.6868 50.9938L69.705 51.4348L69.724 51.8764L69.7439 52.3189L69.7645 52.7623L69.7857 53.2068L69.8074 53.6526L69.8293 54.0996L69.8513 54.5482L69.8731 54.9983L69.8943 55.45L69.9147 55.9034L69.9339 56.3585L69.9514 56.8154L69.967 57.274L69.9801 57.7344L69.9903 58.1964L69.9971 58.6601L70 59.1253L69.9986 59.5919L69.9923 60.0598L69.9806 60.5288L69.963 60.9988L69.939 61.4694L69.9082 61.9405L69.8699 62.4119L69.8237 62.8831L69.7691 63.354L69.7058 63.8243L69.6331 64.2935L69.5509 64.7613L69.4585 65.2273L69.3559 65.6913L69.2425 66.1528L69.1181 66.6114L68.9826 67.0667L68.8357 67.5183L68.6772 67.9659L68.5072 68.4092L68.3254 68.8476L68.1319 69.2809L67.9268 69.7088L67.7099 70.1308L67.4814 70.5466L67.2413 70.9559L66.9896 71.3583L66.7265 71.7535L66.452 72.1411L66.1664 72.5209L65.8697 72.8924L65.5621 73.2555L65.2437 73.6098L64.9149 73.955L64.5757 74.2908L64.2265 74.617L63.8675 74.9333L63.499 75.2395L63.1212 75.5354L62.7344 75.8208L62.339 76.0955L61.9354 76.3592L61.5237 76.612L61.1045 76.8536L60.678 77.0839L60.2447 77.3029L59.8049 77.5104L59.3591 77.7064L58.9075 77.891L58.4508 78.064L57.9891 78.2254L57.5231 78.3754L57.0531 78.514L56.5795 78.6412L56.1027 78.7572L55.6233 78.862L55.1415 78.9558L54.6579 79.0387L54.1729 79.111L53.6868 79.1727L53.2 79.2242L52.7131 79.2657L52.2263 79.2973L51.7401 79.3194L51.2547 79.3323L50.7707 79.3361L50.2883 79.3313L49.8078 79.3181L49.3297 79.2969L48.8541 79.268L48.3815 79.2317L47.912 79.1884L47.4459 79.1384L46.9836 79.0821L46.5251 79.0199L46.0707 78.9521L45.6207 78.8791L45.1751 78.8012L44.7342 78.7189L44.298 78.6324L43.8668 78.5422L43.4406 78.4486L43.0195 78.352L42.6036 78.2528L42.193 78.1514L41.7878 78.0482L41.3879 77.9435L40.9935 77.8379L40.6045 77.7316L40.2209 77.6252L39.8428 77.5189L39.47 77.4132L39.1025 77.3084L38.7403 77.205L38.3832 77.1032L38.0312 77.0034L37.6841 76.9059L37.3419 76.8112L37.0043 76.7194L36.6712 76.6309L36.3424 76.5461L36.0178 76.4651L35.6972 76.3883L35.3803 76.3159L35.0669 76.2482L34.7569 76.1855L34.4499 76.1279L34.1458 76.0759L33.8443 76.0296L33.5451 75.9893L33.248 75.9553L32.9526 75.9277L32.6588 75.907L32.3661 75.8933L32.0743 75.8867L31.7831 75.8876L31.492 75.8959L31.2009 75.9117L30.9093 75.9352L30.6169 75.9663L30.3234 76.005L30.0284 76.0512L29.7316 76.1048L29.4327 76.1657L29.1313 76.2338L28.8272 76.3088L28.52 76.3904L28.2095 76.4785L27.8953 76.5726L27.5773 76.6725L27.2552 76.7778L26.9287 76.8882L26.5976 77.0031L26.2618 77.1222L25.9211 77.2449L25.5754 77.3709L25.2245 77.4996L24.8683 77.6304L24.5068 77.7629L24.1399 77.8965L23.7676 78.0307L23.3899 78.1649L23.0069 78.2984L22.6185 78.4308L22.2249 78.5615L21.8261 78.6898L21.4224 78.8152L21.0137 78.9372L20.6004 79.0552L20.1826 79.1686L19.7605 79.2768L19.3344 79.3794L18.9045 79.4758L18.4711 79.5656L18.0345 79.6482L17.595 79.7232L17.1529 79.79L16.7086 79.8485L16.2624 79.898L15.8147 79.9382L15.3658 79.9689L14.9162 79.9895L14.4662 80L14.0161 79.9999L13.5665 79.9891L13.1176 79.9674L12.67 79.9345L12.2238 79.8902L11.7797 79.8346L11.3379 79.7674L10.8988 79.6886L10.4627 79.5981L10.0302 79.496L9.60149 79.3821L9.17705 79.2564L8.75729 79.1189L8.34261 78.9696L7.93343 78.8085L7.53018 78.6355L7.13326 78.4507L6.74312 78.2542L6.36017 78.0459L5.98483 77.826L5.6175 77.5945L5.25861 77.3515L4.90855 77.0973L4.56772 76.8318L4.2365 76.5553L3.91527 76.2679L3.60438 75.9699L3.30421 75.6614L3.01509 75.3428L2.73735 75.0142L2.47133 74.6758L2.21732 74.3281L1.97565 73.9712L1.74659 73.6054L1.53044 73.2312L1.32748 72.8487L1.13799 72.4582L0.962221 72.0602L0.800455 71.6549L0.652958 71.2428L0.519988 70.824L0.401781 70.399L0.298536 69.9681L0.210419 69.5319L0.137561 69.0906L0.0800545 68.6447L0.0379539 68.1948L0.0112765 67.7411L0 67.2844L0.00406284 66.8249L0.0233641 66.3633L0.0577631 65.9001L0.10708 65.4357L0.171097 64.9707L0.249555 64.5056L0.342161 64.0408L0.448582 63.577L0.56845 63.1146L0.701362 62.654L0.846883 62.1958L1.00454 61.7405L1.17385 61.2885L1.35426 60.8402L1.54524 60.396L1.7462 59.9564L1.95653 59.5216L2.17563 59.0922L2.40284 58.6684L2.6375 58.2505L2.87896 57.8387L3.12652 57.4334L3.3795 57.0348L3.63719 56.643L3.89891 56.2583L4.16395 55.8807L4.4316 55.5104L4.70117 55.1475L4.97199 54.7919L5.24336 54.4438L5.51461 54.1031L5.78511 53.7697L6.0542 53.4437L6.32128 53.1249L6.58574 52.8132L6.84702 52.5084L7.10456 52.2105L7.35785 51.9191L7.60639 51.6341L7.84972 51.3553L8.08741 51.0825L8.31907 50.8152L8.54434 50.5534L8.76288 50.2966L8.9744 50.0446L9.17866 49.797L9.37544 49.5536L9.56456 49.3141L9.74588 49.0779L9.9193 48.845L10.0848 48.6148L10.2422 48.3871L10.3917 48.1616L10.5332 47.9379L10.6668 47.7157L10.7927 47.4947L10.9109 47.2746L11.0216 47.055L11.1251 46.8358L11.2214 46.6166L11.3109 46.3972L11.3938 46.1774L11.4704 45.9568L11.541 45.7354L11.6058 45.5129L11.6652 45.289L11.7196 45.0637L11.7693 44.8369L11.8146 44.6082L11.8558 44.3777L11.8934 44.1453L11.9277 43.9108L11.959 43.6741L11.9877 43.4353L12.0141 43.1942L12.0385 42.9507L12.0613 42.705L12.0828 42.4568L12.1031 42.2063L12.1227 41.9533L12.1416 41.6979L12.1602 41.44L12.1786 41.1796L12.197 40.9166L12.2156 40.6511L12.2346 40.383L12.2542 40.1124L12.2746 39.8392L12.2961 39.5635L12.3188 39.2854L12.343 39.0049L12.369 38.722L12.397 38.437L12.4273 38.1498L12.46 37.8606L12.4956 37.5696L12.5341 37.2769L12.576 36.9827L12.6215 36.6871L12.6708 36.3904L12.7242 36.0928L12.7819 35.7945L12.8443 35.4958L12.9116 35.197L12.984 34.8983L13.0618 34.6L13.1451 34.3025L13.2343 34.0061L13.3296 33.7111L13.4311 33.4179L13.539 33.1267L13.6535 32.8381L13.7748 32.5524L13.903 32.2699L14.0383 31.991L14.1807 31.7162L14.3303 31.4458L14.4872 31.1802L14.6515 30.9198L14.8232 30.6649L15.0023 30.4161L15.1887 30.1736L15.3825 29.9377L15.5836 29.709L15.7919 29.4876L16.0072 29.274L16.2296 29.0683L16.4587 28.871L16.6946 28.6823L16.9369 28.5024L17.1854 28.3316L17.44 28.17L17.7003 28.0179L17.9661 27.8753L18.2372 27.7423L18.5132 27.6192L18.7938 27.5058L19.0787 27.4023L19.3676 27.3085L19.6601 27.2245L19.9558 27.1502L20.2545 27.0853L20.5557 27.0299L20.8591 26.9836L21.1643 26.9463L21.4711 26.9177L21.779 26.8977L22.0877 26.8858L22.3969 26.8818L22.7063 26.8854L23.0156 26.8962L23.3244 26.9138L23.6326 26.9378L23.9398 26.9679L24.2459 27.0036L24.5505 27.0444L24.8535 27.0899L25.1546 27.1396L25.4538 27.193L25.7508 27.2496L26.0455 27.309L26.3378 27.3706L26.6277 27.4339L26.915 27.4984L27.1998 27.5636L27.4819 27.6291L27.7615 27.6943L28.0385 27.7588L28.3131 27.8222L28.5851 27.8839L28.8549 27.9437L29.1224 28.0012L29.3878 28.0559L29.6513 28.1077L29.913 28.1562L30.173 28.2012L30.4317 28.2424L30.689 28.2795L30.9454 28.3125L31.2009 28.341L31.4558 28.3648L31.7103 28.3838L31.9647 28.3979L32.2193 28.4068L32.4742 28.4106L32.7297 28.4089L32.986 28.4019L33.2436 28.3894L33.5025 28.3714L33.7631 28.3479L34.0256 28.3189L34.2903 28.2843L34.5575 28.2443L34.8274 28.199L35.1002 28.1484L35.3763 28.0926L35.6558 28.0317L35.939 27.9661L36.2262 27.8957L36.5174 27.8208L36.813 27.7417L37.1131 27.6586L37.418 27.5717L37.7277 27.4814L38.0424 27.3878L38.3623 27.2915L38.6875 27.1925L39.0182 27.0914L39.3543 26.9885L39.6959 26.8841L40.0432 26.7787L40.3962 26.6725L40.7549 26.5661L41.1192 26.4599L41.4892 26.3542L41.8648 26.2495L42.246 26.1462L42.6327 26.0447L43.0248 25.9455L43.4221 25.849L43.8247 25.7556L44.2323 25.6658L44.6447 25.5799L45.0618 25.4984L45.4834 25.4217L45.9092 25.3502L46.3391 25.2842L46.7728 25.2242L47.21 25.1706L47.6506 25.1236L48.0941 25.0836L48.5403 25.051L48.9889 25.0261L49.4397 25.0091L49.8923 25.0003L50.3463 25L50.8015 25.0084L51.2576 25.0257L51.7143 25.0522L52.1712 25.0879L52.628 25.133L53.0844 25.1877L53.5402 25.252L53.9949 25.326L54.4483 25.4099L54.9002 25.5037L55.3501 25.6074L55.7978 25.7211L56.243 25.8448L56.6854 25.9786L57.1246 26.1223L57.5605 26.2761L57.9926 26.4398L58.4207 26.6136L58.8445 26.7972L59.2636 26.9908L59.6778 27.1942L60.0868 27.4074L60.4902 27.6304L60.8877 27.8631L61.279 28.1053L61.6637 28.3572L62.0414 28.6185L62.4119 28.8892L62.7747 29.1692L63.1294 29.4585L63.4757 29.7569L63.8131 30.0643L64.1415 30.3806L64.4603 30.7056L64.7695 31.0391L65.0686 31.3808L65.3576 31.7305L65.6361 32.088L65.904 32.453L66.1612 32.8251L66.4076 33.2042L66.6431 33.5898L66.8676 33.9816L67.0811 34.3793L67.2838 34.7826L67.4756 35.191L67.6566 35.6043L67.827 36.022L67.987 36.4438L68.1367 36.8694L68.2764 37.2983L68.4063 37.7303L68.5267 38.1651L68.638 38.6021L68.7404 39.0413L68.8343 39.4821L68.9201 39.9245L68.9983 40.368L69.0691 40.8124L69.1332 41.2575L69.1908 41.703L69.2425 42.1488L69.2887 42.5947L69.3299 43.0405L69.3665 43.486L69.399 43.9312L69.4279 44.376L69.4536 44.8202L69.4765 45.2639L69.4971 45.707L69.5157 46.1495L69.5329 46.5915L69.5488 47.0328L69.5639 47.4737L69.5786 47.9142L69.593 48.3543L69.6074 48.7941L69.6221 49.2338L69.6373 49.6735L69.653 50.1133L69.6695 50.5534" fill="#F7CF56"/>
<path fill-rule="evenodd" clip-rule="evenodd" d="M54.8289 40.6805V40.6805L54.8378 40.9507L54.8472 41.2213L54.8571 41.4923L54.8674 41.7638L54.878 42.0359L54.889 42.3087L54.9002 42.5823L54.9116 42.8566L54.923 43.1318L54.9343 43.408L54.9453 43.6852L54.9558 43.9634L54.9658 44.2427L54.9749 44.5231L54.9829 44.8045L54.9897 45.087L54.995 45.3705L54.9985 45.6551L55 45.9405L54.9993 46.2269L54.996 46.514L54.99 46.8018L54.9809 47.0902L54.9684 47.379L54.9524 47.6681L54.9326 47.9573L54.9087 48.2465L54.8804 48.5354L54.8476 48.824L54.81 49.1119L54.7674 49.399L54.7196 49.685L54.6664 49.9697L54.6077 50.2528L54.5433 50.5342L54.4731 50.8136L54.3971 51.0908L54.315 51.3655L54.2269 51.6374L54.1328 51.9065L54.0326 52.1724L53.9264 52.4349L53.8141 52.6939L53.6957 52.9491L53.5714 53.2002L53.441 53.4471L53.3048 53.6896L53.1627 53.9275L53.0147 54.1605L52.8611 54.3885L52.7018 54.6113L52.5369 54.8287L52.3666 55.0405L52.191 55.2466L52.0102 55.4468L51.8242 55.6409L51.6334 55.8288L51.4377 56.0104L51.2375 56.1855L51.0327 56.354L50.8237 56.5159L50.6105 56.671L50.3934 56.8193L50.1726 56.9606L49.9482 57.095L49.7204 57.2223L49.4895 57.3426L49.2557 57.4558L49.0191 57.562L48.7801 57.6611L48.5388 57.7531L48.2953 57.8381L48.0501 57.9162L47.8032 57.9874L47.5549 58.0517L47.3054 58.1092L47.055 58.1601L46.8038 58.2045L46.5521 58.2424L46.3 58.274L46.0478 58.2994L45.7958 58.3188L45.544 58.3324L45.2926 58.3403L45.042 58.3426L44.7921 58.3397L44.5433 58.3316L44.2957 58.3186L44.0495 58.3008L43.8047 58.2785L43.5616 58.252L43.3202 58.2213L43.0808 58.1868L42.8433 58.1486L42.6081 58.107L42.375 58.0622L42.1442 58.0144L41.9159 57.9639L41.6901 57.9108L41.4667 57.8554L41.246 57.798L41.0279 57.7387L40.8126 57.6779L40.5999 57.6156L40.3901 57.5523L40.183 57.4881L39.9788 57.4232L39.7773 57.3581L39.5787 57.2927L39.3829 57.2275L39.1898 57.1626L38.9995 57.0984L38.8119 57.0349L38.627 56.9724L38.4447 56.9112L38.265 56.8514L38.0878 56.7932L37.9129 56.7369L37.7404 56.6826L37.5702 56.6305L37.4021 56.5808L37.236 56.5337L37.0719 56.4893L36.9097 56.4477L36.7491 56.4093L36.5901 56.374L36.4327 56.342L36.2765 56.3136L36.1216 56.2889L35.9677 56.268L35.8148 56.2511L35.6626 56.2384L35.511 56.23L35.3599 56.2259L35.2091 56.2265L35.0584 56.2315L34.9076 56.2413L34.7566 56.2557L34.6052 56.2748L34.4532 56.2985L34.3004 56.3269L34.1467 56.3598L33.9919 56.3972L33.8359 56.4389L33.6784 56.4849L33.5193 56.535L33.3585 56.5891L33.1958 56.6468L33.0311 56.7081L32.8643 56.7728L32.6952 56.8405L32.5238 56.911L32.3499 56.984L32.1734 57.0594L31.9944 57.1367L31.8127 57.2156L31.6282 57.2959L31.441 57.3773L31.251 57.4592L31.0582 57.5416L30.8626 57.6239L30.6643 57.7058L30.4631 57.7871L30.2593 57.8673L30.0528 57.946L29.8437 58.023L29.6321 58.0978L29.4181 58.1702L29.2017 58.2398L28.9831 58.3062L28.7625 58.3692L28.5398 58.4284L28.3154 58.4834L28.0893 58.5341L27.8617 58.5801L27.6328 58.6212L27.4027 58.657L27.1716 58.6874L26.9398 58.7121L26.7073 58.7309L26.4745 58.7436L26.2414 58.75L26.0084 58.75L25.7755 58.7433L25.5431 58.73L25.3112 58.7098L25.0802 58.6826L24.8502 58.6485L24.6214 58.6073L24.394 58.5589L24.1682 58.5034L23.9442 58.4407L23.7222 58.3708L23.5024 58.2937L23.285 58.2093L23.0703 58.1177L22.8584 58.0188L22.6496 57.9127L22.444 57.7993L22.242 57.6787L22.0437 57.5509L21.8493 57.4159L21.6591 57.2739L21.4732 57.1248L21.2919 56.9688L21.1154 56.8059L20.9439 56.6362L20.7775 56.4598L20.6166 56.277L20.4611 56.0877L20.3114 55.8922L20.1676 55.6905L20.0298 55.4829L19.8983 55.2695L19.7731 55.0505L19.6545 54.8261L19.5426 54.5964L19.4374 54.3617L19.3393 54.1221L19.2483 53.8779L19.1645 53.6292L19.0881 53.3762L19.0193 53.1193L18.9581 52.8585L18.9046 52.5941L18.859 52.3264L18.8212 52.0556L18.7915 51.782L18.7697 51.5059L18.7558 51.2275L18.75 50.9472L18.7521 50.6653L18.7621 50.3821L18.7799 50.0978L18.8055 49.8128L18.8386 49.5275L18.8792 49.242L18.9272 48.9569L18.9823 48.6722L19.0444 48.3885L19.1132 48.1059L19.1886 47.8247L19.2702 47.5453L19.3579 47.2679L19.4513 46.9928L19.5502 46.7203L19.6543 46.4505L19.7632 46.1837L19.8767 45.9202L19.9943 45.6601L20.1159 45.4037L20.2409 45.151L20.3691 44.9023L20.5001 44.6577L20.6335 44.4173L20.7691 44.1812L20.9063 43.9495L21.0449 43.7223L21.1845 43.4996L21.3248 43.2814L21.4653 43.0678L21.6058 42.8587L21.7459 42.6541L21.8852 42.4541L22.0235 42.2584L22.1605 42.0672L22.2958 41.8802L22.4291 41.6973L22.5603 41.5185L22.689 41.3437L22.815 41.1726L22.9381 41.0051L23.0581 40.8412L23.1747 40.6805L23.2879 40.5229L23.3975 40.3683L23.5032 40.2164L23.6051 40.067L23.7031 39.92L23.797 39.7751L23.8868 39.6321L23.9725 39.4909L24.054 39.3512L24.1314 39.2128L24.2047 39.0755L24.2739 38.9392L24.3391 38.8036L24.4003 38.6685L24.4576 38.5338L24.5112 38.3992L24.5611 38.2648L24.6074 38.1301L24.6504 37.9952L24.69 37.8599L24.7266 37.724L24.7601 37.5874L24.7909 37.4501L24.8191 37.3118L24.8448 37.1726L24.8683 37.0323L24.8896 36.8909L24.9091 36.7482L24.9268 36.6043L24.9431 36.4591L24.9579 36.3126L24.9716 36.1646L24.9842 36.0152L24.996 35.8644L25.0071 35.7122L25.0177 35.5584L25.0278 35.4032L25.0376 35.2464L25.0472 35.0882L25.0568 34.9284L25.0663 34.767L25.0759 34.6041L25.0858 34.4396L25.0959 34.2735L25.1065 34.1059L25.1176 33.9367L25.1294 33.766L25.1419 33.5939L25.1554 33.4203L25.1699 33.2454L25.1855 33.0692L25.2025 32.8918L25.2209 32.7132L25.2409 32.5336L25.2626 32.353L25.2861 32.1716L25.3117 31.9896L25.3393 31.8069L25.3692 31.6239L25.4015 31.4406L25.4364 31.2572L25.4739 31.0739L25.5141 30.8909L25.5573 30.7084L25.6035 30.5265L25.6528 30.3454L25.7054 30.1655L25.7613 29.9869L25.8206 29.8098L25.8834 29.6344L25.9498 29.4611L26.0198 29.2899L26.0936 29.1213L26.171 28.9554L26.2523 28.7924L26.3374 28.6326L26.4263 28.4762L26.519 28.3235L26.6156 28.1747L26.7159 28.03L26.8201 27.8896L26.9279 27.7538L27.0395 27.6227L27.1546 27.4965L27.2733 27.3754L27.3954 27.2596L27.5209 27.1492L27.6496 27.0444L27.7814 26.9452L27.9162 26.8519L28.0539 26.7644L28.1943 26.6828L28.3372 26.6072L28.4825 26.5377L28.6301 26.4741L28.7797 26.4166L28.9311 26.365L29.0843 26.3194L29.2389 26.2796L29.3949 26.2456L29.552 26.2172L29.7101 26.1943L29.8689 26.1768L30.0284 26.1645L30.1883 26.1572L30.3484 26.1548L30.5086 26.1569L30.6688 26.1636L30.8287 26.1744L30.9883 26.1891L31.1474 26.2076L31.3059 26.2295L31.4636 26.2545L31.6205 26.2824L31.7765 26.3129L31.9314 26.3457L32.0852 26.3805L32.2378 26.4169L32.3892 26.4547L32.5393 26.4935L32.6881 26.5331L32.8356 26.5731L32.9817 26.6133L33.1265 26.6533L33.27 26.6929L33.4121 26.7318L33.553 26.7697L33.6927 26.8064L33.8313 26.8416L33.9687 26.8752L34.1051 26.907L34.2406 26.9368L34.3753 26.9644L34.5092 26.9896L34.6425 27.0124L34.7753 27.0326L34.9076 27.0501L35.0396 27.0648L35.1714 27.0764L35.3032 27.0851L35.435 27.0906L35.567 27.0928L35.6993 27.0919L35.8321 27.0875L35.9654 27.0799L36.0995 27.0688L36.2345 27.0544L36.3704 27.0366L36.5075 27.0154L36.6458 26.9908L36.7856 26.963L36.9269 26.9319L37.0699 26.8977L37.2146 26.8604L37.3613 26.8201L37.51 26.7769L37.6608 26.731L37.8139 26.6824L37.9693 26.6314L38.1272 26.5781L38.2875 26.5227L38.4505 26.4653L38.6162 26.4061L38.7846 26.3454L38.9558 26.2834L39.1299 26.2202L39.3068 26.1562L39.4867 26.0915L39.6695 26.0263L39.8552 25.961L40.0439 25.8958L40.2355 25.831L40.43 25.7667L40.6274 25.7033L40.8276 25.6411L41.0307 25.5802L41.2365 25.521L41.4449 25.4637L41.656 25.4085L41.8696 25.3558L42.0856 25.3058L42.3039 25.2588L42.5244 25.2149L42.747 25.1744L42.9716 25.1376L43.1981 25.1047L43.4262 25.0758L43.6559 25.0513L43.8869 25.0313L44.1193 25.016L44.3527 25.0056L44.5871 25.0002L44.8222 25L45.0579 25.0052L45.2941 25.0158L45.5306 25.032L45.7672 25.0539L46.0038 25.0816L46.2401 25.1151L46.4762 25.1546L46.7116 25.2001L46.9465 25.2515L47.1804 25.3091L47.4134 25.3727L47.6453 25.4425L47.8758 25.5184L48.1049 25.6005L48.3324 25.6887L48.5581 25.783L48.7819 25.8835L49.0036 25.9901L49.223 26.1029L49.4401 26.2216L49.6546 26.3465L49.8664 26.4773L50.0753 26.6141L50.2811 26.7569L50.4838 26.9055L50.683 27.0601L50.8786 27.2204L51.0704 27.3865L51.2583 27.5584L51.442 27.7359L51.6213 27.919L51.7961 28.1077L51.9661 28.3018L52.1312 28.5012L52.2913 28.7058L52.4463 28.9155L52.5959 29.1301L52.7401 29.3495L52.8789 29.5734L53.0121 29.8018L53.1396 30.0344L53.2616 30.271L53.3778 30.5115L53.4884 30.7555L53.5934 31.003L53.6927 31.2536L53.7865 31.5072L53.8747 31.7635L53.9576 32.0223L54.0351 32.2835L54.1074 32.5467L54.1747 32.8118L54.237 33.0786L54.2947 33.3468L54.3477 33.6162L54.3963 33.8868L54.4408 34.1582L54.4812 34.4303L54.5179 34.7031L54.5511 34.9762L54.581 35.2496L54.6077 35.5231L54.6316 35.7967L54.653 36.0703L54.6719 36.3437L54.6888 36.6169L54.7037 36.8898L54.717 37.1624L54.7289 37.4347L54.7396 37.7066L54.7492 37.9781L54.7581 38.2493L54.7664 38.5202L54.7742 38.7907L54.7818 39.061L54.7892 39.331L54.7967 39.6009L54.8043 39.8708L54.8122 40.1406L54.8203 40.4105L54.8289 40.6805" fill="white" fill-opacity="0.9"/>
<path d="M40.0001 53.3333C42.6668 53.3333 45.0423 52.5422 47.1268 50.96C49.2112 49.3778 50.7246 47.3356 51.6668 44.8333H28.3335C29.2779 47.3333 30.7923 49.3756 32.8768 50.96C34.9612 52.5444 37.3357 53.3356 40.0001 53.3333ZM31.6668 40C33.0557 40 34.2368 39.5144 35.2101 38.5433C36.1835 37.5722 36.669 36.3911 36.6668 35C36.6668 33.6111 36.1812 32.4311 35.2101 31.46C34.239 30.4889 33.0579 30.0022 31.6668 30C30.2779 30 29.0979 30.4867 28.1268 31.46C27.1557 32.4333 26.669 33.6133 26.6668 35C26.6668 36.3889 27.1535 37.57 28.1268 38.5433C29.1001 39.5167 30.2801 40.0022 31.6668 40ZM48.3335 40C49.7223 40 50.9035 39.5144 51.8768 38.5433C52.8501 37.5722 53.3357 36.3911 53.3335 35C53.3335 33.6111 52.8479 32.4311 51.8768 31.46C50.9057 30.4889 49.7246 30.0022 48.3335 30C46.9446 30 45.7646 30.4867 44.7935 31.46C43.8223 32.4333 43.3357 33.6133 43.3335 35C43.3335 36.3889 43.8201 37.57 44.7935 38.5433C45.7668 39.5167 46.9468 40.0022 48.3335 40ZM25.4168 21.3333L34.7501 9.25C35.4168 8.36111 36.209 7.70889 37.1268 7.29333C38.0446 6.87778 39.0023 6.66889 40.0001 6.66666C41.0001 6.66666 41.959 6.87555 42.8768 7.29333C43.7946 7.71111 44.5857 8.36333 45.2501 9.25L54.5835 21.3333L68.7501 26.0833C70.1946 26.5278 71.3335 27.3478 72.1668 28.5433C73.0001 29.7389 73.4168 31.0578 73.4168 32.5C73.4168 33.1667 73.319 33.8333 73.1235 34.5C72.9279 35.1667 72.609 35.8056 72.1668 36.4167L63.0001 49.4167L63.3335 63.0833C63.389 65.0278 62.7501 66.6667 61.4168 68C60.0835 69.3333 58.5279 70 56.7501 70C56.639 70 56.0279 69.9167 54.9168 69.75L40.0001 65.5833L25.0835 69.75C24.8057 69.8611 24.5001 69.9311 24.1668 69.96C23.8335 69.9889 23.5279 70.0022 23.2501 70C21.4723 70 19.9168 69.3333 18.5835 68C17.2501 66.6667 16.6112 65.0278 16.6668 63.0833L17.0001 49.3333L7.91679 36.4167C7.47234 35.8056 7.15234 35.1667 6.95679 34.5C6.76123 33.8333 6.66456 33.1667 6.66679 32.5C6.66679 31.1111 7.07012 29.82 7.87679 28.6267C8.68345 27.4333 9.8079 26.5856 11.2501 26.0833L25.4168 21.3333Z" fill="black"/>
</svg>
