<svg width="60" height="60" viewBox="0 0 60 60" fill="none" xmlns="http://www.w3.org/2000/svg">
<path fill-rule="evenodd" clip-rule="evenodd" d="M58.8638 25.2617C60.8944 32.5049 60.154 39.6208 57.0364 46.2777C53.9707 52.8238 49.4418 56.3212 42.8775 58.6541C36.3233 60.9835 30.1241 60.0302 23.4397 57.7667C15.1642 54.9644 2.17232 49.8588 0.309328 40.9044C-1.57754 31.8352 5.63055 28.7748 9.40705 20.5461C13.1007 12.4979 7.95911 6.20117 15.3094 1.78722C22.7603 -2.68707 36.4739 2.04813 43.8102 7.11571C50.2498 11.5639 56.6881 17.5013 58.8638 25.2617Z" fill="#BC9EE0"/>
<path d="M19 20C17.3438 20 16 21.3438 16 23C16 23.9438 16.4438 24.8312 17.2 25.4L30.8 35.6C31.5125 36.1313 32.4875 36.1313 33.2 35.6L46.8 25.4C47.5562 24.8312 48 23.9438 48 23C48 21.3438 46.6562 20 45 20H19ZM16 27V40C16 42.2062 17.7938 44 20 44H44C46.2062 44 48 42.2062 48 40V27L34.4 37.2C33.708 37.7203 32.8657 38.0016 32 38.0016C31.1343 38.0016 30.292 37.7203 29.6 37.2L16 27Z" fill="black"/>
</svg>
