<svg width="60" height="60" viewBox="0 0 60 60" fill="none" xmlns="http://www.w3.org/2000/svg">
<path fill-rule="evenodd" clip-rule="evenodd" d="M16.4306 4.58015C23.2357 0.504758 30.7167 -0.776004 38.4204 0.439919C45.9958 1.63559 50.884 5.15243 55.1752 11.0256C59.4598 16.8897 60.2894 23.3313 59.9223 30.6274C59.4679 39.6602 58.0334 54.0412 49.4324 58.435C40.7211 62.885 35.4999 56.5772 25.9997 55.151C16.7079 53.7562 11.774 60.6601 5.12944 54.5945C-1.606 48.446 -0.759608 33.4515 2.28094 24.7113C4.94986 17.0394 9.13965 8.94654 16.4306 4.58015Z" fill="#BC9EE0"/>
<g clip-path="url(#clip0_676_12493)">
<path d="M24.2081 42.8866H18.4031V24.1929H24.2081V42.8866ZM21.3025 21.6429C19.4462 21.6429 17.9406 20.1054 17.9406 18.2491C17.9406 17.3575 18.2948 16.5024 18.9253 15.8719C19.5557 15.2415 20.4108 14.8873 21.3025 14.8873C22.1941 14.8873 23.0492 15.2415 23.6797 15.8719C24.3101 16.5024 24.6643 17.3575 24.6643 18.2491C24.6643 20.1054 23.1581 21.6429 21.3025 21.6429ZM45.9343 42.8866H40.1418V33.7866C40.1418 31.6179 40.0981 28.8366 37.1237 28.8366C34.1056 28.8366 33.6431 31.1929 33.6431 33.6304V42.8866H27.8443V24.1929H33.4118V26.7429H33.4931C34.2681 25.2741 36.1612 23.7241 38.9856 23.7241C44.8606 23.7241 45.9406 27.5929 45.9406 32.6179V42.8866H45.9343Z" fill="black"/>
</g>
<defs>
<clipPath id="clip0_676_12493">
<rect width="28" height="32" fill="white" transform="translate(17.9406 14.8865)"/>
</clipPath>
</defs>
</svg>
