<svg width="24" height="24" viewBox="0 0 24 24" fill="none" xmlns="http://www.w3.org/2000/svg">
<path d="M20.125 12H17V9.5C17 8.12109 18.1211 7 19.5 7H19.8125C20.332 7 20.75 6.58203 20.75 6.0625V4.1875C20.75 3.66797 20.332 3.25 19.8125 3.25H19.5C16.0469 3.25 13.25 6.04687 13.25 9.5V18.875C13.25 19.9102 14.0898 20.75 15.125 20.75H20.125C21.1602 20.75 22 19.9102 22 18.875V13.875C22 12.8398 21.1602 12 20.125 12ZM8.875 12H5.75V9.5C5.75 8.12109 6.87109 7 8.25 7H8.5625C9.08203 7 9.5 6.58203 9.5 6.0625V4.1875C9.5 3.66797 9.08203 3.25 8.5625 3.25H8.25C4.79687 3.25 2 6.04687 2 9.5V18.875C2 19.9102 2.83984 20.75 3.875 20.75H8.875C9.91016 20.75 10.75 19.9102 10.75 18.875V13.875C10.75 12.8398 9.91016 12 8.875 12Z" fill="#7E5AAF"/>
</svg>
