<svg width="24" height="24" viewBox="0 0 24 24" fill="none" xmlns="http://www.w3.org/2000/svg">
<path d="M20.125 3.25H15.125C14.0898 3.25 13.25 4.08984 13.25 5.125V10.125C13.25 11.1602 14.0898 12 15.125 12H18.25V14.5C18.25 15.8789 17.1289 17 15.75 17H15.4375C14.918 17 14.5 17.418 14.5 17.9375V19.8125C14.5 20.332 14.918 20.75 15.4375 20.75H15.75C19.2031 20.75 22 17.9531 22 14.5V5.125C22 4.08984 21.1602 3.25 20.125 3.25ZM8.875 3.25H3.875C2.83984 3.25 2 4.08984 2 5.125V10.125C2 11.1602 2.83984 12 3.875 12H7V14.5C7 15.8789 5.87891 17 4.5 17H4.1875C3.66797 17 3.25 17.418 3.25 17.9375V19.8125C3.25 20.332 3.66797 20.75 4.1875 20.75H4.5C7.95313 20.75 10.75 17.9531 10.75 14.5V5.125C10.75 4.08984 9.91016 3.25 8.875 3.25Z" fill="#7E5AAF"/>
</svg>
