<svg width="100" height="100" viewBox="0 0 100 100" fill="none" xmlns="http://www.w3.org/2000/svg">
<path fill-rule="evenodd" clip-rule="evenodd" d="M91.5657 38.2393V38.2393L91.5884 38.8639L91.6123 39.4893L91.6373 40.1156L91.6634 40.7431L91.6904 41.372L91.7183 42.0024L91.7468 42.6345L91.7757 43.2686L91.8046 43.9047L91.8332 44.543L91.8611 45.1836L91.8879 45.8266L91.9131 46.4721L91.9362 47.12L91.9566 47.7704L91.9738 48.4233L91.9872 49.0785L91.9961 49.7361L92 50.3959L91.9981 51.0576L91.9898 51.7212L91.9745 52.3863L91.9514 53.0528L91.9199 53.7203L91.8793 54.3884L91.829 55.0568L91.7683 55.7252L91.6966 56.393L91.6133 57.0599L91.5178 57.7253L91.4097 58.3887L91.2884 59.0497L91.1534 59.7077L91.0044 60.3621L90.841 61.0125L90.6629 61.6582L90.4698 62.2987L90.2615 62.9335L90.038 63.5621L89.7991 64.1839L89.5448 64.7984L89.2752 65.4052L88.9901 66.0037L88.6898 66.5934L88.3742 67.1738L88.0435 67.7445L87.6977 68.3049L87.337 68.8547L86.9615 69.3932L86.5716 69.9202L86.1673 70.4351L85.7489 70.9375L85.3167 71.427L84.8709 71.9033L84.412 72.3659L83.9401 72.8145L83.4558 73.2488L82.9592 73.6684L82.4509 74.0731L81.9313 74.4627L81.4008 74.8367L80.8598 75.1952L80.3088 75.5378L79.7483 75.8645L79.1788 76.175L78.6008 76.4693L78.0148 76.7473L77.4213 77.009L76.821 77.2543L76.2143 77.4834L75.6018 77.6961L74.984 77.8926L74.3616 78.073L73.735 78.2374L73.1049 78.3861L72.4717 78.5191L71.8361 78.6367L71.1986 78.7392L70.5597 78.8268L69.92 78.8998L69.28 78.9586L68.6403 79.0035L68.0012 79.0348L67.3634 79.053L66.7272 79.0585L66.0932 79.0517L65.4617 79.033L64.8333 79.0029L64.2083 78.9618L63.5871 78.9104L62.9701 78.849L62.3575 78.7781L61.7498 78.6983L61.1473 78.61L60.5501 78.5139L59.9586 78.4103L59.373 78.2999L58.7935 78.1832L58.2203 78.0605L57.6535 77.9326L57.0933 77.7998L56.5399 77.6628L55.9933 77.5222L55.4537 77.3783L54.9211 77.2319L54.3955 77.0835L53.8771 76.9337L53.3659 76.7831L52.8618 76.6321L52.3648 76.4814L51.8748 76.3314L51.3919 76.1829L50.9158 76.0361L50.4465 75.8917L49.9839 75.7502L49.5277 75.612L49.0779 75.4777L48.6342 75.3475L48.1964 75.222L47.7643 75.1017L47.3377 74.9868L46.9163 74.8779L46.4998 74.7752L46.0879 74.6792L45.6805 74.5903L45.277 74.5087L44.8774 74.4349L44.4811 74.3693L44.0879 74.3121L43.6974 74.2638L43.3092 74.2248L42.923 74.1954L42.5383 74.1759L42.1548 74.1666L41.772 74.1678L41.3895 74.1796L41.0069 74.2021L40.6236 74.2354L40.2393 74.2794L39.8536 74.3343L39.4659 74.3998L39.0758 74.4759L38.683 74.5623L38.2869 74.6588L37.8872 74.7652L37.4835 74.8809L37.0753 75.0058L36.6625 75.1393L36.2445 75.281L35.8211 75.4304L35.3919 75.5868L34.9568 75.7498L34.5155 75.9187L34.0677 76.0928L33.6133 76.2714L33.1521 76.4539L32.684 76.6395L32.2089 76.8274L31.7267 77.0169L31.2374 77.2072L30.741 77.3974L30.2376 77.5868L29.7272 77.7746L29.2098 77.9599L28.6858 78.1419L28.1551 78.3198L27.618 78.4928L27.0748 78.6601L26.5257 78.8209L25.971 78.9744L25.4109 79.1199L24.8459 79.2566L24.2763 79.3839L23.7025 79.5011L23.1248 79.6074L22.5438 79.7022L21.9599 79.7851L21.3734 79.8553L20.785 79.9124L20.1951 79.9558L19.6041 79.9852L19.0127 80L18.4212 79.9999L17.8303 79.9846L17.2403 79.9537L16.6519 79.907L16.0656 79.8443L15.4819 79.7654L14.9012 79.6701L14.3241 79.5583L13.751 79.43L13.1825 79.2852L12.6191 79.1236L12.0613 78.9454L11.5096 78.7505L10.9646 78.5387L10.4268 78.3102L9.8968 78.0649L9.37515 77.8029L8.86239 77.5241L8.35908 77.2287L7.86577 76.9169L7.38301 76.5885L6.91132 76.244L6.45124 75.8834L6.00329 75.5069L5.56797 75.1147L5.14578 74.7072L4.73719 74.2846L4.34267 73.8471L3.96269 73.3952L3.59766 72.9292L3.24803 72.4494L2.9142 71.9562L2.59656 71.45L2.29552 70.9314L2.01144 70.4006L1.74469 69.8581L1.49564 69.3044L1.26463 68.7399L1.05203 68.1652L0.858173 67.5806L0.683413 66.9867L0.528054 66.384L0.392361 65.773L0.276551 65.1543L0.180795 64.5285L0.105214 63.8962L0.0498823 63.258L0.0148206 62.6147L0 61.9669L0.00533974 61.3154L0.030707 60.6607L0.0759173 60.0038L0.140734 59.3452L0.22487 58.6857L0.327987 58.0261L0.449697 57.367L0.589565 56.7092L0.747105 56.0534L0.92179 55.4002L1.11305 54.7505L1.32026 54.1047L1.54277 53.4636L1.77989 52.8279L2.03089 52.1979L2.295 51.5745L2.57144 50.958L2.8594 50.349L3.15801 49.7479L3.46643 49.1552L3.78377 48.5713L4.10914 47.9965L4.44163 47.4312L4.78031 46.8756L5.12428 46.3299L5.47261 45.7945L5.82439 45.2693L6.17869 44.7546L6.53461 44.2503L6.89127 43.7566L7.24778 43.2734L7.60328 42.8007L7.95695 42.3383L8.30797 41.8862L8.65555 41.4441L8.99894 41.0119L9.33742 40.5894L9.67032 40.1762L9.99697 39.772L10.3168 39.3767L10.6292 38.9897L10.9336 38.6107L11.2297 38.2393L11.5169 37.8752L11.7949 37.5178L12.0634 37.1667L12.322 36.8215L12.5706 36.4817L12.8089 36.1469L13.0368 35.8165L13.2542 35.4901L13.4612 35.1672L13.6576 34.8474L13.8436 34.5301L14.0193 34.215L14.1847 33.9015L14.34 33.5894L14.4856 33.278L14.6215 32.9671L14.7481 32.6563L14.8658 32.3452L14.9747 32.0334L15.0754 31.7206L15.1681 31.4066L15.2533 31.091L15.3315 30.7735L15.4029 30.454L15.4682 30.1323L15.5277 29.808L15.582 29.4812L15.6314 29.1515L15.6764 28.8189L15.7176 28.4833L15.7553 28.1446L15.79 27.8026L15.8221 27.4574L15.852 27.1089L15.8802 26.757L15.907 26.4017L15.9326 26.0429L15.9576 25.6807L15.982 25.3149L16.0062 24.9456L16.0304 24.5726L16.0548 24.1961L16.0798 23.8159L16.1055 23.4321L16.1323 23.0447L16.1605 22.6537L16.1904 22.2593L16.2223 21.8614L16.2564 21.4603L16.2932 21.0561L16.333 20.6488L16.376 20.2387L16.4227 19.826L16.4734 19.4109L16.5285 18.9936L16.5882 18.5744L16.653 18.1537L16.7232 17.7316L16.7991 17.3086L16.8811 16.885L16.9695 16.4612L17.0647 16.0376L17.1669 15.6146L17.2765 15.1927L17.3937 14.7723L17.5189 14.3539L17.6523 13.9381L17.7941 13.5252L17.9446 13.1159L18.104 12.7106L18.2725 12.31L18.4503 11.9145L18.6374 11.5248L18.8341 11.1413L19.0403 10.7646L19.2563 10.3953L19.4819 10.0339L19.7173 9.68099L19.9623 9.33705L20.217 9.00262L20.4813 8.67819L20.755 8.36425L21.0381 8.06126L21.3303 7.76965L21.6315 7.48984L21.9414 7.2222L22.2599 6.96708L22.5865 6.72481L22.9211 6.49566L23.2632 6.27987L23.6126 6.07764L23.9689 5.88914L24.3317 5.71447L24.7005 5.5537L25.0749 5.40685L25.4546 5.27389L25.839 5.15476L26.2277 5.04931L26.6202 4.95737L27.016 4.87872L27.4148 4.8131L27.816 4.76021L28.2191 4.71971L28.6238 4.69125L29.0295 4.67441L29.4359 4.66876L29.8425 4.67383L30.249 4.68913L30.655 4.71411L31.06 4.74822L31.4638 4.79087L31.866 4.84145L32.2663 4.89933L32.6645 4.96384L33.0603 5.03431L33.4535 5.11006L33.8438 5.19038L34.2312 5.27456L34.6154 5.3619L34.9964 5.45167L35.374 5.54317L35.7483 5.63568L36.1191 5.72853L36.4866 5.82102L36.8507 5.9125L37.2115 6.00234L37.5691 6.08994L37.9236 6.17474L38.2752 6.25621L38.624 6.33386L38.9703 6.40728L39.3142 6.47606L39.656 6.53984L39.9959 6.59825L40.3342 6.65097L40.6711 6.69768L41.0069 6.73808L41.3419 6.77189L41.6764 6.79888L42.0108 6.81882L42.3453 6.83151L42.6803 6.83678L43.0161 6.8345L43.3531 6.82454L43.6915 6.80682L44.0318 6.7813L44.3743 6.74793L44.7194 6.70674L45.0673 6.65776L45.4184 6.60106L45.7731 6.53674L46.1317 6.46494L46.4946 6.38581L46.8619 6.29956L47.2342 6.20641L47.6115 6.10662L47.9943 6.00047L48.3828 5.88828L48.7773 5.7704L49.1779 5.64718L49.5849 5.51905L49.9986 5.3864L50.4191 5.2497L50.8465 5.10941L51.281 4.96603L51.7227 4.82005L52.1718 4.67202L52.6283 4.52247L53.0922 4.37196L53.5635 4.22108L54.0423 4.07039L54.5286 3.92049L55.0223 3.77199L55.5233 3.62548L56.0315 3.48157L56.5468 3.34088L57.0691 3.20402L57.5982 3.07158L58.1338 2.94417L58.6759 2.82238L59.2241 2.70681L59.7782 2.59803L60.3379 2.49661L60.9028 2.40309L61.4728 2.31802L62.0475 2.24192L62.6264 2.17529L63.2094 2.11861L63.7958 2.07236L64.3855 2.03696L64.9779 2.01285L65.5727 2.00041L66.1694 2L66.7677 2.01194L67.3672 2.03652L67.9673 2.074L68.5678 2.12463L69.1682 2.18861L69.7681 2.26612L70.3671 2.35733L70.9647 2.46236L71.5607 2.58133L72.1545 2.71433L72.7458 2.86143L73.3342 3.02269L73.9194 3.19813L74.5008 3.38779L75.0781 3.59165L75.6509 3.80971L76.2188 4.04195L76.7815 4.28834L77.3384 4.54881L77.8893 4.82333L78.4337 5.11181L78.9712 5.4142L79.5014 5.73041L80.0238 6.06035L80.5381 6.40393L81.0437 6.76105L81.5401 7.13162L82.027 7.51554L82.5038 7.91268L82.97 8.32294L83.4251 8.74616L83.8687 9.18216L84.3002 9.63072L84.7193 10.0916L85.1256 10.5645L85.5188 11.0491L85.8985 11.5451L86.2646 12.0521L86.6167 12.5697L86.9548 13.0975L87.2785 13.635L87.588 14.1819L87.8831 14.7376L88.1638 15.3016L88.4301 15.8735L88.6822 16.4527L88.9201 17.0388L89.1441 17.6312L89.3544 18.2294L89.5511 18.833L89.7347 19.4413L89.9054 20.0539L90.0637 20.6704L90.2099 21.2903L90.3445 21.9131L90.4679 22.5383L90.5807 23.1656L90.6834 23.7946L90.7766 24.4248L90.8607 25.0561L90.9365 25.6879L91.0044 26.3201L91.0651 26.9525L91.1192 27.5847L91.1674 28.2165L91.2101 28.8479L91.2481 29.4786L91.2818 30.1087L91.3119 30.7379L91.339 31.3663L91.3635 31.9939L91.386 32.6206L91.407 33.2466L91.4269 33.8718L91.4461 34.4965L91.465 35.1206L91.484 35.7444L91.5033 36.368L91.5233 36.9916L91.544 37.6153L91.5657 38.2393" fill="#F7CF56"/>
<rect x="32.4" y="44" width="64.8" height="7.2" fill="#FBF9F2"/>
<path d="M44.9738 25V30H37.4869C33.3535 30 30 33.3594 30 37.5V45V50.4H33.6V45H96V50.8H99.8775V45V37.5C99.8775 33.3594 96.5241 30 92.3907 30H84.9038V25C84.9038 22.2344 82.6733 20 79.9125 20C77.1517 20 74.9213 22.2344 74.9213 25V30H54.9563V25C54.9563 22.2344 52.7258 20 49.965 20C47.2042 20 44.9738 22.2344 44.9738 25ZM99.8775 50H30V92.5C30 96.6406 33.3535 100 37.4869 100H92.3907C96.5241 100 99.8775 96.6406 99.8775 92.5V50Z" fill="#1B140F"/>
<path d="M42.9344 62.848H48.0032V75.8528H51.9968V80H38.48V75.8528H42.9344V66.9952L38.48 68.736V64.5632L42.9344 62.848Z" fill="#ECE1D5"/>
<path d="M62.1614 62.592H62.4174C67.4606 62.592 71.5054 65.3568 71.5054 70.8864V71.9872C71.5054 77.568 67.4606 80.256 62.4174 80.256H62.1614C57.1438 80.256 53.099 77.568 53.099 71.9872V70.8864C53.099 65.3568 57.1438 62.592 62.1614 62.592ZM62.1614 66.9952C59.6014 66.9952 58.219 68.2752 58.219 70.8864V71.9872C58.219 74.5984 59.6014 75.8272 62.1614 75.8272H62.4174C65.003 75.8272 66.3854 74.5984 66.3854 71.9872V70.8864C66.3854 68.2752 65.003 66.9952 62.4174 66.9952H62.1614Z" fill="#ECE1D5"/>
<path d="M82.6114 62.592H82.8674C87.9106 62.592 91.9554 65.3568 91.9554 70.8864V71.9872C91.9554 77.568 87.9106 80.256 82.8674 80.256H82.6114C77.5938 80.256 73.549 77.568 73.549 71.9872V70.8864C73.549 65.3568 77.5938 62.592 82.6114 62.592ZM82.6114 66.9952C80.0514 66.9952 78.669 68.2752 78.669 70.8864V71.9872C78.669 74.5984 80.0514 75.8272 82.6114 75.8272H82.8674C85.453 75.8272 86.8354 74.5984 86.8354 71.9872V70.8864C86.8354 68.2752 85.453 66.9952 82.8674 66.9952H82.6114Z" fill="#ECE1D5"/>
</svg>
