<svg width="100" height="100" viewBox="0 0 100 100" fill="none" xmlns="http://www.w3.org/2000/svg">
<g clip-path="url(#clip0_650_5403)">
<path fill-rule="evenodd" clip-rule="evenodd" d="M80.9612 38.9438C83.6141 48.1834 82.6469 57.2606 78.5739 65.7523C74.5687 74.1025 68.6518 78.5639 60.0759 81.5398C51.513 84.5112 43.4141 83.2951 34.6812 80.4078C23.8696 76.8332 6.89636 70.3203 4.46245 58.8979C1.99734 47.3291 11.4144 43.4252 16.3482 32.9285C21.1738 22.6621 14.4565 14.6299 24.0594 8.99938C33.7936 3.29189 51.7099 9.33219 61.2944 15.7965C69.7075 21.4707 78.1188 29.0445 80.9612 38.9438Z" fill="#BC9EE0"/>
<circle cx="56.8411" cy="46.4535" r="7.6922" fill="#FBF9F2"/>
<path d="M86.86 29.1461C83.1494 25.3576 78.7176 22.3508 73.8261 20.3031C68.9346 18.2553 63.6824 17.2081 58.3796 17.2232H55.3027C54.4867 17.2232 53.7041 17.5473 53.127 18.1244C52.55 18.7014 52.2259 19.484 52.2259 20.3V30.8884L13.6918 54.6034C13.3463 54.8161 13.0464 55.0951 12.8092 55.4242C12.5719 55.7534 12.4022 56.1261 12.3096 56.5211C12.217 56.9161 12.2034 57.3255 12.2697 57.7258C12.336 58.126 12.4807 58.5093 12.6956 58.8533L17.9956 67.3148L18.111 67.4801C19.4525 69.3532 21.2952 70.8099 23.4274 71.6828C25.5596 72.5557 27.8947 72.8093 30.1646 72.4147C35.5222 71.507 45.0183 69.8993 53.7797 73.68L43.5491 87.7452C40.7401 86.4102 38.1368 84.6799 35.8184 82.6068C35.2064 82.0627 34.4032 81.7839 33.5856 81.8318C32.7681 81.8798 32.003 82.2506 31.4588 82.8626C30.9146 83.4746 30.6359 84.2778 30.6838 85.0954C30.7318 85.9129 31.1026 86.678 31.7146 87.2222C39.0553 93.7291 48.5434 97.2909 58.3527 97.222H59.1873C67.0057 97.0676 74.6073 94.6247 81.0521 90.1957C87.4968 85.7667 92.5019 79.5457 95.4485 72.3021C98.395 65.0586 99.1537 57.1102 97.6306 49.44C96.1076 41.7698 92.3697 34.7143 86.8792 29.1461H86.86ZM56.8412 51.0688C55.9283 51.0688 55.036 50.7982 54.277 50.291C53.5181 49.7839 52.9265 49.0631 52.5772 48.2197C52.2278 47.3764 52.1365 46.4484 52.3145 45.5531C52.4926 44.6578 52.9322 43.8355 53.5776 43.19C54.2231 42.5445 55.0455 42.105 55.9408 41.9269C56.836 41.7488 57.764 41.8402 58.6074 42.1895C59.4507 42.5388 60.1715 43.1304 60.6787 43.8894C61.1858 44.6484 61.4565 45.5407 61.4565 46.4535C61.4565 47.6776 60.9702 48.8515 60.1047 49.717C59.2392 50.5826 58.0652 51.0688 56.8412 51.0688Z" fill="#1B140F"/>
</g>
<defs>
<clipPath id="clip0_650_5403">
<rect width="100" height="100" fill="white"/>
</clipPath>
</defs>
</svg>
