<svg width="100" height="100" viewBox="0 0 100 100" fill="none" xmlns="http://www.w3.org/2000/svg">
<g clip-path="url(#clip0_650_5417)">
<path fill-rule="evenodd" clip-rule="evenodd" d="M20.2526 21.9004L20.6804 21.8149L21.0982 21.73L21.5059 21.645L21.9034 21.559L22.2906 21.4714L22.6677 21.3815L23.0345 21.2884L23.3912 21.1915L23.738 21.0901L24.0749 20.9836L24.4023 20.8712L24.7203 20.7523L25.0294 20.6264L25.3298 20.4929L25.622 20.3514L25.9064 20.2013L26.1834 20.0422L26.4536 19.8738L26.7175 19.6957L26.9758 19.5077L27.2289 19.3096L27.4775 19.1011L27.7222 18.8821L27.9637 18.6527L28.2027 18.4127L28.4397 18.1622L28.6755 17.9012L28.9108 17.6299L29.1461 17.3483L29.3822 17.0568L29.6197 16.7554L29.8592 16.4445L30.1014 16.1242L30.3468 15.795L30.5961 15.457L30.8498 15.1106L31.1084 14.7561L31.3724 14.394L31.6425 14.0244L31.9191 13.648L32.2026 13.2651L32.4936 12.8764L32.7925 12.4823L33.0997 12.0835L33.4157 11.6806L33.7407 11.2742L34.0752 10.8651L34.4195 10.454L34.7738 10.0417L35.1384 9.62881L35.5135 9.21629L35.8993 8.80489L36.2959 8.39546L36.7033 7.98882L37.1218 7.58585L37.5512 7.18736L37.9916 6.79425L38.4429 6.40736L38.905 6.02754L39.3778 5.65565L39.861 5.29251L40.3544 4.93897L40.8579 4.59581L41.3711 4.26384L41.8936 3.94382L42.4252 3.63649L42.9653 3.34258L43.5137 3.06277L44.0698 2.79772L44.6332 2.54804L45.2032 2.31433L45.7796 2.09712L46.3615 1.89695L46.9486 1.71425L47.5402 1.54946L48.1357 1.40297L48.7345 1.27508L49.336 1.16608L49.9396 1.07619L50.5447 1.00556L51.1506 0.954328L51.7568 0.922535L52.3627 0.910218L52.9677 0.917312L53.5712 0.943767L54.1727 0.989441L54.7716 1.05417L55.3675 1.13775L55.9598 1.23993L56.5481 1.36045L57.1319 1.49899L57.7108 1.65522L58.2844 1.8288L58.8523 2.01932L59.4141 2.2264L59.9696 2.44964L60.5183 2.68862L61.0601 2.94291L61.5946 3.21209L62.1216 3.49573L62.6408 3.7934L63.152 4.10471L63.655 4.42922L64.1495 4.76656L64.6353 5.11635L65.1123 5.47823L65.5801 5.85183L66.0386 6.23687L66.4874 6.63303L66.9265 7.04003L67.3554 7.45762L67.7739 7.88552L68.1818 8.32345L68.5787 8.77113L68.9646 9.22824L69.3392 9.6945L69.7022 10.1696L70.0535 10.6532L70.393 11.1449L70.7203 11.6444L71.0355 12.1515L71.3383 12.6656L71.6287 13.1865L71.9066 13.7137L72.1719 14.247L72.4246 14.7858L72.6646 15.3299L72.892 15.8788L73.1068 16.4321L73.309 16.9894L73.4987 17.5503L73.6761 18.1144L73.8412 18.6814L73.9941 19.2508L74.1352 19.8221L74.2645 20.3952L74.3823 20.9694L74.4888 21.5446L74.5844 22.1202L74.6693 22.696L74.7438 23.2717L74.8083 23.8468L74.8632 24.4211L74.9087 24.9943L74.9453 25.5662L74.9734 26.1363L74.9935 26.7047L75.0058 27.2709L75.011 27.8349L75.0093 28.3964L75.0015 28.9552L74.988 29.5113L74.9695 30.0645L74.9466 30.6146L74.92 31.1617L74.8903 31.7057L74.8583 32.2465L74.8246 32.7843L74.7901 33.319L74.7553 33.8508L74.7209 34.3798L74.6876 34.9062L74.6561 35.4303L74.6269 35.9522L74.6007 36.4723L74.5778 36.9909L74.5589 37.5083L74.5443 38.025L74.5344 38.5412L74.5296 39.0574L74.5301 39.5741L74.5361 40.0918L74.5478 40.6108L74.5653 41.1316L74.5885 41.6547L74.6176 42.1806L74.6523 42.7098L74.6926 43.2426L74.7383 43.7797L74.7892 44.3212L74.8449 44.8678L74.9051 45.4199L74.9696 45.9777L75.0379 46.5418L75.1096 47.1123L75.1842 47.6897L75.2609 48.2742L75.3393 48.866L75.4185 49.4654L75.4977 50.0723L75.5762 50.687L75.653 51.3093L75.7273 51.9394L75.798 52.577L75.8642 53.2219L75.9248 53.8741L75.9789 54.533L76.0254 55.1985L76.0632 55.8701L76.0914 56.5473L76.1088 57.2295L76.1146 57.9162L76.1077 58.6067L76.0871 59.3003L76.052 59.9962L76.0014 60.6937L75.9346 61.3919L75.8508 62.09L75.7493 62.7869L75.6294 63.4819L75.4905 64.1739L75.3322 64.8619L75.1539 65.5451L74.9553 66.2224L74.7361 66.8929L74.4962 67.5555L74.2352 68.2094L73.9533 68.8536L73.6503 69.4871L73.3265 70.1092L72.9819 70.719L72.6169 71.3156L72.2316 71.8983L71.8265 72.4664L71.4018 73.0191L70.9581 73.5556L70.4957 74.0752L70.015 74.5774L69.5167 75.0614L69.0013 75.5267L68.4694 75.9727L67.9217 76.3989L67.3587 76.8049L66.7813 77.1902L66.1901 77.5546L65.586 77.8976L64.9697 78.2192L64.3421 78.519L63.704 78.7971L63.0563 79.0534L62.3998 79.2878L61.7355 79.5005L61.0641 79.6916L60.3866 79.8613L59.7038 80.0098L59.0166 80.1374L58.3259 80.2445L57.6324 80.3314L56.937 80.3985L56.2404 80.4464L55.5434 80.4755L54.8468 80.4863L54.1511 80.4793L53.4571 80.4551L52.7653 80.4142L52.0764 80.3572L51.3909 80.2845L50.7093 80.1968L50.0321 80.0946L49.3597 79.9784L48.6926 79.8491L48.0311 79.7071L47.3757 79.5532L46.7267 79.388L46.0844 79.2122L45.449 79.0265L44.8207 78.8316L44.1999 78.6283L43.5865 78.4171L42.9809 78.1989L42.3829 77.9743L41.7928 77.7439L41.2106 77.5085L40.6361 77.2687L40.0695 77.0252L39.5106 76.7785L38.9593 76.5292L38.4155 76.278L37.8791 76.0253L37.3498 75.7717L36.8276 75.5177L36.3121 75.2636L35.8031 75.01L35.3004 74.7571L34.8038 74.5054L34.3129 74.2552L33.8274 74.0068L33.3471 73.7603L32.8717 73.5161L32.4008 73.2742L31.9341 73.0349L31.4714 72.7981L31.0124 72.564L30.5567 72.3327L30.104 72.104L29.6541 71.8781L29.2067 71.6547L28.7615 71.4338L28.3183 71.2152L27.8768 70.9988L27.437 70.7843L26.9985 70.5715L26.5612 70.3601L26.1249 70.1499L25.6897 69.9404L25.2553 69.7314L24.8217 69.5226L24.3888 69.3135L23.9567 69.1039L23.5253 68.8932L23.0947 68.6812L22.6649 68.4675L22.236 68.2516L21.8081 68.0333L21.3813 67.8121L20.9557 67.5878L20.5316 67.3599L20.109 67.1281L19.6881 66.8921L19.2691 66.6517L18.8522 66.4066L18.4376 66.1565L18.0256 65.9012L17.6162 65.6405L17.2098 65.3743L16.8065 65.1023L16.4065 64.8245L16.01 64.5408L15.6173 64.2511L15.2283 63.9554L14.8434 63.6536L14.4626 63.3457L14.0861 63.0319L13.7139 62.7121L13.3463 62.3864L12.9831 62.0548L12.6246 61.7175L12.2708 61.3746L11.9216 61.0262L11.5772 60.6723L11.2375 60.3132L10.9024 59.9489L10.572 59.5797L10.2463 59.2055L9.92514 58.8266L9.60851 58.4431L9.29634 58.055L8.98857 57.6626L8.68513 57.266L8.38594 56.8651L8.09093 56.4602L7.80003 56.0513L7.5132 55.6385L7.23036 55.2218L6.95147 54.8013L6.6765 54.3771L6.40544 53.9491L6.13827 53.5173L5.87501 53.0819L5.61569 52.6427L5.36037 52.1997L5.10912 51.7531L4.86203 51.3026L4.61923 50.8483L4.38085 50.3902L4.14707 49.9283L3.91807 49.4624L3.69407 48.9926L3.47533 48.5188L3.26214 48.0411L3.05489 47.5593L2.85401 47.0735L2.66 46.5836L2.4734 46.0897L2.2948 45.5916L2.12484 45.0896L1.96418 44.5837L1.81352 44.0739L1.67358 43.5603L1.54506 43.0433L1.42872 42.5229L1.32529 41.9994L1.2355 41.4732L1.16006 40.9444L1.09967 40.4136L1.055 39.8811L1.0267 39.3473L1.01537 38.8127L1.02158 38.2779L1.04583 37.7433L1.08861 37.2096L1.15032 36.6773L1.23133 36.1471L1.33192 35.6196L1.45235 35.0955L1.59278 34.5753L1.75332 34.0599L1.93401 33.5499L2.13483 33.0459L2.3557 32.5487L2.59647 32.0588L2.85693 31.577L3.13681 31.1039L3.43579 30.6402L3.75346 30.1864L4.08936 29.7431L4.44294 29.3108L4.81361 28.8902L5.20067 28.4815L5.60341 28.0853L6.02104 27.702L6.45271 27.3317L6.89754 26.975L7.3546 26.6318L7.82293 26.3025L8.30153 25.9871L8.78937 25.6857L9.2854 25.3982L9.78857 25.1246L10.2978 24.8648L10.812 24.6185L11.3302 24.3855L11.8512 24.1656L12.374 23.9582L12.8976 23.7631L13.421 23.5798L13.9431 23.4077L14.4631 23.2464L14.98 23.0952L15.493 22.9534L16.0012 22.8205L16.5039 22.6957L17.0003 22.5783L17.4899 22.4675L17.9719 22.3627L18.4459 22.263L18.9114 22.1677L19.3679 22.0761L19.815 21.9872L20.2526 21.9004Z" fill="#EC9767"/>
<rect x="34.375" y="40.125" width="57.4219" height="45.7031" fill="#FBF9F2"/>
<path d="M38.2809 27C30.9373 27 25 32.9379 25 40.282V86.843C25 94.1871 30.9373 100.125 38.2809 100.125H86.7191C94.0627 100.125 100 94.1871 100 86.843V40.282C100 32.9379 94.0627 27 86.7191 27H38.2809ZM51.8752 45.5941C54.4375 45.5941 56.5627 45.9059 58.3123 46.5621C59.8812 47.0952 61.3117 47.9709 62.5 49.1256C63.5068 50.1358 64.2849 51.3505 64.7816 52.6875C65.2504 54 65.4994 55.3436 65.4994 56.7498C65.4994 59.4373 64.8744 61.6561 63.6244 63.4061C62.3752 65.1557 60.6256 66.4687 58.5941 67.2187C56.4689 68.0004 54.1252 68.2811 51.5629 68.2811C50.8129 68.2811 50.3119 68.2811 49.9996 68.25C49.6873 68.2189 49.2496 68.2189 48.6561 68.2189V78.2502C48.6871 78.4688 48.5312 78.6568 48.3127 78.6879H42.25C42.0004 78.6879 41.8762 78.5619 41.8762 78.2807V46.125C41.8762 45.9064 41.9699 45.7805 42.1885 45.7805C42.7199 45.7805 43.2197 45.7805 43.9381 45.75C44.6881 45.7184 45.4691 45.7195 46.3129 45.6879C47.1566 45.6568 48.0631 45.6563 49.0316 45.6252C50.0008 45.5936 50.9377 45.5941 51.8752 45.5941ZM52.5725 51.7488C52.4129 51.7458 52.2533 51.7462 52.0938 51.75C51.2816 51.75 50.5627 51.7506 49.9686 51.7822C49.3439 51.7506 48.9068 51.7816 48.6883 51.8127V62.3127C49.1254 62.3443 49.5309 62.3748 49.9059 62.3748H51.5629C52.7816 62.3748 54.0004 62.1873 55.1564 61.8123C56.1566 61.5311 57.0314 60.9369 57.7188 60.1559C58.375 59.3742 58.6879 58.3125 58.6879 56.9373C58.7166 55.961 58.4675 54.9967 57.9695 54.1564C57.4381 53.3443 56.6875 52.7186 55.7811 52.3752C54.7691 51.965 53.6857 51.7705 52.5725 51.7488ZM78.7814 53.3443C80.0629 53.3443 81.3754 53.4369 82.6563 53.6244C83.5938 53.7492 84.4996 54.0006 85.3434 54.3445C85.4688 54.3756 85.5936 54.4998 85.6557 54.6246C85.6873 54.7494 85.7189 54.8748 85.7189 54.9996V60.0938C85.7193 60.1544 85.7053 60.2142 85.6783 60.2685C85.6512 60.3227 85.6117 60.3699 85.5631 60.4061C85.2818 60.4688 85.1254 60.4688 85.0006 60.4061C84.0631 59.9063 83.0623 59.5629 81.9994 59.3443C80.8434 59.0941 79.6873 58.9371 78.5002 58.9371C77.875 58.9055 77.2182 59.0004 76.6246 59.1563C76.218 59.25 75.8746 59.4691 75.6561 59.7814C75.5002 60.0316 75.4064 60.3439 75.4064 60.6252C75.4064 60.9064 75.5318 61.1877 75.7193 61.4373C76.0006 61.7813 76.375 62.0631 76.7811 62.2822C77.5057 62.6568 78.2461 63.0002 79 63.3117C80.6875 63.8742 82.3123 64.6564 83.8123 65.5939C84.8436 66.2502 85.6873 67.1256 86.2809 68.1879C86.7836 69.1846 87.0309 70.2906 87.0004 71.4064C87.0258 72.8836 86.6002 74.3334 85.7805 75.5625C84.9091 76.8098 83.6931 77.7762 82.2813 78.3434C80.7496 78.9996 78.8746 79.3436 76.6246 79.3436C75.1867 79.3436 73.7816 79.2187 72.3754 78.9375C71.2732 78.7471 70.2013 78.4107 69.1879 77.9373C68.9693 77.8125 68.8123 77.5934 68.8434 77.3432V71.9062C68.8434 71.8125 68.8744 71.6871 68.9682 71.625C69.0619 71.5623 69.1557 71.5945 69.2494 71.6566C70.4531 72.3668 71.7608 72.8836 73.1248 73.1883C74.3125 73.5006 75.5629 73.6564 76.8133 73.6564C78.0004 73.6564 78.8441 73.5 79.4066 73.2188C79.9064 73.0002 80.2498 72.4687 80.2498 71.9062C80.2498 71.4691 80.0002 71.0619 79.4998 70.6553C79 70.2492 77.9688 69.7811 76.4377 69.1875C74.8666 68.6342 73.3747 67.8778 71.9998 66.9375C71.0206 66.2397 70.2093 65.3324 69.625 64.2814C69.1263 63.2945 68.8795 62.1994 68.9066 61.0939C68.9066 59.7504 69.2811 58.4689 69.9684 57.3129C70.7494 56.0631 71.9066 55.0629 73.2508 54.4383C74.7191 53.6883 76.5619 53.3443 78.7814 53.3443Z" fill="#1B140F"/>
</g>
<defs>
<clipPath id="clip0_650_5417">
<rect width="100" height="100" fill="white"/>
</clipPath>
</defs>
</svg>
