<svg width="100" height="100" viewBox="0 0 100 100" fill="none" xmlns="http://www.w3.org/2000/svg">
<path fill-rule="evenodd" clip-rule="evenodd" d="M88.2714 52.3645L88.0122 52.6926L87.7601 53.0141L87.5155 53.3293L87.279 53.6387L87.0513 53.9428L86.8327 54.2421L86.6237 54.5371L86.4248 54.8284L86.2363 55.1166L86.0585 55.4022L85.8918 55.6859L85.7363 55.9681L85.5921 56.2495L85.4595 56.5308L85.3384 56.8125L85.2289 57.0951L85.1307 57.3794L85.044 57.6659L84.9683 57.955L84.9036 58.2475L84.8495 58.5438L84.8056 58.8444L84.7717 59.1498L84.7472 59.4604L84.7317 59.7768L84.7246 60.0992L84.7256 60.4281L84.7339 60.7638L84.749 61.1067L84.7702 61.4569L84.7971 61.8148L84.8288 62.1806L84.8649 62.5545L84.9046 62.9367L84.9473 63.3274L84.9924 63.7266L85.0393 64.1345L85.0874 64.5512L85.136 64.9768L85.1844 65.4112L85.2319 65.8545L85.2779 66.3065L85.3216 66.7672L85.3623 67.2364L85.3994 67.7139L85.432 68.1995L85.4594 68.693L85.481 69.194L85.496 69.7022L85.5037 70.2171L85.5034 70.7385L85.4945 71.2658L85.4762 71.7985L85.448 72.3361L85.4092 72.8781L85.3592 73.4239L85.2975 73.9729L85.2236 74.5244L85.1369 75.0778L85.0371 75.6325L84.9235 76.1876L84.796 76.7426L84.654 77.2966L84.4974 77.849L84.3257 78.3991L84.1389 78.946L83.9367 79.489L83.7189 80.0274L83.4855 80.5605L83.2364 81.0875L82.9715 81.6077L82.691 82.1204L82.3948 82.6248L82.083 83.1203L81.7559 83.6063L81.4136 84.0821L81.0564 84.5471L80.6844 85.0007L80.2981 85.4424L79.8977 85.8717L79.4836 86.2882L79.0562 86.6913L78.616 87.0808L78.1634 87.4562L77.6989 87.8173L77.223 88.1639L76.7361 88.4956L76.2388 88.8124L75.7317 89.1141L75.2152 89.4005L74.6899 89.6716L74.1564 89.9275L73.6151 90.1679L73.0666 90.3931L72.5115 90.603L71.9502 90.7977L71.3833 90.9773L70.8113 91.1419L70.2347 91.2917L69.6539 91.4267L69.0694 91.5471L68.4817 91.653L67.8912 91.7446L67.2984 91.822L66.7035 91.8853L66.1072 91.9347L65.5097 91.9702L64.9114 91.992L64.3128 92L63.7142 91.9943L63.1159 91.9749L62.5184 91.9419L61.9221 91.8952L61.3272 91.8349L60.7342 91.7611L60.1434 91.6739L59.5553 91.5733L58.9701 91.4595L58.3882 91.3325L57.81 91.1926L57.2359 91.0398L56.666 90.8743L56.1008 90.6963L55.5406 90.5061L54.9857 90.3038L54.4363 90.0897L53.8929 89.8641L53.3555 89.6271L52.8245 89.3792L52.3001 89.1206L51.7825 88.8516L51.2719 88.5726L50.7685 88.284L50.2725 87.9861L49.7839 87.6793L49.3029 87.364L48.8296 87.0406L48.364 86.7095L47.9062 86.3711L47.4562 86.0259L47.014 85.6744L46.5796 85.3168L46.1528 84.9538L45.7337 84.5857L45.3221 84.2129L44.9179 83.8359L44.521 83.4552L44.1311 83.071L43.7481 82.6839L43.3718 82.2942L43.0019 81.9025L42.638 81.5091L42.2797 81.1146L41.9268 80.7194L41.5786 80.324L41.2349 79.9288L40.8949 79.5344L40.5582 79.141L40.2243 78.7492L39.8925 78.3592L39.5622 77.9714L39.2329 77.5861L38.9039 77.2036L38.5746 76.824L38.2443 76.4475L37.9125 76.0742L37.5787 75.7041L37.2421 75.3374L36.9023 74.9739L36.5588 74.6135L36.211 74.2562L35.8585 73.9017L35.5009 73.5498L35.1378 73.2003L34.7688 72.8528L34.3937 72.5071L34.0122 72.1627L33.6241 71.8192L33.2292 71.4762L32.8274 71.1333L32.4187 70.79L32.0029 70.4458L31.5801 70.1003L31.1503 69.7528L30.7136 69.403L30.2702 69.0502L29.8204 68.6939L29.3645 68.3335L28.9029 67.9685L28.4361 67.5982L27.9647 67.2221L27.4894 66.8396L27.0108 66.4502L26.5298 66.0534L26.0472 65.6486L25.5638 65.2353L25.0807 64.8132L24.5988 64.3818L24.1193 63.9408L23.6431 63.4898L23.1715 63.0285L22.7055 62.5568L22.2464 62.0746L21.7953 61.5816L21.3533 61.0778L20.9218 60.5632L20.5018 60.038L20.0945 59.5022L19.701 58.9559L19.3225 58.3995L18.96 57.8333L18.6146 57.2575L18.2872 56.6725L17.9788 56.0788L17.6903 55.477L17.4224 54.8675L17.1759 54.2508L16.9515 53.6277L16.7497 52.9987L16.5712 52.3645L16.4162 51.7259L16.2853 51.0834L16.1787 50.4378L16.0966 49.7899L16.0394 49.1405L16.0071 48.4901L16 47.8397L16.0181 47.1899L16.0615 46.5416L16.1302 45.8955L16.224 45.2524L16.3429 44.613L16.4867 43.9781L16.655 43.3484L16.8477 42.7245L17.0642 42.1073L17.3042 41.4973L17.5671 40.8951L17.8524 40.3015L18.1596 39.7169L18.4879 39.1419L18.8367 38.577L19.2051 38.0226L19.5926 37.4792L19.9981 36.9472L20.421 36.4268L20.8603 35.9184L21.3152 35.4223L21.7848 34.9386L22.2682 34.4675L22.7646 34.0092L23.273 33.5637L23.7926 33.1312L24.3226 32.7116L24.8622 32.305L25.4105 31.9114L25.9668 31.5307L26.5303 31.1629L27.1003 30.8078L27.6761 30.4655L28.2569 30.1356L28.842 29.818L29.4306 29.5125L30.0221 29.2188L30.6158 28.9366L31.211 28.6657L31.807 28.4056L32.4033 28.156L32.9993 27.9165L33.5944 27.6868L34.188 27.4663L34.7797 27.2548L35.3689 27.0516L35.9554 26.8564L36.5386 26.6688L37.1182 26.4881L37.6938 26.314L38.2653 26.146L38.8322 25.9837L39.3945 25.8265L39.9519 25.674L40.5043 25.5257L41.0516 25.3813L41.5937 25.2403L42.1305 25.1022L42.6622 24.9668L43.1886 24.8335L43.7098 24.7021L44.2259 24.5723L44.7371 24.4436L45.2435 24.3159L45.7451 24.1889L46.2423 24.0623L46.7352 23.9359L47.224 23.8096L47.709 23.6831L48.1904 23.5565L48.6684 23.4295L49.1435 23.3021L49.6157 23.1744L50.0856 23.0463L50.5532 22.9179L51.0191 22.7892L51.4833 22.6605L51.9463 22.5318L52.4084 22.4034L52.8698 22.2753L53.3308 22.1479L53.7916 22.0213L54.2525 21.8959L54.7138 21.7719L55.1757 21.6496L55.6383 21.5294L56.1018 21.4115L56.5665 21.2962L57.0323 21.184L57.4995 21.075L57.9682 20.9698L58.4384 20.8684L58.9102 20.7714L59.3836 20.679L59.8586 20.5915L60.3353 20.5091L60.8136 20.4322L61.2934 20.3609L61.7748 20.2956L62.2577 20.2364L62.7419 20.1835L63.2274 20.1371L63.7142 20.0973L64.202 20.0642L64.6909 20.0378L65.1806 20.0183L65.6711 20.0057L66.1622 20L66.6539 20.0012L67.1461 20.0092L67.6386 20.0241L68.1313 20.0458L68.6242 20.0742L69.1171 20.1091L69.6101 20.1506L70.1029 20.1985L70.5956 20.2527L71.0881 20.313L71.5803 20.3794L72.0723 20.4517L72.564 20.5298L73.0553 20.6136L73.5463 20.703L74.0369 20.7977L74.5271 20.8979L75.017 21.0033L75.5065 21.1139L75.9957 21.2296L76.4845 21.3503L76.9729 21.4762L77.461 21.607L77.9486 21.7429L78.4359 21.8839L78.9227 22.0299L79.409 22.1811L79.8948 22.3376L80.3799 22.4993L80.8644 22.6666L81.3481 22.8393L81.8308 23.0178L82.3125 23.2022L82.793 23.3925L83.272 23.5892L83.7493 23.7923L84.2247 24.0023L84.6977 24.2194L85.1679 24.444L85.6349 24.6764L86.0983 24.917L86.5574 25.1662L87.0117 25.4244L87.4606 25.6918L87.9033 25.9689L88.3393 26.2559L88.7679 26.5532L89.1882 26.861L89.5995 27.1796L90.0011 27.509L90.3923 27.8495L90.7721 28.2012L91.1399 28.5641L91.495 28.9382L91.8364 29.3234L92.1636 29.7197L92.4758 30.1269L92.7723 30.5449L93.0525 30.9732L93.3158 31.4117L93.5616 31.86L93.7893 32.3177L93.9985 32.7843L94.1887 33.2594L94.3595 33.7424L94.5107 34.2328L94.6418 34.7301L94.7527 35.2335L94.8432 35.7424L94.9132 36.2563L94.9626 36.7743L94.9915 37.2958L95 37.82L94.9882 38.3462L94.9565 38.8736L94.9051 39.4015L94.8345 39.9291L94.7451 40.4557L94.6375 40.9806L94.5123 41.503L94.37 42.0222L94.2116 42.5375L94.0377 43.0483L93.8492 43.5541L93.647 44.0541L93.4319 44.5478L93.205 45.0349L92.9673 45.5147L92.7197 45.9869L92.4633 46.4511L92.1992 46.907L91.9283 47.3544L91.6519 47.793L91.371 48.2227L91.0866 48.6433L90.7998 49.0548L90.5116 49.4573L90.2231 49.8506L89.9351 50.2351L89.6488 50.6107L89.365 50.9776L89.0845 51.3362L88.8082 51.6867L88.537 52.0294L88.2714 52.3645Z" fill="#EC9767"/>
<rect x="19" y="52.1357" width="8" height="34" fill="#FBF9F2"/>
<rect x="35" y="64.1357" width="40" height="20" fill="#FBF9F2"/>
<path d="M38.8958 55.719H47.9375C50.3998 55.719 52.838 56.204 55.1128 57.1463C57.3877 58.0886 59.4547 59.4697 61.1958 61.2108C62.9369 62.9519 64.318 65.0189 65.2602 67.2937C66.2025 69.5686 66.6875 72.0067 66.6875 74.469H37.5167V78.6357H70.85V74.469C70.842 71.4816 70.2583 69.0378 69.1452 66.294H64C63.6441 65.5918 61.4281 62.6354 61 61.969H79.1875C83.1265 61.9683 86.9851 63.0843 90.3155 65.1876C93.646 67.2909 96.312 70.2953 98.0042 73.8524C88.15 86.8524 72.1958 95.3065 54.1875 95.3065C42.6833 95.3065 32.9375 92.8482 25.0208 88.5357H20.2809V84.294H25.0208V54.4494H20V49.794L25.0208 49.769C30.0896 50.4942 34.8764 52.5469 38.8958 55.719ZM20.8542 86.969C20.8542 88.0741 20.4152 89.1339 19.6338 89.9153C18.8524 90.6967 17.7926 91.1357 16.6875 91.1357H8.35417C7.2491 91.1357 6.18929 90.6967 5.40789 89.9153C4.62649 89.1339 4.1875 88.0741 4.1875 86.969V49.469C4.1875 48.364 4.62649 47.3042 5.40789 46.5228C6.18929 45.7413 7.2491 45.3024 8.35417 45.3024H16.6875C17.7926 45.3024 18.8524 45.7413 19.6338 46.5228C20.4152 47.3042 20.8542 48.364 20.8542 49.469V86.969ZM75.0208 28.6357C78.336 28.6357 81.5155 29.9527 83.8597 32.2969C86.2039 34.6411 87.5208 37.8205 87.5208 41.1357C87.5208 44.4509 86.2039 47.6303 83.8597 49.9745C81.5155 52.3187 78.336 53.6357 75.0208 53.6357C71.7056 53.6357 68.5262 52.3187 66.182 49.9745C63.8378 47.6303 62.5208 44.4509 62.5208 41.1357C62.5208 37.8205 63.8378 34.6411 66.182 32.2969C68.5262 29.9527 71.7056 28.6357 75.0208 28.6357ZM45.8542 16.1357C49.1694 16.1357 52.3488 17.4527 54.693 19.7969C57.0372 22.1411 58.3542 25.3205 58.3542 28.6357C58.3542 31.9509 57.0372 35.1303 54.693 37.4745C52.3488 39.8187 49.1694 41.1357 45.8542 41.1357C42.539 41.1357 39.3595 39.8187 37.0153 37.4745C34.6711 35.1303 33.3542 31.9509 33.3542 28.6357C33.3542 25.3205 34.6711 22.1411 37.0153 19.7969C39.3595 17.4527 42.539 16.1357 45.8542 16.1357Z" fill="#1B140F"/>
</svg>
