<svg width="100" height="100" viewBox="0 0 100 100" fill="none" xmlns="http://www.w3.org/2000/svg">
<g clip-path="url(#clip0_696_9405)">
<path fill-rule="evenodd" clip-rule="evenodd" d="M2.63283 55.2575C3.88918 64.788 8.39992 72.7243 15.5244 78.8838C22.5302 84.9407 29.7362 86.6689 38.7871 85.9737C47.8242 85.2794 54.7642 80.9312 61.6183 74.7974C70.1038 67.2038 83.0656 54.4562 80.737 43.0119C78.3786 31.4209 68.186 31.6011 59.4718 23.947C50.9488 16.4608 53.9008 6.41467 42.8485 5.08609C31.6452 3.73934 17.6301 16.4301 11.4232 26.1833C5.97499 34.7445 1.28677 45.0466 2.63283 55.2575Z" fill="#F7CF56"/>
<path fill-rule="evenodd" clip-rule="evenodd" d="M86.3225 54.2864C87.5795 59.0588 86.3347 63.9731 82.9718 68.7705C79.665 73.4881 75.2774 76.2473 69.1386 78.3803C63.0092 80.5101 57.4663 80.3717 51.589 79.3799C44.3129 78.1519 32.9469 75.7424 31.9799 69.7892C31.0004 63.7597 37.7815 61.0774 41.8684 55.1535C45.8656 49.3596 41.7121 45.4896 48.7313 41.8724C55.8464 38.2058 67.8966 40.303 74.1387 43.1535C79.6179 45.6556 84.9758 49.1734 86.3225 54.2864Z" fill="#FBF9F2"/>
<path d="M95 26.9667C92 30 87.1 32.4333 81.0333 34.1667C75.104 29.3033 67.6687 26.6521 60 26.6667C52.0333 26.6667 44.7 29.4667 38.9667 34.1667C32.9 32.4333 28 30 25 26.9667C25.1 32.4 27.8333 37.3667 32.4 41.3333C28.6495 46.8347 26.6509 53.3419 26.6667 60C26.6667 68.8406 30.1786 77.319 36.4298 83.5702C39.5251 86.6655 43.1997 89.1208 47.2439 90.796C51.2881 92.4711 55.6226 93.3333 60 93.3333C68.8405 93.3333 77.319 89.8214 83.5702 83.5702C89.8214 77.319 93.3333 68.8406 93.3333 60C93.3333 53.0667 91.2333 46.6667 87.6 41.3333C92.1667 37.3667 94.9 32.4 95 26.9667ZM45 48.3333L55 53.3333C55 56 52.6667 58.3333 50 58.3333C47.3333 58.3333 45 56 45 53.3333V48.3333ZM60 77.4333C54.1667 77.4333 49.0333 75 46.0333 71.4L50.7667 66.6667C52.2667 69.0667 55.8333 70.7667 60 70.7667C64.1667 70.7667 67.7333 69.0667 69.2333 66.6667L73.9667 71.4C70.9667 75 65.8333 77.4333 60 77.4333ZM75 53.3333C75 56 72.6667 58.3333 70 58.3333C67.3333 58.3333 65 56 65 53.3333L75 48.3333V53.3333Z" fill="#1B140F"/>
</g>
<defs>
<clipPath id="clip0_696_9405">
<rect width="100" height="100" fill="white"/>
</clipPath>
</defs>
</svg>
