<svg width="100" height="100" viewBox="0 0 100 100" fill="none" xmlns="http://www.w3.org/2000/svg">
<g clip-path="url(#clip0_650_5430)">
<path fill-rule="evenodd" clip-rule="evenodd" d="M83.4487 69.0372L83.1567 69.3698L82.8589 69.6973L82.5558 70.0195L82.2473 70.3364L81.9337 70.648L81.6152 70.9543L81.2919 71.2553L80.964 71.551L80.6318 71.8413L80.2954 72.1264L79.955 72.4063L79.6108 72.6809L79.2631 72.9503L78.9119 73.2145L78.5575 73.4736L78.2 73.7277L77.8397 73.9767L77.4766 74.2207L77.1111 74.4599L76.7432 74.6942L76.3732 74.9238L76.0011 75.1487L75.6272 75.3689L75.2515 75.5846L74.8742 75.7958L74.4955 76.0026L74.1155 76.2051L73.7343 76.4033L73.352 76.5974L72.9688 76.7873L72.5847 76.9733L72.1998 77.1554L71.8143 77.3335L71.4282 77.5079L71.0416 77.6786L70.6546 77.8457L70.2672 78.0093L69.8795 78.1693L69.4916 78.3259L69.1035 78.4792L68.7154 78.6293L68.3271 78.7761L67.9388 78.9198L67.5505 79.0604L67.1622 79.1979L66.774 79.3326L66.3859 79.4643L65.9979 79.5932L65.6101 79.7194L65.2224 79.8428L64.8348 79.9636L64.4475 80.0818L64.0604 80.1974L63.6734 80.3105L63.2867 80.4212L62.9002 80.5295L62.5139 80.6355L62.1278 80.7391L61.7419 80.8404L61.3561 80.9394L60.9704 81.0361L60.5849 81.1306L60.1994 81.2228L59.814 81.3128L59.4286 81.4005L59.0432 81.4859L58.6577 81.569L58.2722 81.6497L57.8865 81.7282L57.5007 81.8042L57.1146 81.8778L56.7284 81.9489L56.3419 82.0175L55.9551 82.0835L55.568 82.1469L55.1806 82.2075L54.7927 82.2655L54.4045 82.3206L54.0159 82.3728L53.6268 82.4221L53.2372 82.4684L52.8472 82.5115L52.4567 82.5514L52.0657 82.5881L51.6743 82.6214L51.2823 82.6514L50.8899 82.6777L50.497 82.7005L50.1036 82.7197L49.7099 82.735L49.3156 82.7466L48.921 82.7542L48.5261 82.7577L48.1308 82.7573L47.7352 82.7526L47.3394 82.7438L46.9434 82.7306L46.5473 82.7132L46.1511 82.6915L45.7549 82.6653L45.3587 82.6348L44.9626 82.5999L44.5667 82.5605L44.171 82.5168L43.7756 82.4686L43.3806 82.4161L42.9861 82.3593L42.592 82.2981L42.1985 82.2326L41.8057 82.1628L41.4136 82.0889L41.0222 82.0107L40.6317 81.9284L40.242 81.8421L39.8533 81.7517L39.4656 81.6573L39.079 81.559L38.6934 81.4569L38.3091 81.3509L37.9259 81.2413L37.544 81.1279L37.1633 81.0109L36.784 80.8904L36.4061 80.7663L36.0296 80.6389L35.6545 80.508L35.2809 80.3738L34.9088 80.2364L34.5383 80.0957L34.1693 79.9519L33.8019 79.805L33.4361 79.655L33.072 79.502L32.7095 79.346L32.3487 79.1871L31.9896 79.0254L31.6322 78.8608L31.2766 78.6934L30.9228 78.5232L30.5707 78.3504L30.2205 78.1748L29.872 77.9966L29.5254 77.8157L29.1807 77.6322L28.8378 77.4462L28.4968 77.2576L28.1578 77.0665L27.8206 76.873L27.4854 76.6769L27.1521 76.4784L26.8208 76.2775L26.4915 76.0743L26.1642 75.8686L25.8389 75.6606L25.5156 75.4502L25.1944 75.2375L24.8753 75.0225L24.5583 74.8052L24.2434 74.5857L23.9306 74.3638L23.62 74.1398L23.3115 73.9134L23.0053 73.6849L22.7013 73.4542L22.3995 73.2212L22.1 72.9861L21.8028 72.7488L21.5079 72.5093L21.2154 72.2677L20.9252 72.024L20.6374 71.7782L20.352 71.5302L20.0691 71.2802L19.7886 71.0281L19.5107 70.7739L19.2352 70.5177L18.9623 70.2595L18.692 69.9992L18.4242 69.737L18.1591 69.4728L17.8967 69.2066L17.6368 68.9385L17.3797 68.6685L17.1254 68.3966L16.8737 68.1228L16.6249 67.8471L16.3789 67.5696L16.1356 67.2903L15.8953 67.0091L15.6578 66.7262L15.4233 66.4415L15.1917 66.1551L14.9632 65.8669L14.7377 65.577L14.5153 65.2853L14.2961 64.992L14.0802 64.6969L13.8676 64.4001L13.6585 64.1016L13.4528 63.8014L13.2508 63.4996L13.0525 63.196L12.858 62.8908L12.6674 62.584L12.4808 62.2755L12.2984 61.9654L12.1202 61.6537L11.9464 61.3404L11.7772 61.0256L11.6125 60.7093L11.4526 60.3915L11.2976 60.0723L11.1475 59.7517L11.0026 59.4298L10.8629 59.1066L10.7286 58.7821L10.5997 58.4566L10.4765 58.13L10.3589 57.8023L10.2471 57.4737L10.1413 57.1443L10.0414 56.8141L9.94761 56.4833L9.85999 56.1518L9.77862 55.8199L9.70355 55.4876L9.63485 55.155L9.57256 54.8223L9.51672 54.4895L9.46735 54.1568L9.42448 53.8242L9.38811 53.4919L9.35823 53.1599L9.33483 52.8285L9.31787 52.4977L9.30731 52.1676L9.3031 51.8384L9.30516 51.5101L9.3134 51.1829L9.32773 50.8569L9.34804 50.5321L9.37419 50.2086L9.40605 49.8866L9.44345 49.5662L9.48623 49.2473L9.5342 48.9301L9.58717 48.6147L9.64497 48.3011L9.70739 47.9894L9.77423 47.6795L9.84528 47.3716L9.92035 47.0656L9.99922 46.7617L10.0817 46.4597L10.1675 46.1598L10.2565 45.8618L10.3484 45.5658L10.4431 45.2718L10.5403 44.9798L10.6398 44.6896L10.7414 44.4014L10.8449 44.115L10.9501 43.8303L11.0568 43.5474L11.1648 43.2661L11.2739 42.9864L11.3839 42.7083L11.4947 42.4315L11.606 42.1561L11.7177 41.8819L11.8297 41.6088L11.9418 41.3368L12.0539 41.0657L12.1658 40.7955L12.2774 40.5259L12.3886 40.257L12.4993 39.9885L12.6094 39.7205L12.7188 39.4527L12.8275 39.185L12.9353 38.9173L13.0423 38.6496L13.1483 38.3816L13.2534 38.1133L13.3576 37.8446L13.4608 37.5753L13.563 37.3054L13.6642 37.0347L13.7646 36.7631L13.864 36.4906L13.9626 36.217L14.0603 35.9422L14.1573 35.6662L14.2536 35.3889L14.3493 35.1102L14.4445 34.8301L14.5392 34.5484L14.6336 34.2651L14.7278 33.9801L14.8219 33.6935L14.916 33.4052L15.0102 33.1151L15.1048 32.8232L15.1998 32.5295L15.2954 32.234L15.3917 31.9367L15.489 31.6376L15.5873 31.3367L15.6869 31.0341L15.7878 30.7297L15.8904 30.4237L15.9947 30.116L16.101 29.8066L16.2093 29.4958L16.32 29.1835L16.4331 28.8698L16.5489 28.5547L16.6675 28.2385L16.7891 27.9211L16.9138 27.6027L17.0419 27.2833L17.1735 26.9631L17.3087 26.6422L17.4477 26.3207L17.5907 25.9987L17.7378 25.6764L17.8891 25.3538L18.0449 25.0312L18.2051 24.7086L18.37 24.3861L18.5396 24.0639L18.714 23.7422L18.8934 23.421L19.0779 23.1005L19.2675 22.7808L19.4622 22.4621L19.6623 22.1444L19.8677 21.8279L20.0785 21.5128L20.2947 21.199L20.5164 20.8867L20.7437 20.5761L20.9764 20.2672L21.2148 19.9602L21.4587 19.6551L21.7082 19.352L21.9634 19.0511L22.2242 18.7524L22.4907 18.4561L22.7628 18.1623L23.0406 17.871L23.324 17.5823L23.6131 17.2964L23.9078 17.0134L24.2082 16.7332L24.5142 16.4561L24.8258 16.1822L25.143 15.9114L25.4658 15.644L25.7941 15.38L26.1279 15.1194L26.4673 14.8625L26.8121 14.6092L27.1623 14.3597L27.518 14.114L27.879 13.8724L28.2454 13.6347L28.6171 13.4012L28.994 13.1719L29.3762 12.9469L29.7635 12.7264L30.1559 12.5104L30.5535 12.2989L30.956 12.0922L31.3635 11.8902L31.7759 11.6932L32.1932 11.5011L32.6153 11.3142L33.0421 11.1324L33.4736 10.9559L33.9097 10.7848L34.3503 10.6192L34.7954 10.4592L35.2448 10.3049L35.6986 10.1564L36.1565 10.0138L36.6186 9.87724L37.0848 9.74681L37.5548 9.62261L38.0288 9.50476L38.5064 9.39336L38.9877 9.28852L39.4726 9.19036L39.9608 9.09897L40.4524 9.01446L40.9472 8.93694L41.445 8.86651L41.9457 8.80328L42.4492 8.74733L42.9554 8.69878L43.4641 8.65771L43.9751 8.62421L44.4884 8.59837L45.0037 8.58028L45.5209 8.57001L46.0399 8.56764L46.5604 8.57323L47.0823 8.58686L47.6055 8.60858L48.1297 8.63845L48.6549 8.67651L49.1807 8.7228L49.707 8.77736L50.2337 8.84022L50.7606 8.91139L51.2874 8.99089L51.814 9.07873L52.3402 9.17491L52.8659 9.27941L53.3907 9.39222L53.9147 9.51332L54.4375 9.64267L54.9589 9.78024L55.4789 9.92597L55.9972 10.0798L56.5137 10.2417L57.0281 10.4116L57.5404 10.5894L58.0503 10.775L58.5577 10.9683L59.0624 11.1693L59.5644 11.3778L60.0633 11.5937L60.5592 11.817L61.0518 12.0474L61.541 12.2849L62.0268 12.5293L62.5089 12.7806L62.9874 13.0385L63.4619 13.3029L63.9326 13.5737L64.3993 13.8507L64.8618 14.1337L65.3202 14.4227L65.7743 14.7174L66.2241 15.0178L66.6696 15.3235L67.1106 15.6345L67.5473 15.9505L67.9794 16.2716L68.407 16.5973L68.8302 16.9277L69.2488 17.2625L69.6628 17.6016L70.0724 17.9448L70.4774 18.2919L70.8779 18.6429L71.2739 18.9975L71.6655 19.3556L72.0526 19.7171L72.4353 20.0818L72.8136 20.4496L73.1876 20.8204L73.5573 21.1941L73.9227 21.5705L74.2839 21.9495L74.641 22.331L74.9939 22.7149L75.3428 23.1012L75.6876 23.4896L76.0285 23.8803L76.3654 24.273L76.6984 24.6677L77.0276 25.0644L77.3529 25.463L77.6745 25.8634L77.9922 26.2655L78.3062 26.6695L78.6165 27.0751L78.9231 27.4825L79.226 27.8914L79.5252 28.302L79.8208 28.7142L80.1128 29.1279L80.4012 29.5431L80.6859 29.9598L80.9672 30.378L81.2448 30.7977L81.519 31.2188L81.7895 31.6413L82.0565 32.0653L82.3199 32.4907L82.5798 32.9175L82.836 33.3457L83.0886 33.7753L83.3376 34.2063L83.5829 34.6388L83.8244 35.0726L84.0621 35.5078L84.296 35.9445L84.5259 36.3825L84.7519 36.822L84.9738 37.2628L85.1915 37.7051L85.405 38.1488L85.6142 38.5939L85.8188 39.0403L86.019 39.4882L86.2144 39.9374L86.405 40.3879L86.5907 40.8398L86.7713 41.2931L86.9467 41.7475L87.1168 42.2033L87.2814 42.6602L87.4404 43.1183L87.5936 43.5776L87.7409 44.0379L87.8821 44.4992L88.0171 44.9615L88.1457 45.4247L88.2679 45.8887L88.3834 46.3534L88.4921 46.8188L88.5939 47.2847L88.6886 47.7512L88.7762 48.218L88.8566 48.6851L88.9295 49.1523L88.995 49.6196L89.0529 50.0869L89.1031 50.554L89.1456 51.0209L89.1804 51.4873L89.2073 51.9533L89.2262 52.4186L89.2372 52.8831L89.2402 53.3467L89.2351 53.8093L89.222 54.2708L89.2006 54.731L89.1711 55.1898L89.1334 55.647L89.0875 56.1025L89.0333 56.5563L88.9709 57.0081L88.9002 57.4578L88.8213 57.9053L88.7341 58.3505L88.6387 58.7931L88.5351 59.2332L88.4233 59.6705L88.3033 60.105L88.1752 60.5364L88.039 60.9647L87.8948 61.3898L87.7426 61.8114L87.5825 62.2296L87.4145 62.6442L87.2388 63.055L87.0554 63.4619L86.8644 63.865L86.6658 64.2639L86.4598 64.6587L86.2465 65.0492L86.026 65.4353L85.7983 65.8169L85.5636 66.194L85.3221 66.5665L85.0738 66.9342L84.8188 67.2971L84.5573 67.6552L84.2894 68.0083L84.0152 68.3563L83.735 68.6993L83.4487 69.0372Z" fill="#BC9EE0" stroke="#BC9EE0" stroke-width="2"/>
<path d="M37 83H83V90C83 93.3137 80.3137 96 77 96H43C39.6863 96 37 93.3137 37 90V83Z" fill="#FBF9F2"/>
<path fill-rule="evenodd" clip-rule="evenodd" d="M60.1381 28C53.2534 28 47.1895 31.4901 43.6118 36.7931C39.1014 35.2862 34.1772 35.6329 29.9224 37.7567C25.6676 39.8806 22.4307 43.6077 20.9239 48.118C19.4171 52.6284 19.7638 57.5526 21.8876 61.8074C24.0115 66.0622 27.7385 69.2991 32.2489 70.8059V87.7625C32.2489 90.9325 33.5082 93.9726 35.7497 96.2142C37.9912 98.4557 41.0314 99.715 44.2014 99.715H76.0747C79.2447 99.715 82.2849 98.4557 84.5264 96.2142C86.7679 93.9726 88.0272 90.9325 88.0272 87.7625V70.8059C92.4649 69.2421 96.1103 65.9968 98.1772 61.7699C100.244 57.543 100.567 52.6731 99.076 48.2103C97.5851 43.7476 94.3999 40.0496 90.2074 37.9138C86.0149 35.7779 81.1509 35.3754 76.6644 36.7931C74.8422 34.0843 72.3817 31.8654 69.4997 30.332C66.6176 28.7986 63.4026 27.9977 60.1381 28ZM40.2172 87.7625V83.7783H80.0589V87.7625C80.0589 88.8191 79.6391 89.8325 78.892 90.5797C78.1448 91.3269 77.1314 91.7466 76.0747 91.7466H44.2014C43.1447 91.7466 42.1314 91.3269 41.3842 90.5797C40.637 89.8325 40.2172 88.8191 40.2172 87.7625Z" fill="#1B140F"/>
</g>
<defs>
<clipPath id="clip0_650_5430">
<rect width="100" height="100" fill="white"/>
</clipPath>
</defs>
</svg>
