<svg width="80" height="85" viewBox="0 0 80 85" fill="none" xmlns="http://www.w3.org/2000/svg">
<path fill-rule="evenodd" clip-rule="evenodd" d="M72.4686 46.4655V46.4655L72.2266 46.7845L71.9912 47.097L71.7629 47.4034L71.5421 47.7042L71.3295 47.9999L71.1254 48.2909L70.9304 48.5777L70.7447 48.861L70.5687 49.1412L70.4027 49.4188L70.2471 49.6946L70.1019 49.969L69.9674 50.2426L69.8435 50.516L69.7305 50.7899L69.6282 51.0647L69.5366 51.3411L69.4556 51.6196L69.385 51.9007L69.3246 52.1851L69.274 52.4731L69.2331 52.7654L69.2014 53.0623L69.1785 53.3643L69.1641 53.6719L69.1575 53.9854L69.1584 54.3051L69.1661 54.6315L69.1802 54.9648L69.2001 55.3053L69.2251 55.6533L69.2548 56.0089L69.2884 56.3724L69.3255 56.744L69.3654 57.1238L69.4075 57.512L69.4513 57.9086L69.4962 58.3137L69.5415 58.7275L69.5867 59.1498L69.631 59.5807L69.674 60.0202L69.7148 60.4681L69.7528 60.9243L69.7874 61.3885L69.8178 61.8607L69.8435 62.3404L69.8636 62.8275L69.8776 63.3215L69.8848 63.8222L69.8845 64.3291L69.8761 64.8417L69.8591 65.3597L69.8327 65.8824L69.7965 66.4093L69.7499 66.9399L69.6923 67.4737L69.6233 68.0099L69.5424 68.5479L69.4492 69.0871L69.3432 69.6268L69.2241 70.1664L69.0916 70.705L68.9453 71.2421L68.7851 71.7769L68.6107 72.3086L68.4219 72.8365L68.2186 73.36L68.0007 73.8783L67.7681 74.3906L67.5209 74.8964L67.259 75.3948L66.9825 75.8852L66.6914 76.367L66.3861 76.8395L66.0665 77.3021L65.733 77.7541L65.3858 78.1952L65.0251 78.6246L64.6513 79.042L64.2647 79.4468L63.8658 79.8388L63.4548 80.2174L63.0323 80.5824L62.5987 80.9335L62.1543 81.2704L61.6998 81.593L61.2356 81.9009L60.7622 82.1942L60.28 82.4727L59.7896 82.7363L59.2915 82.985L58.7862 83.2188L58.2742 83.4377L57.756 83.6418L57.232 83.8311L56.7028 84.0057L56.1688 84.1658L55.6305 84.3113L55.0883 84.4426L54.5427 84.5596L53.994 84.6626L53.4428 84.7517L52.8893 84.8269L52.334 84.8885L51.7773 84.9365L51.2195 84.9711L50.661 84.9922L50.1021 85L49.5433 84.9945L48.9848 84.9756L48.427 84.9435L47.8703 84.8981L47.3149 84.8395L46.7614 84.7678L46.2099 84.683L45.6608 84.5852L45.1145 84.4745L44.5713 84.3511L44.0315 84.215L43.4955 84.0664L42.9635 83.9056L42.4359 83.7326L41.9129 83.5476L41.3949 83.3509L40.882 83.1428L40.3747 82.9234L39.873 82.693L39.3773 82.452L38.8877 82.2006L38.4045 81.9391L37.9279 81.6678L37.458 81.3872L36.9949 81.0976L36.5388 80.7993L36.0897 80.4927L35.6479 80.1783L35.2132 79.8564L34.7859 79.5275L34.3658 79.1919L33.953 78.8501L33.5474 78.5025L33.149 78.1495L32.7577 77.7916L32.3735 77.4292L31.9962 77.0627L31.6256 76.6925L31.2617 76.319L30.9041 75.9427L30.5528 75.5638L30.2074 75.183L29.8677 74.8005L29.5333 74.4169L29.2038 74.0327L28.8788 73.6483L28.5579 73.2641L28.2405 72.8806L27.9262 72.4982L27.6145 72.1172L27.3047 71.7381L26.9964 71.3611L26.6889 70.9865L26.3818 70.6146L26.0743 70.2455L25.766 69.8795L25.4563 69.5166L25.1446 69.1568L24.8304 68.8002L24.5132 68.4468L24.1925 68.0965L23.8679 67.7491L23.5388 67.4044L23.2049 67.0623L22.866 66.7225L22.5215 66.3847L22.1713 66.0486L21.8152 65.7137L21.4529 65.3798L21.0842 65.0463L20.7092 64.713L20.3276 64.3792L19.9394 64.0446L19.5447 63.7086L19.1435 63.3708L18.7358 63.0307L18.3219 62.6877L17.9019 62.3413L17.4763 61.9909L17.0454 61.636L16.6097 61.276L16.1696 60.9104L15.7259 60.5385L15.2791 60.16L14.83 59.7741L14.3795 59.3806L13.9282 58.9788L13.4772 58.5684L13.0274 58.149L12.5797 57.7202L12.1352 57.2817L11.6949 56.8333L11.2599 56.3747L10.8313 55.9058L10.4101 55.4265L9.99758 54.9367L9.59471 54.4365L9.20261 53.9258L8.82238 53.4049L8.45507 52.8738L8.10172 52.3329L7.76333 51.7823L7.44086 51.2225L7.13524 50.6538L6.84733 50.0767L6.57795 49.4915L6.32785 48.8989L6.09774 48.2994L5.88823 47.6936L5.69989 47.0821L5.53321 46.4655L5.38858 45.8446L5.26635 45.22L5.1668 44.5923L5.09019 43.9624L5.03675 43.331L5.00664 42.6987L5 42.0664L5.01692 41.4347L5.05744 40.8044L5.12154 40.1762L5.20915 39.551L5.32015 38.9293L5.45435 38.3121L5.61151 37.6998L5.79133 37.0933L5.99346 36.4932L6.21749 35.9001L6.46295 35.3147L6.72934 34.7376L7.01608 34.1692L7.32256 33.6102L7.64815 33.061L7.99214 32.522L8.35381 31.9937L8.73242 31.4764L9.12718 30.9705L9.5373 30.4763L9.96197 29.9939L10.4004 29.5236L10.8517 29.0656L11.315 28.62L11.7897 28.1869L12.2748 27.7664L12.7695 27.3585L13.2732 26.9632L13.7851 26.5805L14.3044 26.2104L14.8305 25.8528L15.3627 25.5076L15.9002 25.1748L16.4424 24.854L16.9886 24.5453L17.5381 24.2483L18.0903 23.9627L18.6445 23.6884L19.2001 23.4249L19.7566 23.1721L20.3133 22.9294L20.8696 22.6966L21.4251 22.4733L21.9793 22.2589L22.5317 22.0533L23.0818 21.8557L23.6292 21.666L24.1737 21.4835L24.7147 21.3079L25.2521 21.1386L25.7856 20.9753L26.3149 20.8175L26.8398 20.6646L27.3602 20.5164L27.8759 20.3722L28.3868 20.2318L28.8928 20.0947L29.394 19.9605L29.8903 19.8288L30.3817 19.6993L30.8683 19.5715L31.3502 19.4453L31.8274 19.3202L32.3001 19.1961L32.7684 19.0725L33.2326 18.9495L33.6927 18.8266L34.149 18.7038L34.6018 18.5808L35.0512 18.4577L35.4974 18.3342L35.9409 18.2104L36.3818 18.0862L36.8204 17.9617L37.257 17.8368L37.6918 17.7118L38.1253 17.5866L38.5575 17.4615L38.9889 17.3366L39.4196 17.2121L39.8499 17.0882L40.2801 16.9652L40.7104 16.8432L41.1411 16.7227L41.5722 16.6038L42.0041 16.4869L42.4368 16.3723L42.8706 16.2602L43.3055 16.1511L43.7417 16.0452L44.1792 15.9428L44.6181 15.8443L45.0585 15.75L45.5005 15.6601L45.9439 15.575L46.3889 15.495L46.8354 15.4202L47.2834 15.3509L47.7328 15.2874L48.1836 15.2299L48.6356 15.1784L49.0889 15.1333L49.5433 15.0946L49.9987 15.0624L50.4551 15.0368L50.9123 15.0178L51.3702 15.0056L51.8287 15L52.2877 15.0012L52.7472 15.009L53.2069 15.0235L53.6669 15.0445L54.127 15.0721L54.5872 15.1061L55.0474 15.1464L55.5075 15.193L55.9674 15.2457L56.4272 15.3043L56.8867 15.3689L57.346 15.4392L57.805 15.5151L58.2636 15.5966L58.722 15.6834L59.18 15.7756L59.6377 15.8729L60.095 15.9754L60.552 16.0829L61.0087 16.1954L61.465 16.3128L61.9209 16.4352L62.3765 16.5624L62.8318 16.6945L63.2867 16.8315L63.7411 16.9735L64.1951 17.1206L64.6486 17.2726L65.1015 17.4299L65.5538 17.5925L66.0053 17.7605L66.456 17.934L66.9057 18.1132L67.3542 18.2983L67.8014 18.4895L68.247 18.687L68.6907 18.8911L69.1323 19.1022L69.5713 19.3205L70.0073 19.5465L70.4399 19.7804L70.8685 20.0227L71.2926 20.2737L71.7116 20.5337L72.125 20.8031L72.532 21.0822L72.932 21.3712L73.3244 21.6704L73.7084 21.9801L74.0833 22.3004L74.4485 22.6315L74.8031 22.9734L75.1465 23.3262L75.4779 23.6899L75.7967 24.0644L76.1021 24.4497L76.3936 24.8456L76.6704 25.2519L76.932 25.6684L77.1777 26.0947L77.4072 26.5306L77.6198 26.9755L77.815 27.4292L77.9926 27.8911L78.1521 28.3607L78.2932 28.8375L78.4156 29.3209L78.5192 29.8103L78.6036 30.3051L78.669 30.8047L78.7151 31.3083L78.7421 31.8153L78.75 32.325L78.739 32.8365L78.7094 33.3493L78.6614 33.8626L78.5955 34.3755L78.5121 34.8875L78.4116 35.3978L78.2947 35.9057L78.1619 36.4104L78.014 36.9115L77.8517 37.4081L77.6757 37.8998L77.4869 38.3859L77.2862 38.866L77.0743 39.3395L76.8524 39.8059L76.6212 40.265L76.3819 40.7164L76.1353 41.1596L75.8825 41.5946L75.6244 42.021L75.3622 42.4387L75.0967 42.8476L74.8289 43.2477L74.5599 43.639L74.2905 44.0215L74.0217 44.3952L73.7544 44.7604L73.4894 45.1172L73.2276 45.4658L72.9697 45.8065L72.7165 46.1397L72.4686 46.4655" fill="#D3A192"/>
<path fill-rule="evenodd" clip-rule="evenodd" d="M55.008 42.6719V42.6719L54.8484 42.8758L54.6928 43.0756L54.5416 43.2717L54.3948 43.4645L54.2528 43.6544L54.1156 43.8417L53.9835 44.0268L53.8566 44.2102L53.735 44.3923L53.6188 44.5734L53.508 44.754L53.4028 44.9345L53.303 45.1154L53.2088 45.297L53.1199 45.4798L53.0364 45.6642L52.9582 45.8506L52.8852 46.0393L52.8171 46.2308L52.7539 46.4253L52.6953 46.6233L52.6411 46.825L52.591 47.0308L52.5449 47.2408L52.5024 47.4555L52.4633 47.6749L52.4272 47.8994L52.3939 48.1291L52.363 48.3641L52.3342 48.6048L52.3073 48.851L52.2818 49.1031L52.2574 49.361L52.2338 49.6248L52.2108 49.8947L52.1879 50.1705L52.1649 50.4525L52.1415 50.7405L52.1174 51.0346L52.0922 51.3348L52.0655 51.6409L52.0372 51.9529L52.0069 52.2706L51.9742 52.5938L51.9388 52.9225L51.9004 53.2564L51.8586 53.5952L51.8133 53.9387L51.764 54.2865L51.7105 54.6385L51.6525 54.9942L51.5897 55.3533L51.5219 55.7153L51.4488 56.08L51.3702 56.4468L51.2858 56.8153L51.1956 57.1851L51.0992 57.5557L50.9966 57.9265L50.8875 58.2972L50.7719 58.6672L50.6497 59.036L50.5207 59.403L50.3849 59.7678L50.2422 60.1298L50.0927 60.4885L49.9363 60.8434L49.773 61.1939L49.6028 61.5396L49.4259 61.8799L49.2423 62.2143L49.052 62.5424L48.8552 62.8637L48.652 63.1777L48.4425 63.4839L48.227 63.7821L48.0055 64.0717L47.7783 64.3524L47.5456 64.6239L47.3076 64.8859L47.0645 65.138L46.8166 65.38L46.5641 65.6116L46.3072 65.8328L46.0463 66.0433L45.7816 66.2429L45.5133 66.4316L45.2417 66.6093L44.9671 66.7758L44.6898 66.9313L44.41 67.0757L44.1279 67.209L43.8439 67.3312L43.5582 67.4424L43.271 67.5427L42.9825 67.6321L42.6931 67.7108L42.4029 67.7789L42.1121 67.8364L41.821 67.8836L41.5298 67.9205L41.2386 67.9474L40.9477 67.9642L40.6573 67.9711L40.3675 67.9684L40.0785 67.9559L39.7905 67.9339L39.5037 67.9025L39.2182 67.8617L38.9342 67.8115L38.652 67.752L38.3716 67.6832L38.0932 67.6052L37.8171 67.5181L37.5434 67.4219L37.2723 67.3167L37.0038 67.2026L36.7382 67.0797L36.4757 66.948L36.2164 66.8078L35.9604 66.6591L35.7078 66.5022L35.4589 66.337L35.2137 66.1639L34.9723 65.983L34.7349 65.7944L34.5016 65.5984L34.2724 65.3952L34.0475 65.1849L33.8269 64.9679L33.6107 64.7444L33.3989 64.5146L33.1917 64.2787L32.9889 64.0371L32.7907 63.7899L32.597 63.5376L32.4079 63.2803L32.2233 63.0184L32.0432 62.7521L31.8676 62.4818L31.6964 62.2078L31.5296 61.9302L31.367 61.6495L31.2086 61.3659L31.0543 61.0798L30.904 60.7913L30.7576 60.5008L30.6149 60.2085L30.4758 59.9148L30.3401 59.6198L30.2077 59.3239L30.0784 59.0274L29.9519 58.7305L29.828 58.4335L29.7063 58.1368L29.5868 57.8406L29.4689 57.5452L29.3526 57.2508L29.2373 56.9576L29.1228 56.6659L29.0089 56.3757L28.8951 56.0874L28.7811 55.8009L28.6667 55.5165L28.5515 55.234L28.4352 54.9537L28.3176 54.6754L28.1983 54.3991L28.0771 54.1248L27.9538 53.8524L27.8281 53.5817L27.6999 53.3125L27.5689 53.0448L27.4351 52.7782L27.2983 52.5126L27.1583 52.2477L27.0152 51.9832L26.8688 51.7189L26.7191 51.4543L26.5662 51.1893L26.41 50.9234L26.2505 50.6564L26.0879 50.388L25.9221 50.1176L25.7533 49.8452L25.5817 49.5702L25.4074 49.2923L25.2307 49.0111L25.0518 48.7264L24.871 48.4376L24.6886 48.1446L24.5051 47.8469L24.3208 47.5442L24.1362 47.2362L23.9516 46.9227L23.7677 46.6033L23.5849 46.2779L23.4037 45.9463L23.2247 45.6083L23.0484 45.2638L22.8754 44.9126L22.7062 44.5547L22.5415 44.1902L22.3817 43.8189L22.2276 43.441L22.0795 43.0566L21.9381 42.6657L21.804 42.2686L21.6776 41.8655L21.5594 41.4566L21.4499 41.0422L21.3496 40.6226L21.2589 40.1982L21.1782 39.7693L21.1078 39.3363L21.0481 38.8997L20.9994 38.4599L20.9619 38.0174L20.9358 37.5727L20.9213 37.1262L20.9186 36.6784L20.9276 36.2299L20.9486 35.7812L20.9815 35.3328L21.0264 34.8853L21.0832 34.439L21.1521 33.9947L21.2328 33.5528L21.3254 33.1138L21.4298 32.6783L21.5458 32.2468L21.6733 31.8197L21.8121 31.3977L21.962 30.981L22.1229 30.5703L22.2943 30.1659L22.4761 29.7682L22.668 29.3777L22.8695 28.9948L23.0804 28.6197L23.3003 28.2527L23.5288 27.8943L23.7656 27.5446L24.0101 27.2038L24.2619 26.8721L24.5207 26.5498L24.786 26.2369L25.0573 25.9336L25.3343 25.6399L25.6164 25.3558L25.9032 25.0815L26.1944 24.8169L26.4895 24.562L26.788 24.3167L27.0896 24.081L27.394 23.8549L27.7007 23.6381L28.0095 23.4308L28.3199 23.2326L28.6316 23.0436L28.9443 22.8634L29.2577 22.692L29.5715 22.5291L29.8853 22.3745L30.1988 22.2279L30.5119 22.089L30.8241 21.9577L31.1353 21.8335L31.4452 21.7162L31.7536 21.6055L32.0603 21.501L32.3651 21.4024L32.6678 21.3094L32.9682 21.2216L33.2663 21.1386L33.5619 21.0602L33.8549 20.9859L34.1452 20.9155L34.4328 20.8486L34.7175 20.7848L34.9995 20.7239L35.2785 20.6655L35.5547 20.6093L35.8281 20.555L36.0987 20.5023L36.3664 20.451L36.6315 20.4008L36.8939 20.3515L37.1537 20.3028L37.411 20.2546L37.6659 20.2066L37.9185 20.1587L38.1689 20.1108L38.4172 20.0627L38.6636 20.0143L38.9082 19.9656L39.1511 19.9164L39.3925 19.8667L39.6325 19.8165L39.8712 19.7659L40.1088 19.7148L40.3453 19.6634L40.5811 19.6117L40.8161 19.5598L41.0505 19.5078L41.2844 19.4559L41.518 19.4042L41.7513 19.3529L41.9844 19.3022L42.2175 19.2523L42.4505 19.2033L42.6837 19.1556L42.9169 19.1094L43.1504 19.0648L43.3841 19.0221L43.618 18.9815L43.8522 18.9433L44.0867 18.9078L44.3215 18.875L44.5565 18.8453L44.7919 18.8189L45.0274 18.7959L45.2632 18.7765L45.4991 18.7611L45.7351 18.7496L45.9712 18.7422L46.2073 18.7392L46.4434 18.7406L46.6794 18.7464L46.9152 18.7569L47.1508 18.772L47.3861 18.7919L47.6211 18.8165L47.8557 18.8458L48.0899 18.8799L48.3235 18.9187L48.5566 18.9623L48.789 19.0105L49.0209 19.0634L49.252 19.1209L49.4825 19.1829L49.7122 19.2493L49.9412 19.3201L50.1694 19.3952L50.3969 19.4745L50.6235 19.5578L50.8494 19.6452L51.0744 19.7365L51.2987 19.8317L51.5222 19.9306L51.7449 20.0333L51.9669 20.1395L52.1881 20.2493L52.4085 20.3626L52.6282 20.4794L52.8472 20.5996L53.0655 20.7232L53.2829 20.8503L53.4997 20.9807L53.7157 21.1146L53.9309 21.2519L54.1453 21.3927L54.3589 21.537L54.5716 21.6849L54.7833 21.8364L54.9941 21.9917L55.2038 22.1508L55.4123 22.3139L55.6196 22.4809L55.8255 22.6521L56.0299 22.8277L56.2325 23.0077L56.4333 23.1924L56.6319 23.382L56.8282 23.5767L57.0217 23.7767L57.2123 23.9822L57.3997 24.1935L57.5834 24.4107L57.7631 24.634L57.9385 24.8636L58.1093 25.0996L58.2749 25.3421L58.4351 25.5912L58.5895 25.8471L58.7376 26.1096L58.8791 26.379L59.0137 26.655L59.141 26.9377L59.2605 27.227L59.3721 27.5227L59.4753 27.8247L59.5699 28.1327L59.6556 28.4467L59.7321 28.7662L59.7991 29.0911L59.8566 29.421L59.9042 29.7555L59.9419 30.0944L59.9695 30.4372L59.9869 30.7835L59.9941 31.1329L59.9909 31.4849L59.9774 31.8392L59.9537 32.1952L59.9197 32.5524L59.8755 32.9105L59.8214 33.2688L59.7574 33.6269L59.6837 33.9843L59.6007 34.3405L59.5086 34.695L59.4076 35.0474L59.2982 35.3972L59.1807 35.7439L59.0554 36.0872L58.9229 36.4265L58.7835 36.7616L58.6378 37.0921L58.4861 37.4176L58.3291 37.7378L58.1671 38.0526L58.0008 38.3616L57.8307 38.6646L57.6573 38.9615L57.4811 39.2521L57.3027 39.5364L57.1226 39.8143L56.9414 40.0857L56.7595 40.3507L56.5774 40.6093L56.3957 40.8616L56.2149 41.1077L56.0353 41.3477L55.8575 41.5818L55.6819 41.8103L55.5087 42.0332L55.3385 42.251L55.1715 42.4638L55.008 42.6719" fill="white" fill-opacity="0.9"/>
<path d="M39.9999 73.3333C38.5555 73.3333 37.2499 72.9867 36.0833 72.2933C34.9166 71.6 33.9999 70.6689 33.3333 69.5C31.4999 69.5 29.931 68.8478 28.6266 67.5433C27.3221 66.2389 26.6688 64.6689 26.6666 62.8333V51C23.3888 48.8333 20.7633 45.9722 18.7899 42.4167C16.8166 38.8611 15.831 35 15.8333 30.8333C15.8333 24.1111 18.181 18.4033 22.8766 13.71C27.5721 9.01667 33.2799 6.66889 39.9999 6.66667C46.7221 6.66667 52.431 9.01445 57.1266 13.71C61.8221 18.4056 64.1688 24.1133 64.1666 30.8333C64.1666 35.1111 63.1799 39 61.2066 42.5C59.2333 46 56.6088 48.8333 53.3333 51V62.8333C53.3333 64.6667 52.681 66.2367 51.3766 67.5433C50.0721 68.85 48.5021 69.5022 46.6666 69.5C45.9999 70.6667 45.0833 71.5978 43.9166 72.2933C42.7499 72.9889 41.4444 73.3356 39.9999 73.3333ZM33.3333 62.8333H46.6666V59.8333H33.3333V62.8333ZM33.3333 56.5H46.6666V53.3333H33.3333V56.5ZM42.4999 46.6667V37.6667L48.0833 32.0833C48.5833 31.5833 48.8333 31 48.8333 30.3333C48.8333 29.6667 48.5833 29.0833 48.0833 28.5833C47.5833 28.0833 46.9999 27.8333 46.3333 27.8333C45.6666 27.8333 45.0833 28.0833 44.5833 28.5833L39.9999 33.1667L35.4166 28.5833C34.9166 28.0833 34.3333 27.8333 33.6666 27.8333C32.9999 27.8333 32.4166 28.0833 31.9166 28.5833C31.4166 29.0833 31.1666 29.6667 31.1666 30.3333C31.1666 31 31.4166 31.5833 31.9166 32.0833L37.4999 37.6667V46.6667H42.4999Z" fill="black"/>
</svg>
