<svg width="80" height="82" viewBox="0 0 80 82" fill="none" xmlns="http://www.w3.org/2000/svg">
<path fill-rule="evenodd" clip-rule="evenodd" d="M72.675 35.3253L72.5875 35.6681L72.495 36.009L72.3975 36.3478L72.2952 36.6846L72.1881 37.0191L72.0765 37.3515L71.9603 37.6815L71.8398 38.0092L71.7149 38.3344L71.586 38.6572L71.453 38.9775L71.3161 39.2952L71.1755 39.6102L71.0313 39.9227L70.8836 40.2325L70.7325 40.5395L70.5781 40.8439L70.4207 41.1455L70.2602 41.4443L70.0969 41.7404L69.9309 42.0337L69.7622 42.3243L69.5911 42.6121L69.4175 42.8971L69.2417 43.1793L69.0637 43.4589L68.8836 43.7356L68.7016 44.0097L68.5177 44.2811L68.332 44.5497L68.1446 44.8158L67.9556 45.0792L67.7651 45.34L67.5731 45.5982L67.3798 45.8538L67.1851 46.107L66.9893 46.3576L66.7922 46.6058L66.594 46.8515L66.3947 47.0949L66.1944 47.3359L65.9932 47.5746L65.791 47.811L65.588 48.0451L65.384 48.277L65.1793 48.5067L64.9738 48.7342L64.7676 48.9596L64.5607 49.183L64.3531 49.4043L64.1448 49.6235L63.9359 49.8409L63.7264 50.0562L63.5163 50.2697L63.3056 50.4813L63.0944 50.6911L62.8826 50.8991L62.6703 51.1053L62.4574 51.3097L62.244 51.5124L62.0299 51.7134L61.8153 51.9127L61.6001 52.1104L61.3843 52.3063L61.1679 52.5005L60.9507 52.6931L60.7329 52.884L60.5144 53.0733L60.2951 53.2608L60.075 53.4466L59.8541 53.6308L59.6323 53.8131L59.4097 53.9937L59.1861 54.1725L58.9616 54.3495L58.7361 54.5246L58.5096 54.6979L58.282 54.8692L58.0533 55.0385L57.8235 55.2058L57.5925 55.371L57.3603 55.534L57.1269 55.695L56.8923 55.8536L56.6564 56.01L56.4193 56.164L56.1808 56.3156L55.9409 56.4647L55.6998 56.6113L55.4573 56.7553L55.2134 56.8965L54.9681 57.0351L54.7215 57.1708L54.4735 57.3036L54.2241 57.4334L53.9734 57.5603L53.7213 57.6841L53.4678 57.8047L53.2131 57.9222L52.9571 58.0365L52.6999 58.1475L52.4415 58.2553L52.1819 58.3598L51.9212 58.461L51.6595 58.5588L51.3967 58.6533L51.1329 58.7445L50.8682 58.8323L50.6026 58.9167L50.3362 58.9978L50.0691 59.0756L49.8012 59.1501L49.5326 59.2212L49.2634 59.289L48.9937 59.3535L48.7234 59.4148L48.4527 59.4729L48.1816 59.5277L47.9101 59.5794L47.6383 59.6279L47.3662 59.6733L47.0938 59.7156L46.8213 59.7549L46.5487 59.7911L46.2759 59.8243L46.0031 59.8545L45.7302 59.8818L45.4574 59.9062L45.1846 59.9277L44.9118 59.9463L44.6392 59.9622L44.3667 59.9752L44.0943 59.9855L43.8222 59.993L43.5502 59.9978L43.2786 60L43.0071 59.9995L42.736 59.9963L42.4652 59.9905L42.1947 59.9821L41.9246 59.9711L41.6548 59.9576L41.3855 59.9415L41.1165 59.9228L40.848 59.9017L40.58 59.878L40.3124 59.8519L40.0453 59.8233L39.7787 59.7922L39.5127 59.7587L39.2471 59.7227L38.9822 59.6843L38.7178 59.6435L38.454 59.6002L38.1908 59.5546L37.9282 59.5065L37.6662 59.4561L37.405 59.4033L37.1443 59.3481L36.8844 59.2905L36.6252 59.2305L36.3667 59.1682L36.109 59.1035L35.852 59.0364L35.5957 58.9669L35.3403 58.8951L35.0857 58.8209L34.8319 58.7443L34.579 58.6654L34.3269 58.5841L34.0758 58.5004L33.8255 58.4144L33.5762 58.326L33.3279 58.2353L33.0805 58.1422L32.834 58.0468L32.5887 57.9491L32.3443 57.8489L32.101 57.7465L31.8588 57.6417L31.6176 57.5346L31.3776 57.4252L31.1388 57.3134L30.901 57.1994L30.6645 57.083L30.4292 56.9643L30.1951 56.8433L29.9623 56.72L29.7307 56.5945L29.5004 56.4666L29.2715 56.3365L29.0439 56.2041L28.8177 56.0694L28.5929 55.9324L28.3696 55.793L28.1478 55.6513L27.9276 55.5073L27.7089 55.3609L27.4919 55.2121L27.2766 55.0608L27.0631 54.9071L26.8515 54.7509L26.6418 54.5922L26.434 54.431L26.2283 54.2672L26.0247 54.1009L25.8234 53.9319L25.6243 53.7603L25.4276 53.5861L25.2334 53.4091L25.0417 53.2296L24.8527 53.0473L24.6665 52.8623L24.483 52.6746L24.3025 52.4843L24.1249 52.2912L23.9505 52.0954L23.7793 51.897L23.6113 51.6959L23.4468 51.4922L23.2857 51.2858L23.1281 51.0769L22.9741 50.8654L22.8239 50.6515L22.6774 50.435L22.5348 50.2162L22.396 49.995L22.2613 49.7716L22.1306 49.5459L22.0039 49.3181L21.8814 49.0882L21.763 48.8563L21.6488 48.6225L21.5389 48.3869L21.4331 48.1496L21.3316 47.9107L21.2342 47.6702L21.1411 47.4284L21.0522 47.1852L20.9674 46.9408L20.8868 46.6954L20.8101 46.4489L20.7375 46.2016L20.6688 45.9536L20.604 45.705L20.5428 45.4558L20.4853 45.2062L20.4314 44.9564L20.3809 44.7063L20.3337 44.4562L20.2897 44.206L20.2488 43.9559L20.2108 43.7061L20.1757 43.4564L20.1433 43.2072L20.1134 42.9583L20.0859 42.7099L20.0608 42.462L20.0377 42.2147L20.0167 41.968L19.9975 41.722L19.9801 41.4767L19.9642 41.2322L19.9497 40.9884L19.9365 40.7454L19.9245 40.5031L19.9135 40.2617L19.9034 40.0211L19.894 39.7812L19.8852 39.5421L19.8769 39.3038L19.869 39.0662L19.8613 38.8293L19.8537 38.593L19.8462 38.3574L19.8386 38.1224L19.8308 37.8879L19.8228 37.6539L19.8144 37.4202L19.8055 37.187L19.7962 36.954L19.7863 36.7213L19.7757 36.4887L19.7645 36.2562L19.7525 36.0237L19.7398 35.7911L19.7262 35.5583L19.7119 35.3253L19.6967 35.092L19.6807 34.8583L19.6638 34.6241L19.6461 34.3893L19.6275 34.1539L19.6082 33.9177L19.5881 33.6807L19.5672 33.4429L19.5456 33.204L19.5233 32.9641L19.5004 32.723L19.477 32.4807L19.4531 32.2372L19.4288 31.9923L19.4041 31.746L19.3792 31.4983L19.3542 31.249L19.3291 30.9981L19.3041 30.7456L19.2792 30.4915L19.2546 30.2356L19.2304 29.9779L19.2067 29.7185L19.1836 29.4573L19.1613 29.1943L19.1399 28.9294L19.1195 28.6627L19.1002 28.3941L19.0822 28.1237L19.0656 27.8514L19.0506 27.5773L19.0372 27.3013L19.0257 27.0235L19.0161 26.744L19.0086 26.4627L19.0034 26.1796L19.0005 25.8949L19 25.6086L19.0021 25.3206L19.007 25.0311L19.0147 24.7401L19.0254 24.4477L19.0391 24.1538L19.0559 23.8587L19.0761 23.5623L19.0996 23.2647L19.1265 22.966L19.157 22.6662L19.1911 22.3654L19.2289 22.0637L19.2705 21.7611L19.3158 21.4578L19.365 21.1537L19.4182 20.8489L19.4753 20.5436L19.5365 20.2377L19.6017 19.9314L19.6711 19.6247L19.7445 19.3176L19.8222 19.0104L19.9041 18.7029L19.9902 18.3953L20.0806 18.0878L20.1754 17.7802L20.2744 17.4728L20.3778 17.1655L20.4856 16.8585L20.5978 16.5519L20.7145 16.2456L20.8355 15.9399L20.961 15.6346L21.0909 15.3301L21.2254 15.0262L21.3643 14.7231L21.5077 14.4208L21.6555 14.1195L21.8079 13.8193L21.9648 13.5201L22.1262 13.222L22.2921 12.9253L22.4626 12.6298L22.6375 12.3358L22.817 12.0433L23.0009 11.7524L23.1894 11.4631L23.3824 11.1756L23.5798 10.89L23.7818 10.6063L23.9882 10.3246L24.1992 10.045L24.4145 9.76768L24.6343 9.49265L24.8586 9.22003L25.0873 8.94992L25.3204 8.68243L25.5578 8.41765L25.7996 8.15568L26.0458 7.89665L26.2963 7.64064L26.5511 7.38777L26.8102 7.13816L27.0735 6.89191L27.341 6.64915L27.6126 6.40997L27.8884 6.17451L28.1683 5.94287L28.4523 5.71518L28.7402 5.49154L29.0321 5.27209L29.328 5.05694L29.6276 4.8462L29.9311 4.64L30.2382 4.43845L30.5491 4.24167L30.8635 4.04976L31.1814 3.86286L31.5028 3.68106L31.8275 3.50448L32.1556 3.33322L32.4868 3.16739L32.8211 3.00709L33.1584 2.85241L33.4986 2.70346L33.8417 2.56031L34.1874 2.42307L34.5358 2.2918L34.8866 2.16659L35.2399 2.0475L35.5953 1.93462L35.953 1.82799L36.3126 1.72767L36.6742 1.63371L37.0376 1.54617L37.4026 1.46507L37.7692 1.39045L38.1371 1.32233L38.5064 1.26073L38.8768 1.20567L39.2483 1.15716L39.6206 1.11519L39.9937 1.07975L40.3675 1.05084L40.7418 1.02844L41.1165 1.01252L41.4915 1.00305L41.8666 1L42.2418 1.00332L42.6169 1.01296L42.9918 1.02888L43.3664 1.05101L43.7406 1.07929L44.1142 1.11365L44.4872 1.15402L44.8595 1.20031L45.231 1.25243L45.6015 1.3103L45.971 1.37382L46.3394 1.4429L46.7067 1.51742L47.0727 1.5973L47.4374 1.68241L47.8007 1.77265L48.1625 1.8679L48.5229 1.96805L48.8816 2.07298L49.2388 2.18258L49.5943 2.29673L49.9481 2.41532L50.3002 2.53822L50.6505 2.66531L50.999 2.7965L51.3457 2.93165L51.6906 3.07067L52.0336 3.21343L52.3747 3.35984L52.714 3.50979L53.0514 3.66318L53.3869 3.81991L53.7205 3.97989L54.0522 4.14304L54.3821 4.30926L54.7101 4.47848L55.0361 4.65063L55.3603 4.82563L55.6827 5.00342L56.0032 5.18394L56.3218 5.36714L56.6385 5.55297L56.9535 5.74139L57.2665 5.93236L57.5777 6.12584L57.8871 6.32179L58.1947 6.5202L58.5004 6.72101L58.8043 6.92421L59.1063 7.12977L59.4066 7.33766L59.705 7.54785L60.0016 7.76034L60.2964 7.9751L60.5894 8.19212L60.8806 8.4114L61.1699 8.63292L61.4574 8.85668L61.7431 9.08269L62.0269 9.31094L62.3089 9.54145L62.589 9.77423L62.8671 10.0093L63.1433 10.2466L63.4176 10.4863L63.6898 10.7283L63.9599 10.9726L64.228 11.2193L64.4939 11.4684L64.7577 11.72L65.0191 11.974L65.2782 12.2305L65.535 12.4896L65.7893 12.7512L66.041 13.0153L66.2901 13.2821L66.5365 13.5516L66.7801 13.8237L67.0208 14.0984L67.2585 14.3759L67.4931 14.6562L67.7245 14.9392L67.9527 15.225L68.1774 15.5135L68.3986 15.8049L68.6162 16.099L68.8301 16.3959L69.0401 16.6957L69.2462 16.9982L69.4482 17.3034L69.646 17.6114L69.8396 17.9222L70.0287 18.2356L70.2134 18.5517L70.3935 18.8704L70.569 19.1916L70.7397 19.5154L70.9055 19.8417L71.0664 20.1703L71.2223 20.5013L71.3732 20.8345L71.5189 21.17L71.6594 21.5075L71.7946 21.8471L71.9244 22.1887L72.0488 22.5321L72.1678 22.8774L72.2812 23.2244L72.3891 23.573L72.4913 23.9231L72.5878 24.2747L72.6786 24.6277L72.7636 24.9819L72.8428 25.3372L72.9161 25.6936L72.9836 26.051L73.0452 26.4092L73.1008 26.7682L73.1505 27.1277L73.1942 27.4879L73.232 27.8484L73.2638 28.2092L73.2896 28.5703L73.3095 28.9315L73.3234 29.2926L73.3313 29.6536L73.3333 30.0144L73.3294 30.3748L73.3197 30.7348L73.304 31.0942L73.2825 31.4529L73.2553 31.8109L73.2223 32.168L73.1836 32.5241L73.1392 32.8791L73.0892 33.2329L73.0337 33.5854L72.9727 33.9366L72.9062 34.2862L72.8344 34.6343L72.7573 34.9807L72.675 35.3253Z" fill="#BC9EE0" stroke="#BC9EE0" stroke-width="2"/>
<path fill-rule="evenodd" clip-rule="evenodd" d="M52.0466 18.2175L52.0085 18.3395L51.9682 18.4608L51.9258 18.5814L51.8812 18.7013L51.8346 18.8204L51.786 18.9387L51.7353 19.0561L51.6828 19.1728L51.6285 19.2885L51.5723 19.4034L51.5144 19.5174L51.4548 19.6305L51.3935 19.7426L51.3307 19.8538L51.2663 19.9641L51.2005 20.0734L51.1333 20.1817L51.0647 20.2891L50.9948 20.3954L50.9237 20.5008L50.8514 20.6052L50.7779 20.7086L50.7033 20.8111L50.6278 20.9125L50.5512 21.013L50.4736 21.1125L50.3952 21.211L50.3159 21.3085L50.2358 21.4051L50.1549 21.5008L50.0733 21.5954L49.991 21.6892L49.908 21.782L49.8244 21.8739L49.7402 21.9649L49.6554 22.055L49.57 22.1442L49.4842 22.2326L49.3979 22.32L49.3111 22.4067L49.2238 22.4924L49.1362 22.5774L49.0481 22.6615L48.9597 22.7449L48.8708 22.8274L48.7817 22.9091L48.6922 22.9901L48.6023 23.0704L48.5122 23.1499L48.4218 23.2286L48.331 23.3067L48.24 23.384L48.1488 23.4607L48.0573 23.5367L47.9655 23.612L47.8735 23.6867L47.7813 23.7607L47.6888 23.8341L47.596 23.9068L47.5031 23.979L47.4098 24.0505L47.3164 24.1215L47.2226 24.1918L47.1286 24.2616L47.0343 24.3307L46.9398 24.3993L46.8449 24.4672L46.7497 24.5346L46.6542 24.6013L46.5583 24.6674L46.4621 24.733L46.3655 24.7979L46.2685 24.8622L46.1711 24.9258L46.0733 24.9888L45.9751 25.0511L45.8764 25.1128L45.7773 25.1738L45.6777 25.234L45.5776 25.2936L45.477 25.3524L45.3758 25.4104L45.2742 25.4677L45.172 25.5242L45.0692 25.5798L44.9659 25.6347L44.862 25.6886L44.7576 25.7417L44.6525 25.7939L44.5469 25.8451L44.4407 25.8954L44.3338 25.9447L44.2264 25.993L44.1184 26.0403L44.0098 26.0865L43.9005 26.1316L43.7907 26.1757L43.6803 26.2186L43.5694 26.2604L43.4579 26.3011L43.3459 26.3407L43.2333 26.379L43.1202 26.4162L43.0067 26.4522L42.8926 26.487L42.7782 26.5207L42.6633 26.5531L42.548 26.5844L42.4323 26.6144L42.3163 26.6433L42.1999 26.671L42.0832 26.6975L41.9662 26.7228L41.849 26.7469L41.7315 26.7699L41.6138 26.7917L41.4958 26.8124L41.3777 26.8319L41.2595 26.8503L41.1411 26.8676L41.0226 26.8837L40.9039 26.8988L40.7852 26.9127L40.6665 26.9256L40.5477 26.9374L40.4288 26.9482L40.31 26.9579L40.1911 26.9666L40.0723 26.9743L39.9535 26.9809L39.8347 26.9865L39.716 26.9912L39.5974 26.9948L39.4789 26.9975L39.3604 26.9992L39.2421 27L39.1238 26.9998L39.0057 26.9987L38.8878 26.9966L38.77 26.9936L38.6523 26.9897L38.5348 26.9849L38.4175 26.9792L38.3003 26.9725L38.1834 26.965L38.0666 26.9566L37.9501 26.9473L37.8337 26.9371L37.7176 26.926L37.6017 26.9141L37.4861 26.9013L37.3706 26.8876L37.2555 26.8731L37.1406 26.8577L37.0259 26.8415L36.9115 26.8244L36.7974 26.8064L36.6836 26.7876L36.5701 26.768L36.4569 26.7475L36.344 26.7261L36.2314 26.7039L36.1191 26.6809L36.0072 26.657L35.8956 26.6323L35.7843 26.6067L35.6734 26.5803L35.5629 26.5531L35.4527 26.525L35.3429 26.496L35.2335 26.4663L35.1245 26.4356L35.0159 26.4042L34.9077 26.3719L34.8 26.3388L34.6926 26.3048L34.5857 26.27L34.4793 26.2344L34.3733 26.1979L34.2678 26.1606L34.1628 26.1225L34.0582 26.0835L33.9542 26.0438L33.8506 26.0032L33.7476 25.9617L33.6451 25.9195L33.5431 25.8764L33.4417 25.8326L33.3409 25.7879L33.2406 25.7424L33.1408 25.696L33.0417 25.6489L32.9432 25.601L32.8453 25.5522L32.748 25.5026L32.6514 25.4522L32.5554 25.4009L32.4602 25.3488L32.3657 25.2958L32.2719 25.242L32.1789 25.1873L32.0867 25.1317L31.9954 25.0752L31.9049 25.0178L31.8153 24.9595L31.7266 24.9003L31.6389 24.8402L31.5522 24.7791L31.4665 24.7171L31.3819 24.6541L31.2984 24.5902L31.2161 24.5253L31.135 24.4595L31.055 24.3927L30.9764 24.3249L30.8991 24.2562L30.8231 24.1865L30.7485 24.1159L30.6754 24.0443L30.6037 23.9718L30.5335 23.8983L30.4649 23.824L30.3978 23.7487L30.3324 23.6726L30.2686 23.5955L30.2064 23.5176L30.146 23.4389L30.0873 23.3594L30.0304 23.279L29.9752 23.198L29.9218 23.1161L29.8703 23.0336L29.8205 22.9504L29.7726 22.8665L29.7266 22.7821L29.6823 22.697L29.6399 22.6114L29.5994 22.5253L29.5607 22.4388L29.5237 22.3518L29.4886 22.2645L29.4552 22.1767L29.4236 22.0887L29.3937 22.0004L29.3654 21.9119L29.3388 21.8233L29.3137 21.7344L29.2902 21.6455L29.2682 21.5565L29.2477 21.4674L29.2285 21.3784L29.2107 21.2894L29.1942 21.2005L29.1789 21.1116L29.1647 21.0229L29.1517 20.9343L29.1398 20.8459L29.1288 20.7577L29.1188 20.6696L29.1096 20.5818L29.1013 20.4943L29.0936 20.407L29.0867 20.3199L29.0804 20.2332L29.0747 20.1467L29.0694 20.0604L29.0647 19.9745L29.0602 19.8889L29.0561 19.8035L29.0523 19.7184L29.0487 19.6335L29.0453 19.549L29.0419 19.4647L29.0386 19.3806L29.0353 19.2967L29.032 19.2131L29.0286 19.1296L29.0251 19.0463L29.0215 18.9631L29.0176 18.8801L29.0135 18.7972L29.0092 18.7144L29.0046 18.6316L28.9997 18.5488L28.9945 18.466L28.989 18.3833L28.9831 18.3004L28.9768 18.2175L28.9702 18.1344L28.9632 18.0513L28.9559 17.9679L28.9482 17.8843L28.9401 17.8005L28.9317 17.7165L28.9229 17.6321L28.9138 17.5475L28.9044 17.4624L28.8947 17.377L28.8847 17.2912L28.8745 17.205L28.8641 17.1183L28.8535 17.0312L28.8428 16.9435L28.8319 16.8553L28.821 16.7666L28.8101 16.6773L28.7992 16.5874L28.7884 16.497L28.7777 16.4059L28.7671 16.3142L28.7568 16.2219L28.7467 16.1289L28.737 16.0353L28.7277 15.941L28.7188 15.846L28.7104 15.7504L28.7026 15.6542L28.6953 15.5573L28.6888 15.4597L28.683 15.3615L28.6779 15.2626L28.6738 15.1631L28.6705 15.063L28.6682 14.9622L28.6669 14.8609L28.6667 14.759L28.6677 14.6565L28.6698 14.5534L28.6732 14.4499L28.6778 14.3458L28.6838 14.2412L28.6911 14.1361L28.6999 14.0307L28.7101 13.9247L28.7219 13.8184L28.7351 13.7117L28.75 13.6046L28.7665 13.4973L28.7846 13.3896L28.8043 13.2816L28.8258 13.1733L28.8489 13.0649L28.8738 12.9562L28.9004 12.8473L28.9288 12.7383L28.959 12.6291L28.9911 12.5198L29.0249 12.4105L29.0606 12.301L29.0981 12.1916L29.1375 12.0821L29.1787 11.9726L29.2219 11.8632L29.2669 11.7538L29.3139 11.6446L29.3627 11.5354L29.4135 11.4264L29.4663 11.3176L29.5209 11.2089L29.5775 11.1005L29.6361 10.9924L29.6966 10.8845L29.759 10.7769L29.8235 10.6697L29.8898 10.5628L29.9582 10.4563L30.0285 10.3502L30.1008 10.2446L30.175 10.1394L30.2512 10.0348L30.3294 9.93067L30.4095 9.82712L30.4916 9.72416L30.5756 9.62183L30.6617 9.52016L30.7496 9.41918L30.8395 9.31892L30.9314 9.21941L31.0252 9.1207L31.121 9.02281L31.2187 8.92577L31.3183 8.82963L31.4198 8.73442L31.5232 8.64018L31.6286 8.54694L31.7358 8.45474L31.8449 8.36362L31.9559 8.27361L32.0687 8.18477L32.1834 8.09712L32.2999 8.01071L32.4183 7.92558L32.5384 7.84177L32.6603 7.75933L32.784 7.67828L32.9094 7.59868L33.0366 7.52057L33.1654 7.44399L33.296 7.36899L33.4281 7.29559L33.5619 7.22385L33.6973 7.15381L33.8343 7.08551L33.9728 7.01898L34.1127 6.95428L34.2542 6.89142L34.3971 6.83047L34.5414 6.77144L34.687 6.71439L34.8339 6.65933L34.9821 6.60632L35.1315 6.55537L35.2821 6.50652L35.4339 6.45979L35.5867 6.41523L35.7405 6.37284L35.8954 6.33266L36.0512 6.29471L36.2078 6.259L36.3653 6.22556L36.5236 6.1944L36.6826 6.16553L36.8423 6.13897L37.0026 6.11473L37.1634 6.0928L37.3247 6.07321L37.4865 6.05594L37.6487 6.041L37.8113 6.02839L37.9741 6.0181L38.1371 6.01012L38.3003 6.00446L38.4637 6.00109L38.6271 6L38.7905 6.00118L38.9539 6.00461L39.1172 6.01028L39.2803 6.01816L39.4433 6.02822L39.6061 6.04045L39.7685 6.05482L39.9307 6.0713L40.0925 6.08985L40.2539 6.11045L40.4149 6.13306L40.5753 6.15764L40.7353 6.18417L40.8947 6.2126L41.0536 6.24289L41.2118 6.27501L41.3694 6.30891L41.5264 6.34456L41.6827 6.38191L41.8383 6.42092L41.9931 6.46155L42.1472 6.50376L42.3006 6.5475L42.4532 6.59274L42.605 6.63943L42.756 6.68754L42.9062 6.73702L43.0556 6.78783L43.2042 6.83994L43.352 6.89331L43.4989 6.94791L43.6451 7.0037L43.7904 7.06064L43.9349 7.11871L44.0786 7.17787L44.2214 7.2381L44.3635 7.29938L44.5047 7.36166L44.6451 7.42495L44.7847 7.4892L44.9235 7.55441L45.0614 7.62055L45.1986 7.68761L45.335 7.75558L45.4705 7.82445L45.6053 7.8942L45.7393 7.96482L45.8724 8.03629L46.0048 8.10862L46.1364 8.18178L46.2672 8.25578L46.3971 8.33059L46.5263 8.40622L46.6548 8.48266L46.7824 8.55991L46.9092 8.63795L47.0352 8.7168L47.1605 8.79645L47.2849 8.87689L47.4085 8.95813L47.5314 9.04018L47.6534 9.12303L47.7745 9.20669L47.8948 9.29117L48.0143 9.37647L48.1328 9.4626L48.2505 9.54957L48.3673 9.63738L48.4831 9.72606L48.598 9.81559L48.7119 9.90601L48.8248 9.99731L48.9366 10.0895L49.0473 10.1826L49.157 10.2766L49.2655 10.3716L49.3728 10.4675L49.4789 10.5644L49.5838 10.6622L49.6873 10.7609L49.7895 10.8607L49.8903 10.9614L49.9897 11.0631L50.0876 11.1658L50.1839 11.2695L50.2787 11.3742L50.3719 11.4799L50.4634 11.5866L50.5531 11.6943L50.6411 11.8029L50.7273 11.9125L50.8116 12.0231L50.894 12.1347L50.9744 12.2472L51.0529 12.3606L51.1293 12.475L51.2037 12.5902L51.2759 12.7064L51.346 12.8233L51.4139 12.9411L51.4796 13.0597L51.5431 13.1791L51.6043 13.2993L51.6631 13.4202L51.7197 13.5417L51.7739 13.664L51.8257 13.7869L51.8751 13.9104L51.9221 14.0345L51.9666 14.1591L52.0087 14.2842L52.0482 14.4099L52.0852 14.5359L52.1197 14.6624L52.1517 14.7893L52.1811 14.9165L52.2079 15.044L52.2321 15.1717L52.2538 15.2997L52.2728 15.4279L52.2893 15.5562L52.3031 15.6846L52.3144 15.8132L52.323 15.9417L52.3291 16.0702L52.3325 16.1987L52.3334 16.3271L52.3317 16.4554L52.3275 16.5836L52.3206 16.7115L52.3113 16.8392L52.2994 16.9666L52.285 17.0937L52.2682 17.2204L52.2489 17.3468L52.2271 17.4727L52.2029 17.5982L52.1763 17.7232L52.1474 17.8476L52.1161 17.9715L52.0825 18.0948L52.0466 18.2175Z" fill="white" fill-opacity="0.9"/>
<path d="M38.813 78.9492C39.0605 79.4213 39.5288 79.6605 40.0001 79.6666C40.4713 79.6605 40.9396 79.4213 41.1871 78.9492L49.7571 62.6017C49.9309 62.2702 50.2413 62.0258 50.6114 61.9292L72.332 56.256C73.4937 55.9526 73.6446 54.5213 72.7847 53.9249C72.7797 53.9189 72.7746 53.913 72.7694 53.9071L72.7607 53.8973L67.5284 49.3529C67.3735 49.1791 67.2668 48.9678 67.2188 48.74L65.399 41.6622C65.1615 40.5344 63.702 40.2178 63.0186 41.1458L56.0785 50.5703C52.372 55.2484 46.5491 58.265 40.0001 58.2707C33.451 58.265 27.6281 55.2484 23.9216 50.5703L16.9815 41.1458C16.2981 40.2178 14.8386 40.5344 14.6011 41.6622L12.7813 48.74C12.7333 48.9678 12.6266 49.1791 12.4717 49.3529L7.23938 53.8973L7.23073 53.9071C7.22555 53.913 7.22044 53.9189 7.21539 53.9249C6.3555 54.5213 6.50639 55.9526 7.66809 56.256L29.3887 61.9292C29.7588 62.0258 30.0692 62.2702 30.243 62.6017L38.813 78.9492Z" fill="#0C1D10"/>
<path fill-rule="evenodd" clip-rule="evenodd" d="M23.3428 38.0146C23.3428 47.2171 30.7988 54.6784 40.0001 54.6886C49.2013 54.6784 56.6573 47.2171 56.6573 38.0146C56.6573 33.1799 54.5993 28.8257 51.3115 25.7802L56.338 11.8075C57.5887 8.33083 55.0108 4.66666 51.314 4.66666H28.6861C24.9893 4.66666 22.4114 8.33083 23.6621 11.8075L28.6886 25.7802C25.4008 28.8257 23.3428 33.1799 23.3428 38.0146ZM33.0213 11.3345C29.3465 11.3345 29.437 10.9584 30.6466 14.4264L34.3546 23.7638C35.0001 25.3433 34.6734 25.3433 36.9446 25.3433H43.0555C45.3268 25.3433 45.3334 25.3433 46.0969 23.7638L49.3535 14.4264C50.5631 10.9584 50.6536 11.3345 46.9789 11.3345H33.0213Z" fill="#0C1D10"/>
</svg>
