<svg xmlns="http://www.w3.org/2000/svg" width="385" height="207" fill="none"><path fill="#1B140F" fill-rule="evenodd" d="M231.93 82.99c-11.11-12.86-22.42-25.95-39-27.7-21.2-2.25-41.89 8.86-56.44 24.43a72.89 72.89 0 0 0-19.16 56.44c1.82 18.93 15.17 33.57 29.08 46.52l.23.21c13.2 12.3 28.5 26.55 46.3 23.67 10.69-1.74 16.25-11.11 22-20.8 3.41-5.75 6.89-11.61 11.54-16.05 4.85-4.63 11.23-7.97 17.49-11.24 10.69-5.59 21.02-10.99 22.74-22.3 2.28-14.9-9.4-26.6-20.57-37.82-2.61-2.62-5.2-5.22-7.58-7.82a372.47 372.47 0 0 1-6.63-7.54Zm-53.12 81.25a7.62 7.62 0 0 0 2.85 1.83c.95.34 1.92.5 2.9.5a8.5 8.5 0 0 0 2.92-.5 7.68 7.68 0 0 0 2.83-1.82l27.5-27.5v-.01a7.82 7.82 0 0 0 2.36-5.86 8.38 8.38 0 0 0-2.24-5.5l-.06-.06-.06-.06a8.17 8.17 0 0 0-5.63-2.48c-2.28-.07-4.3.81-5.86 2.37l-13.6 13.59v-36.9c.01-2.2-.77-4.22-2.36-5.8a8.03 8.03 0 0 0-5.8-2.37c-2.19 0-4.2.79-5.79 2.36a8.02 8.02 0 0 0-2.37 5.8v36.9l-13.48-13.47a8.04 8.04 0 0 0-5.8-2.43c-2.24 0-4.24.86-5.8 2.42l-.07.07-.06.07a8.26 8.26 0 0 0-2.19 5.66c0 2.14.75 4.13 2.32 5.7l27.49 27.49Z" clip-rule="evenodd"/><path fill="#1B140F" d="M373.76 70.76c0-1.89.5-3.12 1.48-3.68a5 5 0 0 1 3.8-.3c3.8.94 5.71 3.54 5.72 7.77 0 2.02-.52 3.33-1.54 3.94-1.02.52-2.42.41-4.18-.31a8.21 8.21 0 0 1-3.88-3.02 7.73 7.73 0 0 1-1.4-4.4Zm11.04-34.53c-.01 1.67-.32 4.72-.96 9.64-.65 5.54-.96 9.74-.97 12.28.01 2.16-.3 3.72-.91 4.65-.6.91-1.59 1.21-2.96.93a3.87 3.87 0 0 1-2.84-2c-.54-1.07-.81-2.63-.81-4.66 0-2.22-.33-5.93-.96-10.96-.64-4.76-.96-7.99-.96-9.84 0-1.9.38-3.23 1.14-4.02.8-.77 2.23-.97 4.28-.66 2.15.27 3.67.76 4.56 1.47.93.67 1.38 1.7 1.39 3.17ZM354.36 59.33l-1.72-.61c0 2.14-.48 3.95-1.44 5.43-.96 1.46-2.24 1.86-3.84 1.22a7.51 7.51 0 0 1-3.98-3.41c-.83-1.58-1.26-3.94-1.26-7.09l.01-24.3c0-1.69.22-2.97.66-3.86.46-.93 1.04-1.5 1.74-1.74.73-.21 1.68-.2 2.83.05a5.6 5.6 0 0 1 3.99 3.61c.67 1.8 1 4.73 1 8.79 0 3.17-.14 5.93-.44 8.28.24.97.95 1.64 2.17 2.01.77.23 1.27.18 1.54-.15.29-.37.43-1.21.43-2.53-.01-1.92.38-3.2 1.14-3.84.81-.63 2.16-.7 4.04-.22 1.98.49 3.32 1.28 3.99 2.38.7 1.06 1.06 2.84 1.06 5.31-.01 2.66-.61 4.57-1.79 5.73a3.81 3.81 0 0 1-3.97 1.03 7.64 7.64 0 0 1 3.98 3.08c1.17 1.57 1.78 3.63 1.78 6.16-.01 3.37-.35 5.44-1.01 6.21-.65.76-1.99.74-4.04-.04-1.88-.74-3.23-1.69-4.03-2.89a8.63 8.63 0 0 1-1.15-4.7c0-.97-.06-1.69-.19-2.2-.13-.55-.3-.93-.53-1.12a2.07 2.07 0 0 0-.97-.59ZM326.18 51c0 2.21-.41 3.59-1.2 4.15-.8.51-2.22.36-4.28-.46-1.88-.75-3.16-1.73-3.84-2.94-.66-1.25-1-2.99-1-5.21V33.19a6.73 6.73 0 0 1 .58-3.07c.37-.85.94-1.41 1.68-1.7.72-.3 1.6-.29 2.59.02 2.42.76 4.02 2.09 4.8 4.01 1.84-1.09 3.65-1.36 5.36-.82 3.37 1.04 5.05 3.51 5.05 7.39 0 1.54-.36 2.69-1.1 3.4-.74.73-1.71.88-2.88.48a4.14 4.14 0 0 1-1.73-1.11c-.42-.48-.81-.96-1.2-1.43a2.7 2.7 0 0 0-1.25-.93c-.7-.24-1.24-.13-1.58.32V51ZM298.19 34.21c.01-1.79-.2-3.43-.62-4.92-.42-1.53-1.02-2.42-1.81-2.66-.56-.16-1.04.04-1.44.62a5.81 5.81 0 0 0-.93 2.26c-.19.94-.27 1.97-.28 3.09.01 1.71.22 3.29.68 4.73.45 1.39 1.09 2.23 1.91 2.5.83.28 1.46-.14 1.87-1.26.43-1.13.63-2.59.62-4.36Zm-2.49 11.25a24.05 24.05 0 0 1-6.76-3.64 17.86 17.86 0 0 1-4.8-5.48 14.04 14.04 0 0 1-1.78-6.92c-.01-3.82 1.25-6.56 3.74-8.18 2.5-1.66 5.7-1.94 9.6-.81a18.26 18.26 0 0 1 9.55 6.5 17.33 17.33 0 0 1 3.7 10.89c0 3.97-1.26 6.6-3.79 7.88-2.5 1.25-5.64 1.14-9.46-.24ZM263.22 28.47c.83.21 1.35.15 1.54-.19.23-.36.33-1.08.33-2.18l.05-8.91c0-1.56.42-2.62 1.25-3.14.84-.55 2.25-.58 4.23-.08.86.22 1.56.5 2.1.85.55.35 1.02.82 1.4 1.4.42.57.71 1.36.92 2.37.22.99.38 2.16.48 3.51.08 1.32.14 2.96.14 4.95 0 1.75-.27 3.25-.82 4.51a6.55 6.55 0 0 1-2.01 2.78 8.19 8.19 0 0 1-2.84 1.39c-1.08.26-2.17.38-3.26.34a15.73 15.73 0 0 1-10.41-4.65 10.34 10.34 0 0 1-7.11.64 20.8 20.8 0 0 1-3.27-1.07 17.5 17.5 0 0 1-6.14-4.69 12.74 12.74 0 0 1-2.07-3.7c-.51-1.5-.76-3.1-.76-4.81 0-3.26.15-5.66.42-7.19.29-1.59.77-2.63 1.45-3.1.68-.52 1.72-.61 3.17-.3 1.35.3 2.42.71 3.22 1.24a4.45 4.45 0 0 1 1.68 1.87c.35.73.53 1.63.53 2.68l.04 8.83v1.06l.14.8c.07.3.16.53.3.69a2.72 2.72 0 0 0 1.39.74c1.27.3 2.03.11 2.24-.57a47.47 47.47 0 0 1-.42-6.38c0-1.94.07-3.43.19-4.48.12-1.1.39-1.95.82-2.54.44-.58.99-.9 1.63-.97.64-.05 1.55.06 2.73.35 1.05.25 1.89.54 2.5.89.61.37 1.1.93 1.48 1.71.4.78.64 1.75.78 2.91.13 1.12.18 2.65.19 4.59-.01 2.3-.13 4.39-.38 6.26.21.75.93 1.28 2.15 1.59ZM214.12 11.96c.01 5.46-.15 9.05-.47 10.98a14.82 14.82 0 0 1-1.2 4.2 7.4 7.4 0 0 1-2.31 2.73 7.66 7.66 0 0 1-3.8 1.29c-1.54.15-3.35.05-5.46-.25-1.7-.21-3.28-.54-4.75-1a14.77 14.77 0 0 1-3.47-1.32 9.77 9.77 0 0 1-1.97-1.45c-.48-.5-.71-.94-.71-1.33-.01-.38.16-.76.47-1.12.35-.33.82-.51 1.39-.52.43-.01.91.09 1.44.28.59.21 1.13.44 1.65.69.51.26 1.12.5 1.81.72.71.23 1.4.36 2.06.41 1.73.13 2.95-.1 3.65-.71.75-.62 1.11-1.6 1.11-2.94a20.62 20.62 0 0 1-3.08.55c-.47.05-.93.07-1.38.08-.41 0-.83-.02-1.26-.04a9.21 9.21 0 0 1-4.84-1.4 7.62 7.62 0 0 1-2.92-3.32 12.17 12.17 0 0 1-.88-4.72c.01-1.79.02-3.35.05-4.66a41 41 0 0 1 .35-3.61c.16-1.12.33-2.02.53-2.68a4.1 4.1 0 0 1 .91-1.65 2.8 2.8 0 0 1 1.29-.94 5.53 5.53 0 0 1 1.73-.23c2.02.03 3.42.49 4.23 1.35.83.82 1.23 2.08 1.24 3.74l.05 8.16-.01 1.13c.01.22.02.5.06.84.05.34.13.59.19.75l.33.52c.17.16.35.27.57.34.27.08.56.12.93.15.96.06 1.54-.14 1.77-.6.26-.5.38-1.44.39-2.83l.04-8.17c0-1.11.16-2 .48-2.66.36-.67.93-1.14 1.73-1.43a7.4 7.4 0 0 1 3.26-.16c.84.11 1.54.37 2.12.78.61.37 1.09.84 1.43 1.39.36.52.62 1.27.78 2.24.19.95.31 1.88.37 2.83.07.92.11 2.13.1 3.59ZM171.39 13.23c0-1.84-.73-2.67-2.16-2.43-.65.11-1.12.57-1.44 1.4-.32.8-.49 1.78-.48 2.91 0 1.69-.04 3.07-.09 4.16a20.37 20.37 0 0 1-.3 2.91 8.62 8.62 0 0 1-.57 2.05c-.22.51-.53.96-.92 1.36-.37.36-.81.65-1.29.86-.49.18-1.09.35-1.82.5a7 7 0 0 1-2.74.15 2.19 2.19 0 0 1-1.45-.93 3.92 3.92 0 0 1-.42-1.93v-8.51c0-1.83-.73-2.61-2.16-2.31-.57.12-1.06.58-1.44 1.35a6.25 6.25 0 0 0-.53 2.7v6.57c0 1.82-.4 3.18-1.2 4.08-.81.86-2.2 1.53-4.22 2-1.89.45-3.19.36-3.9-.28-.66-.7-.99-2.02-1-3.96l.01-11.9a7.64 7.64 0 0 1 1.29-4.45 5.8 5.8 0 0 1 3.55-2.42c2.63-.61 4.28-.08 4.99 1.59a15.93 15.93 0 0 1 3.55-2.8 15.72 15.72 0 0 1 4.12-1.46c2.37-.49 4.08.3 5.14 2.34l.49-.51a16.42 16.42 0 0 1 9.06-4.55c2.27-.34 3.91.43 4.91 2.28.99 1.82 1.48 4.92 1.49 9.11 0 1.68-.04 3.04-.11 4.11a16.48 16.48 0 0 1-.28 2.81 6.83 6.83 0 0 1-.62 1.93c-.23.47-.56.88-1.02 1.24-.42.33-.89.58-1.43.76-.52.15-1.17.29-1.97.41-1.21.18-2.2.2-2.97.05-.75-.16-1.28-.46-1.59-.92a3.16 3.16 0 0 1-.48-1.87v-8.4ZM107.63 33.44c.84-.23 1.35-.56 1.55-.99.22-.48.33-1.26.33-2.36l.05-8.82c0-1.53.41-2.78 1.24-3.7.84-.96 2.25-1.7 4.23-2.22a6.18 6.18 0 0 1 2.1-.25 2.5 2.5 0 0 1 1.41.65c.4.33.72.95.9 1.83.23.85.39 1.9.48 3.17.09 1.23.14 2.82.14 4.77a14.65 14.65 0 0 1-2.82 8.72 16.6 16.6 0 0 1-2.84 2.91 19.97 19.97 0 0 1-3.27 2.1c-1.07.5-2.16.91-3.25 1.21-2.59.71-4.98.59-7.16-.41a16.14 16.14 0 0 1-10.36 5.1 12.6 12.6 0 0 1-3.26-.27 8.38 8.38 0 0 1-2.89-1.36 6.75 6.75 0 0 1-2.06-2.81c-.52-1.3-.78-2.83-.77-4.59-.01-3.31.15-5.8.43-7.46.29-1.71.77-2.97 1.45-3.77a5.93 5.93 0 0 1 3.16-1.84 8.22 8.22 0 0 1 3.22-.38c.79.12 1.36.46 1.67 1.02.36.54.54 1.34.54 2.38l.04 8.83v1.08l.15.74c.06.27.15.45.29.55.13.06.3.1.53.14.22.03.51-.01.85-.11 1.28-.36 2.04-.95 2.27-1.75a39.3 39.3 0 0 1-.44-6.2c0-1.93.07-3.45.2-4.55.11-1.15.4-2.12.81-2.9.44-.8.99-1.38 1.63-1.77a12 12 0 0 1 2.73-1.03 8.45 8.45 0 0 1 2.51-.38 1.9 1.9 0 0 1 1.47.93c.4.56.65 1.39.78 2.46.12 1.03.18 2.51.19 4.42 0 2.29-.12 4.44-.39 6.44.23.64.95.8 2.16.47ZM63.3 54.15c-3.91 1.24-7.13 1.19-9.69-.14-2.54-1.39-3.81-3.98-3.8-7.77a16.62 16.62 0 0 1 3.74-10.8 18.63 18.63 0 0 1 9.74-6.32c3.75-1.05 6.48-1.09 8.22-.12 1.75.9 2.63 2.58 2.63 5.02 0 .48-.05.95-.19 1.43a6.92 6.92 0 0 1-1.48 2.91c-.38.45-.83.89-1.35 1.35a10.81 10.81 0 0 1-4.07 2.06l-6.77 2.05c.32 1 .89 1.7 1.73 2.09.83.37 1.87.36 3.16-.03a20.91 20.91 0 0 0 4.22-1.83c.61-.35 1.26-.81 1.98-1.39a5.9 5.9 0 0 1 1.57-1.02c.55-.16.96-.12 1.25.13.32.24.49.6.48 1.1.01.6-.26 1.41-.77 2.42a18.2 18.2 0 0 1-5.76 6.44 17.43 17.43 0 0 1-4.84 2.42ZM60.04 40.6a336 336 0 0 0 3.59-1.1c.49-.14.84-.54 1.05-1.22.17-.5.24-1.13.24-1.92 0-2.16-.6-3.07-1.81-2.73-.45.13-.91.52-1.34 1.16a9.5 9.5 0 0 0-1.11 2.54 14.8 14.8 0 0 0-.62 3.27ZM32.44 30.52c0-1.15.45-2.22 1.35-3.18a7.8 7.8 0 0 1 3.89-2.17c3.49-.92 5.23-.06 5.24 2.61a4.62 4.62 0 0 1-1.35 3.48 8.94 8.94 0 0 1-3.9 1.92c-1.5.39-2.74.4-3.73.02-.99-.38-1.49-1.28-1.5-2.68Zm10.43 24.2c-.01 2.1-.4 3.69-1.2 4.79-.8 1.05-2.22 1.9-4.24 2.54-1.88.6-3.18.54-3.88-.2-.67-.79-1-2.33-1-4.59V43.92c0-1.83.43-3.4 1.29-4.74a5.98 5.98 0 0 1 3.56-2.58c1.72-.45 3.07-.4 4.03.2.96.54 1.43 1.93 1.44 4.16v13.76ZM12.62 61.25c.93-.26 1.52-.74 1.78-1.46.24-.74.37-2 .37-3.74l.05-9.4c0-1.16.17-2.11.49-2.87.35-.75.92-1.37 1.72-1.87.8-.51 1.87-.89 3.22-1.16a5.71 5.71 0 0 1 2.11-.13c.55.1 1.03.35 1.43.76.42.37.73 1.05.93 2.01.18.94.32 2.11.42 3.51.1 1.38.14 3.16.14 5.34 0 2-.26 3.89-.8 5.64a17.84 17.84 0 0 1-2.13 4.61 20.37 20.37 0 0 1-6.28 6.14 21.35 21.35 0 0 1-3.4 1.6c-1.13.41-2.24.7-3.36.87-1.12.12-2.26.05-3.42-.21a7.14 7.14 0 0 1-2.98-1.77c-.85-.96-1.55-2.41-2.1-4.41A29.85 29.85 0 0 1 0 57.26c0-4.99.13-8.43.42-10.46.3-1.95.78-3.15 1.45-3.69.69-.59 1.76-.8 3.16-.7 1.98.04 3.4.4 4.23 1.15.82.71 1.25 1.94 1.24 3.69l.06 9.7v1.5c-.01.29.01.66.03 1.11.04.46.1.78.21.96.08.18.2.39.32.6a1 1 0 0 0 .59.28c.24 0 .55-.05.91-.15Z"/></svg>