<svg xmlns="http://www.w3.org/2000/svg" width="71" height="52" fill="none"><path fill="#1B140F" d="m46.7 16.44-6.53-6.34c-1.3-1.4-1.95-2.73-1.95-4 0-1.56.66-2.94 2-4.15C41.68.65 42.98 0 44.12 0c1.4 0 2.63.62 3.68 1.86l6.1 7.82 5.05-6.77C60.51 1 62.25.05 64.19.05c1.34 0 2.58.55 3.72 1.67 1.3 1.33 1.95 2.6 1.95 3.8 0 1.4-.93 3.08-2.8 5.01l-5.63 5.34 6.43 6.72c1.34 1.5 2 2.81 2 3.96 0 1.59-.66 2.97-2 4.14-1.46 1.34-2.76 2-3.9 2a4.6 4.6 0 0 1-3.68-1.85l-6.14-8.01-5.06 6.91c-1.49 1.94-3.22 2.9-5.2 2.9-1.3 0-2.53-.58-3.7-1.75-1.31-1.3-1.96-2.56-1.96-3.77 0-1.3.92-2.97 2.76-5l5.72-5.68ZM29.72 5.72v14.2c0 4.64-1.13 7.98-3.39 10.01-2.22 2-5.99 3-11.3 3-5.04 0-8.76-1.08-11.15-3.24C1.53 27.53.36 24.28.36 19.92V5.72c0-1.68.49-3.05 1.48-4.1A5.02 5.02 0 0 1 5.64 0c1.88 0 3.3.35 4.25 1.05.99.7 1.48 2.11 1.48 4.24v15.54a6.2 6.2 0 0 0 .47 2.43c.32.6.74 1.03 1.24 1.29.51.22 1.16.33 1.96.33s1.44-.1 1.95-.29c.51-.19.88-.49 1.1-.9.25-.41.41-.83.48-1.24.09-.41.14-.95.14-1.62V5.24c0-1.08.13-1.98.38-2.71.29-.73.7-1.27 1.24-1.62a5.64 5.64 0 0 1 1.71-.72C22.64.06 23.36 0 24.2 0c1.84 0 3.22.44 4.15 1.33.92.9 1.38 2.36 1.38 4.39ZM58.2 38.45h2.64v3.8h6.75v-3.8h2.63v9.98H67.6V44.4h-6.75v4.03H58.2v-9.98ZM45.69 48.43v-9.98h2.63v7.85h7.69v2.13H45.69ZM30.44 38.45h6.8c3.64 0 5.81 1.37 5.81 4.6v.83c0 3.2-2.1 4.55-5.8 4.55h-6.81v-9.98Zm2.63 2.13v5.72h4.17c2.3 0 3.13-.8 3.13-2.42v-.83c0-1.63-.8-2.47-3.13-2.47h-4.17ZM12.27 40.78h2.78l2.9 4.67h.7l2.57-4.67h2.41L17.48 52h-2.41l1.95-3.56-4.75-7.66ZM0 37.4h2.56v4.58h.37c.72-.84 1.76-1.33 3.34-1.33h.45c2.46 0 4.51 1.15 4.51 3.87v.15c0 2.79-2.05 3.89-4.51 3.89h-.45c-1.65 0-2.67-.5-3.34-1.34h-.37v1.2H0V37.4Zm5.4 5.17c-1.63 0-2.84.63-2.84 1.95v.15c0 1.34 1.22 1.95 2.83 1.95h.45c1.65 0 2.83-.64 2.83-1.95v-.15c0-1.3-1.18-1.95-2.83-1.95h-.45Z"/></svg>