<?xml version="1.0" encoding="UTF-8"?><svg id="Layer_1" xmlns="http://www.w3.org/2000/svg" viewBox="0 0 1970.33 1894.98"><defs><style>.cls-1{fill:#ebe0d4;}.cls-1,.cls-2,.cls-3,.cls-4,.cls-5,.cls-6,.cls-7,.cls-8{stroke-width:0px;}.cls-2{fill:#f5f0e8;}.cls-3{fill:#d5c4e7;}.cls-4{fill:#f5e0cd;}.cls-5{fill:#f2c2a2;}.cls-6{fill:#d6c4e7;}.cls-7{fill:#faf8f1;}.cls-8{fill:#f8df99;}</style></defs><path class="cls-7" d="M892.91,596.81c18.56-27.06-5.2-56.93-17.77-81.14-13.07-25.18-24.44-51.3-16.74-80.11,14.83-55.49,80.81-79.25,132.15-81.44,70.33-3,136.39,19.65,205.1,29.5,20.45,2.93,40.54-.78,42.17-24.78,2.04-30.03-8.45-65.81-16.9-94.27-9.17-30.84-21.88-60.55-37.12-88.87-14.25-26.5-33.9-50.58-45.96-78.13-29.4-67.16,54.31-74.8,100.57-59.5,31.21,10.32,59.12,28.86,86.78,46.16,24.55,15.35,49.62,34.34,78.47,17.53,26.61-15.51,40.41-49.66,60.16-72.4,18.93-21.8,43.51-32.95,72.54-28.32,34.73,5.53,68.08,28.42,96.8,47.57,29.66,19.78,57.18,42.31,85.99,63.24,26.67,19.37,56.24,35.2,88.58,42.5,16.28,3.67,33.55,5.63,50.26,4.43,17.8-1.28,32.9-10.6,50.09-13.49-7.69,21.71-28.63,36.38-34.16,59.56-.66.33-1.33.67-1.99,1-44.07,7.26-96.65-4.87-136.45-23.24-41.47-19.14-81.3-41.88-123.95-58.41-36.21-14.03-78.8-28.03-114.96-6.42-28.27,16.89-42.11,49.55-69.57,67.31-30.32,19.61-57.2.25-83.02-17.26-14.89-10.1-87.54-57.34-87.8-12.65-.11,18.95,9.82,41.06,13.76,59.68,4.26,20.09,7.83,40.34,10.42,60.72,5.26,41.32,13.13,79.78,24.64,119.85,6.78,23.61,22.64,57.24-10.73,65.11-37.58,8.87-78.74-10.57-116.4-3.68,19.4,9.24,47.41,9.78,68.74,13.71,20.73,3.82,41.75,7.25,62.89,7.32,45.72.16,32.78-35.1,22.46-66.52-11.99-36.5-19.01-70.43-21.7-108.79-1.39-19.92-2.61-39.85-3.69-59.78-.62-11.4-6.47-33.61,4.16-41.95,20.69-16.25,63.01,25.1,84.87,28.39,33.8,5.1,54.62-22.05,75.65-43.39,21.22-21.52,45.85-36.77,76.93-35.93,38.05,1.03,75.59,13.61,110.36,28.17,69.09,28.93,137.91,55.17,214.34,49.71.35.04.71.08,1.06.12,2.15,14.73,13.97,23.52,21.5,34.94,3.15,4.78,7.81,8.69,8.5,14.88-61.72,1.79-126.42-10.62-185.74-26.91-53.69-14.75-111.82-37.51-168.42-27.93-53.61,9.07-89.55,57.61-126.32,93.66-21.22,20.8-22.17,46.21-24.13,74.48-1.88,27.03,6.39,52.14,20.82,74.8.29.64.58,1.27.87,1.91.58.73,1.16,1.47,1.74,2.2,31.44,68.29-70.76,91.77-119.3,89.67-54.29-2.36-109.78-20.19-157.18,16.83-21.21,16.57-29.63,40.13-45.45,60.83-17.07,22.34-38.51,28.79-63,39.82-40.33,18.16-90.05,71.45-80.94,119.43,9.89,52.07,42.93,105.36,82.96,139.41,8.2,19.47,28.5,36.01,41.66,52.24,15.16,18.69,29.56,38.2,40.51,59.71,20.7,40.66,22.16,86.19-7.6,123.09-23.23,28.8-60.52,39.24-94.95,47.74-43.41,10.72-87.91,16.98-132.57,18.98-90.86,4.06-179.55-11.03-268.12-29.46-44.64-9.29-89.64-16.6-134.39-25.36-44.64-8.74-87.36-8.23-132.52-8.13-86.93.19-148.51-76.07-200.98-135.9,0,0,.03.04.03.04-.34-.35-.68-.69-1.02-1.04-19.34-40.12-38.37-80.33-56.5-121.02-17.19-38.6-36.17-77.85-46.48-118.99,21.27,22.68,41.74,46.21,62.19,69.62,40.29,46.13,73.78,101.38,120.67,141.25,23.2,19.73,48.11,26.36,77.54,30.86,30.87,4.72,60.39,11.69,89.58,22.94,122.42,47.19,233.51,116.08,365.48,135.8,64.73,9.67,133.71,8.81,197.38-7.45,47.03-12.01,105.53-43.47,89.01-101.59-7.65-26.89-29.79-49.54-49.16-68.66-22.89-22.6-47.44-43.47-70.75-65.62-41.02-38.98-96.69-89.11-82.84-151.09,12.38-55.4,45.34-97.27,86.91-134.8,20.29-18.32,42.79-23.87,65.52-37.07,22.67-13.17,15.76-37.52,8.13-58.34-7.26-19.8-17.56-41.62-9.65-62.92,7.87-21.19,30.69-31.52,50.29-39.11,28.63-11.09,58.76-18.44,89.38-20.92,15.63-1.26,33.05,2.33,48.24.07,12.59-1.88,9.94-7.03.35-13.08-49.5-31.24-117.45-39.56-172.28-19.35-48.04,17.7-93.92,44.8-75.22,102.3,7.58,23.28,29.38,47.56,29.65,72.74.23,21.58-23.95,29.55-39.51,38.43-28.97,16.54-52.5,44.57-77.35,66.64-20.95,18.61-41.81,38.3-55.51,63.09-32.44,58.72,25.48,117.85,62.89,158.72,22.01,24.04,45.01,47.27,68.16,70.2,22.12,21.92,47.23,43.92,63.13,71.05,33.48,57.11-12.51,100.24-66.38,113.24-60.57,14.62-137.1,18.7-196.85-1.97,69.43,8.46,149.66,21.72,215.5-11.54,43.33-21.88,51.23-68.29,26.02-107.79-33.03-51.76-84.32-92.09-124.79-137.89-33.81-38.26-88.49-92.89-72.02-149.08,17.25-58.86,83.61-96.53,118.46-144.65.61-.67,1.21-1.33,1.82-2,.72-1,1.43-2,2.15-3,5.73-2.78,7.4-7.73,6.76-13.54-.42-3.84-2.89-6.16-6.92-6.48Z"/><path class="cls-1" d="M1707.94,846.82c1.75,57.83,2.91,113.48-11.87,169.98-12.61,48.19-32.21,96.63-60.68,137.72-24.2,34.94-58.66,72.82-104.25,74.39-21.73.75-39.85-8.08-60.62,3-22.18,11.84-40.49,33.89-58.42,51.04-37.73,36.09-77.22,80.86-126.12,101.59-48.18,20.43-103.01,17.32-153.09,6.45-53.86-11.7-105.59-32.15-160.73-37.83-54.64-5.63-109.13,4.05-161.57,19.04-55.82,15.95-112.75,25.3-168.63,40.56-54.16,14.8-105.85,32.94-162.67,22.96-100.82-17.72-185.23-80.84-262.75-143.82-43.66-35.48-84.61-74.14-123.63-114.64-6.02-6.24-50.64-46.39-48.37-55.09,4.15-15.92,61.02-3.63,70.36.66,16.19,7.45,24.54,24.03,35.82,36.84,18.25,20.72,39.29,39.66,59.37,58.6,37.74,35.61,78.17,68.08,124.08,92.63,55.85,29.87,110.95,41.99,174.11,35.67,62.54-6.25,125.61-6.98,187.93-15.16,63.64-8.36,126.42-20,190.38-26.56,31.8-3.26,63.69-5.69,95.47-9.19,29.99-3.3,60.96-12.39,90.84-13.86-9.97,2.63-39.18,5.18-46.03,12.29-8.95,9.29,8.34,6.01,16.19,5.59,28.87-1.56,56.4-11.18,83.72-19.89,28.46-9.08,56.81-18.51,85.29-27.54,12.12-3.84,24.94-9.26,37.83-9.08,13.29.18,23.44,8.53,35.71,12.47,44.96,14.44,91.56-30.65,114.07-65.52,12.25-18.97,20.4-40.04,25.26-62.04,1.03-4.64,18.57-67.14,23.28-62.55-4.8-4.68-20.78,9.22-23.31,12.03-6.96,7.75-10.55,17.83-13.95,27.51-4.3,12.2-11.96,50.8-27.03,54.8,16.82-29.91,12.9-77.15,42.68-98.19,33.37-23.57,74.7,2.84,110.1-10.28,31.65-11.73,52.53-59.05,65.29-87.47,19.07-42.47,2.97-79.64-11.49-120.62-14.44-40.94-24.56-83.01-17.3-126.53,6.74-40.43,25.96-79.4,44.6-115.54,16.32-31.64,34.49-64.42,72.53-70.52,40.73-6.53,83.47,7.81,120.89,22.37,37.03,14.41,88.7,29.43,114.09,62.17,8.31,10.72,20.52,35.12,15.54,49.1-2.41,6.78-10.1,11.34-14.74,16.55-8.59,9.64-16.22,20.74-24.24,30.89-4.39,3.12-37.92-32.28-45.43-36.71-17.86-10.53-39.31-16.88-60.09-17.07-50.88-.47-77.68,43.61-85.42,88.82,0,.65,0,1.3,0,1.95-1,6.68-1.99,13.37-2.99,20.05,0,.99,0,1.97-.01,2.96-.33,3.01-.66,6.03-.98,9.04-.01,2.65-.02,5.3-.03,7.96-1.72,11-1.71,22,0,33,.32,6.67.64,13.33.96,20-1.42,1.67-1.43,3.34.03,5Z"/><path class="cls-1" d="M1420.15,465.8c-14.43-22.66-22.7-47.77-20.82-74.8,1.97-28.26,2.91-53.68,24.13-74.48,36.77-36.04,72.71-84.59,126.32-93.66,56.6-9.58,114.72,13.18,168.42,27.93,59.32,16.29,124.02,28.7,185.74,26.91,1.66.69,3.32,1.39,4.99,2.08,1.15,1.82.75,4.86,3.96,5.07,0,.32,0,.63.03.95,1.3,4.24-.38,5.31-4.57,5.09-10.78-.58-21.61-.45-32.38-1.11-51.52-3.14-102.32-11.81-153.05-20.68-43.07-7.53-85.95-15.28-129.93-9.32-60.81,8.25-96.04,50.46-109.36,103.32-5.08,20.17-5.58,42.04-16.79,60.05-12.29,19.73-12.77,38.53-4.12,59.6,8.16,19.89,2.83,38.85-9.29,56.02-21.02,29.79-51.83,47.23-82.58,64.43-56.24,31.44-115.74,56.92-166.99,97.36-31.88,25.16-54.85,77.8-39.9,117.28.34.97.68,1.94,1.03,2.92,13.26,28.39,46.01,44.58,72.39,58.38,21.86,11.43,66.28,24.32,72.56,51.7-.97,3.66-1.95,7.32-2.92,10.98-9.91,11.52-15.67,27.75-25.68,39.93-10.68,13-22.35,25.21-33.91,37.42-24.04,25.39-28.58,50.82-30.94,85.08-1.92,28.03-4.3,56.99-19.94,81.27-14.94,23.19-40.47,38.51-65.19,49.41-59.04,26.02-125.51,37.01-189.3,43.19-68.01,6.58-136.17,11.82-204.2,18.16-33.78,3.15-67.39,9.08-101.28,10.94-34.77,1.91-69.88.05-104.68-.3-38.56,1.18-79.1,6.26-117.54,1.48-33.95-4.23-65.46-18.74-94.78-35.72-29.66-17.18-56.92-37.98-82.31-60.95-23.13-20.92-55.16-45.96-70.84-72.92,6.71-2.1,14.33-.54,18.1-8.03,3.93-7.8-2.68-20.71-5.38-27.81-8.19-21.58-21.87-42.07-28.25-64.14,52.46,59.83,114.04,136.1,200.98,135.9,45.15-.1,87.87-.61,132.52,8.13,44.74,8.76,89.74,16.07,134.39,25.36,88.57,18.43,177.26,33.52,268.12,29.46,44.66-2,89.16-8.25,132.57-18.98,34.43-8.5,71.72-18.94,94.95-47.74,29.76-36.9,28.3-82.42,7.6-123.09-10.95-21.51-25.35-41.02-40.51-59.71-13.17-16.23-33.47-32.77-41.66-52.24,6.27,4.41,11.87,9.33,19.32,11.43-.89-17.52-17-38.65-24.7-54.48-8.89-18.27-17.93-36.47-26.76-54.77-16.49-34.16-12.55-62.38,11.62-91.84,19.79-24.12,47.04-37.72,74.08-52.05,28.46-15.09,54.14-35.34,83.34-48.98,59.97-28.02,128.71-32.97,189.52-59.69,26.46-11.63,55.85-26.98,73.95-50.22,20.05-25.73,10.56-46.99-.59-73.93-4.06-9.8-10.99-81.22-22.01-78.09-9.66,2.74-12.23,33.86-11.27,42.02,1.7,14.39,10.02,26.7,13.82,40.5Z"/><path class="cls-1" d="M1470.84,1687.77c33-67.37,97.01-114.33,154.62-159.07,30.33-23.55,59.65-48.33,87.56-74.71,14.42-13.62,29.12-26.99,43.25-40.91,11.69-11.52,22.82-31.56,36.02-40.35,3.44,13.86,1.59,30.54,1.77,44.74.28,21.81.63,43.62.93,65.43.55,39.52,1.1,79.07.49,118.6-.29,19.16-1.18,38.3-2.5,57.42-1.16,16.7,1.39,42.87-5.89,58.1-5.87,12.27-23.6,18.17-34.74,24.22-17.54,9.53-35.17,18.91-52.86,28.15-69.86,36.48-140.81,71.13-212.31,104.29-36.46,16.91-68.14,25.16-108.55,19.55-37.59-5.22-74.6-15.11-110.17-28.22-34.33-12.65-67.13-31.37-102.5-40.81-35.01-9.35-71.6-8.7-106.91-1.25-74.06,15.61-139.92,49.6-217.67,45.84-36.19-1.75-68.7-11.98-100.11-29.72-10.26-5.79-32-13.76-36.11-26.11-4.88-14.68,16.39-23.47,27.65-28.09,19.04-7.83,51.7-4.6,67.33,9.93,9.63,8.95-2.12,7.95,2.3,17.18,6.43,13.42,39.74,10.17,50.82,8.87,80.25-9.44,146.3-59.28,218.66-90.51,37.37-16.12,77.47-24.48,117.52-13.58,18.58,5.06,36.05,13.37,53.43,21.5,16.97,7.94,42.53,14.67,56.15,27.4-4.17.75-10.64-4.43-12,.74-1.34,5.09,5.45,8.19,9.98,10.92,17.86,10.77,37.43,16.72,57.63,21.32,33.3,7.59,61.99,2.27,86.92-23.5,36.21-37.43,72.73-74.56,105.87-114.74,18.26-22.13,35.74-45.18,40.77-74.79.38-2.23,1.2-4.41-1.05-5.84-2.59-1.64-5.22-1.1-8,.19-29.04,13.46-50.24,36.13-70.23,60.07-13.05,15.62-25.42,31.81-38.09,47.74Z"/><path class="cls-7" d="M531.9,1306.91c34.8.36,69.91,2.21,104.68.3,33.88-1.86,67.5-7.79,101.28-10.94,68.04-6.34,136.19-11.58,204.2-18.16,63.8-6.18,130.26-17.16,189.3-43.19,24.72-10.9,50.24-26.22,65.19-49.41,15.65-24.28,18.02-53.24,19.94-81.27,2.35-34.26,6.9-59.69,30.94-85.08,11.56-12.21,23.23-24.42,33.91-37.42,10.01-12.18,15.76-28.41,25.68-39.93,3.19-3.07,4.77-6.57,2.92-10.98-6.28-27.37-50.7-40.26-72.56-51.7-26.39-13.8-59.13-29.99-72.4-58.38,1.54-1.63,0-2.19-1.03-2.92-14.95-39.48,8.02-92.12,39.9-117.28,51.24-40.44,110.75-65.91,166.99-97.36,30.76-17.2,61.56-34.64,82.58-64.43,12.11-17.17,17.45-36.13,9.29-56.02-8.65-21.06-8.17-39.86,4.12-59.6,11.21-18.01,11.71-39.88,16.79-60.05,13.33-52.86,48.55-95.07,109.36-103.32,43.98-5.97,86.86,1.78,129.93,9.32,50.72,8.87,101.53,17.55,153.05,20.68,10.78.66,21.6.53,32.38,1.11,4.19.22,5.86-.85,4.57-5.09,5.06,4.56,3.23,11.52,6.24,17.23,9.2,17.45,16.63,35.83,24.75,53.85-40.56-5.48-81.12-11.03-121.7-16.42-49.8-6.62-99.44-15.08-150.06-11.76-58.42,3.84-107.69,23.43-137.38,77.82-10.13,18.56-25.42,34.47-29.24,56.25-2.26,12.91,3.47,25.21,3.49,37.99-10.12,62.13-49.11,101.86-96.15,140.71-39.32,32.47-95.03,67.84-86.6,126.3,8.26,57.26,69.88,86.81,114.57,112.99,22.2,13.01,54.81,27.46,63.5,53.89,7.9,24.02-7.66,47.93-31.32,53.55-28.14,6.69-57.73.13-85.52,10.16-21.06,7.6-36.85,23.12-45.62,43.64-8.76,20.5-8.81,44.27-23.87,61.96-15.79,18.56-40.72,14.69-57.83,30.11-18.24,16.44-25.83,42.76-43.15,60.83-17.28,18.02-38.53,31.62-61.02,42.21-56.55,26.63-120.06,38.97-181.82,45.71-74.92,8.18-150.29,11.76-225.23,19.62-37.24,3.91-74.42,9.05-111.9,10.09-11.22.31-104.08,2.69-105.17-5.64Z"/><path class="cls-1" d="M725.93,1172.79c59.75,20.67,136.29,16.59,196.85,1.97,53.88-13,99.86-56.13,66.38-113.24-15.9-27.13-41.01-49.13-63.13-71.05-23.15-22.94-46.15-46.16-68.16-70.2-37.41-40.88-95.33-100-62.89-158.72,13.7-24.79,34.56-44.48,55.51-63.09,24.85-22.08,48.38-50.11,77.35-66.64,15.56-8.88,39.74-16.86,39.51-38.43-.27-25.19-22.08-49.46-29.65-72.74-18.71-57.5,27.18-84.6,75.22-102.3,54.83-20.21,122.78-11.89,172.28,19.35,9.59,6.05,12.24,11.2-.35,13.08-15.19,2.26-32.61-1.33-48.24-.07-30.63,2.48-60.75,9.83-89.38,20.92-19.6,7.59-42.42,17.92-50.29,39.11-7.91,21.3,2.39,43.12,9.65,62.92,7.63,20.82,14.54,45.17-8.13,58.34-22.72,13.2-45.22,18.75-65.52,37.07-41.57,37.53-74.53,79.4-86.91,134.8-13.85,61.98,41.82,112.1,82.84,151.09,23.31,22.16,47.86,43.03,70.75,65.62,19.38,19.13,41.52,41.77,49.16,68.66,16.53,58.12-41.97,89.58-89.01,101.59-63.68,16.26-132.65,17.12-197.38,7.45-131.96-19.71-243.05-88.61-365.48-135.8-29.19-11.25-58.71-18.22-89.58-22.94-29.42-4.5-54.34-11.14-77.54-30.86-46.89-39.87-80.39-95.12-120.67-141.25-20.45-23.42-40.93-46.94-62.19-69.62-11.69-29.52-18.09-60.33-20.81-91.79-1.82-20.98-1.55-42.13-2.21-63.21,1.01.86,2.21,1.57,2.99,2.6,21.06,28.17,43.41,55.5,62.81,84.77,35.35,53.32,68.49,108.09,103.46,161.66,19.5,29.87,44.53,54.39,78.84,67.05,46.32,17.1,90.39,38.56,132.75,63.96,49.03,29.4,97.79,59.34,148.61,85.61,48.41,25.02,98.8,45.16,151.53,59.25,1.35.37,2.7.74,4.05,1.12l-.05-.03,4.05,1.03-.05-.03c1.35.34,2.7.68,4.05,1.02l-.04-.02c1.35.34,2.69.68,4.04,1.02l-.04-.02,5.04,1.02-.02-.03Z"/><path class="cls-1" d="M632.79,1651.76c-99.71.59-188.39-58.7-269.25-110.47-41.02-26.26-87.33-51.23-123.03-84.63-22.52-21.07,22.58-7.86,32.84-4.4,25.48,8.59,50.37,20.43,74.78,31.64,46.35,21.29,93.31,46.4,144.3,54.26,54.66,8.43,103.47-7.63,154.36-25.49,25.78-9.05,51.35-18.9,77.29-27.48,25.6-8.47,52.33-12.97,77.87-21.66,19.56-6.65,38.48-16.2,58.91-20.03,8.38-1.57,26-4.65,32.28,3.85,6.82,9.23-5.73,19.8-12.08,25.79-17.7,16.72-39.54,29.28-58.27,44.89-22.8,18.99-44.21,39.59-64.78,60.96-33.87,35.18-71.2,77.87-125.22,72.77Z"/><path class="cls-5" d="M171.92,1584.82c-1.63-.05-3.27-.09-4.9-.14-1.45-3.06-4.06-1.52-6.27-1.59-4.95-.03-9.89-.07-14.84-.1-1.38-.31-2.76-.63-4.14-.94-3.95-.01-7.91-.03-11.86-.04-1-.11-1.99-.22-2.99-.33-2,0-4.01,0-6.01,0-2.35-1.26-4.68-1.31-6.99.1-.63-.03-1.27-.07-1.9-.1-1.35-2.69-3.14-2.24-5.09-.74-2,0-4.01,0-6.01.01-3.97-1.91-7.97-1.59-12-.2-.64-.01-1.28-.03-1.93-.04-1.69-2.97-3.83-2.23-6.07-.75-1.34,0-2.67,0-4.01.01-6.26-1.57-12.59-1.97-18.99-1-1,.01-2.01.02-3.01.03-1.22-1.54-2.56-1.48-3.99-.3-1.67,0-3.34,0-5,.01-1.36-.26-2.73-.52-4.09-.78-1.3-.01-2.6-.02-3.9-.04-2.95-1.69-5.96-1.5-9-.25-1.3,0-2.6,0-3.9.01-2.41-3.2-5.25-2.02-8.1-.81-7.68-.58-13.65,1.06-16.51-5.14-2.12-4.59,4.76-22.55,5.94-27.97,3.21-14.78,2.43-28.78,19.58-27.87,38.03,2.02,76.68,3.64,114.68,7.26,84.26,8.03,158.8,46.46,233.8,83,71.73,34.95,148.33,75.37,227.88,88.36,37.53,6.13,79.94,3.29,112.91-17.53,29.13-18.39,43.81-55.01,66.21-80.23,10.61-11.95,27.93-29.56,45.24-30.14,16.35-.55,27.84,16.77,36.35,28.46,11.54,15.85,20.7,33.26,31.39,49.67,14.06,21.58,15.41,26.51-7.37,40.21-14.39,6-28.69,3.76-43.36.57-11.85-2.58-24.29-5.5-35.7,2.37-5.65,7-14.66,8.38-21.83,12.93-27.18,17.24-56.11,30.26-88.08,36.45-30.83,5.97-61.18,3.74-91.45-2.71-72.67-15.48-139.91-45.69-207.05-76.3-55.8-25.44-110.83-53.18-171.47-65.92-16.13-3.39-32.75-4.41-49.15-6.51-1.9-3.39-4.47-2.07-7.01-.99Z"/><path class="cls-3" d="M704.9,1167.7c-52.72-14.09-103.11-34.22-151.53-59.25-50.83-26.27-99.59-56.21-148.61-85.61-42.36-25.4-86.43-46.86-132.75-63.96-34.32-12.67-59.35-37.19-78.84-67.05-34.97-53.57-68.11-108.35-103.46-161.66-19.41-29.27-41.75-56.6-62.81-84.77-.77-1.03-1.98-1.74-2.99-2.6-4.6-10.57-1.06-25.94-.97-37.07.11-13.35-2.3-29.29,1.4-42.1,8.87,7.85,14.81,24.24,21.35,34.34,8.31,12.84,17.09,25.36,25.68,38.02,19.32,28.48,36.11,58.23,53.07,88.14,29.47,51.97,54.84,112.72,99.04,154.14,41.32,38.72,97.37,59.52,143.79,91.62,50.26,34.75,99.84,70.25,152.42,101.51,104.43,62.09,236.27,118.98,359.22,82.87,50.49-14.82,78.33-60.15,50.12-109.39-30.02-52.39-79.93-95.46-118.29-141.74-36.29-43.79-95.13-107.79-70.95-169.62,11.4-29.16,39.47-51.96,61.57-73.08,23.93-22.87,48.88-44.88,78.53-59.82,19.23.34,19.7.92,13.18,16.22-.72,1-1.43,2-2.15,3-.61.67-1.21,1.33-1.82,2-34.85,48.12-101.21,85.8-118.46,144.65-16.47,56.19,38.21,110.82,72.02,149.08,40.47,45.8,91.76,86.13,124.79,137.89,25.21,39.49,17.31,85.9-26.02,107.79-65.84,33.26-146.08,20-215.5,11.54,0,0,.02.03.02.03-1.68-.34-3.36-.68-5.04-1.02,0,0,.04.02.04.02-1.35-.34-2.69-.68-4.04-1.02,0,0,.04.02.04.02-1.35-.34-2.7-.68-4.05-1.02,0,0,.05.03.05.03-1.35-.34-2.7-.68-4.05-1.03,0,0,.05.03.05.03-1.35-.37-2.7-.74-4.05-1.12Z"/><path class="cls-6" d="M1509.02,500.78c-.02-12.77-5.76-25.08-3.49-37.99,3.82-21.78,19.11-37.69,29.24-56.25,29.7-54.38,78.96-73.98,137.38-77.82,50.62-3.33,100.26,5.14,150.06,11.76,40.58,5.39,81.13,10.94,121.7,16.42,11.75,10.62,17.38,25.48,26.09,38.2,1.51,2.21-2.51,1.62-3.82,1.44-69.77-9.49-139.44-19.84-209.33-28.41-47.22-5.79-94.46-5.9-140.04,11.5-30.9,11.79-53.17,33.84-73.24,59.26-15.14,19.19-18.11,41.92-22.74,64.45-1.56,7.59-3.76,15.08-9.49,20.87-3.01-6.37-.55-13.13-1.45-19.65-.18-1.28-.57-2.53-.87-3.79Z"/><path class="cls-6" d="M1383.96,1159.89c15.07-4,22.73-42.59,27.03-54.8,3.41-9.67,7-19.76,13.95-27.51,2.52-2.81,18.5-16.72,23.31-12.03-4.71-4.59-22.26,57.91-23.28,62.55-4.87,21.99-13.01,43.06-25.26,62.04-22.51,34.87-69.12,79.95-114.07,65.52-12.27-3.94-22.42-12.28-35.71-12.47-12.89-.18-25.71,5.24-37.83,9.08-28.48,9.03-56.83,18.46-85.29,27.54-27.32,8.71-54.84,18.33-83.72,19.89-7.85.42-25.14,3.7-16.19-5.59,6.85-7.11,36.06-9.66,46.03-12.29,0,0-.02.01-.02.01,1.35-.33,2.71-.67,4.06-1,.29-.03.58-.04.87-.05,1.04-.32,2.09-.63,3.13-.95.29-.02.58-.04.87-.05,1.04-.32,2.07-.65,3.11-.98,50.08-13.46,97.43-33.21,140.53-62.28,13.02-8.78,24.98-19.14,37.43-28.78.69-.62,1.38-1.24,2.06-1.86.31-.06.62-.13.92-.21,2.16.21,3.76-.36,3.96-2.86,0,0,.05-.05.05-.05,1.01-.63,2.02-1.27,3.04-1.9.32-.05.64-.12.95-.2,2.17.25,3.74-.36,4.05-2.8,1.65-.41,3.3-.81,4.95-1.22,21.03-5.9,40.22,4.39,60.32,6.59,6.79.75,14.98,2.36,20.74-4.37.65-.38,1.3-.75,1.95-1.12.69-.62,1.38-1.24,2.06-1.87.64-.38,1.29-.76,1.93-1.15,2.83-.03,4.96-1.12,6.01-3.89,2.68-3.65,5.37-7.3,8.05-10.95Z"/><path class="cls-8" d="M1470.84,1687.77c12.67-15.93,25.04-32.12,38.09-47.74,20-23.94,41.19-46.61,70.23-60.07,2.78-1.29,5.41-1.83,8-.19,2.25,1.43,1.43,3.62,1.05,5.84-5.02,29.6-22.51,52.66-40.77,74.79-33.15,40.18-69.66,77.31-105.87,114.74-24.93,25.77-53.63,31.09-86.92,23.5-20.2-4.61-39.77-10.55-57.63-21.32-4.53-2.73-11.33-5.84-9.98-10.92,1.37-5.17,7.83.01,12-.74,1.26.09,2.51.18,3.76.27.39.26.78.52,1.17.78,32.63,5.83,72.65,19.14,103-1.27,26.65-17.92,45.27-52.45,63.86-77.67Z"/><path class="cls-2" d="M1710.98,746.86c7.74-45.21,34.54-89.29,85.42-88.82,20.78.19,42.24,6.55,60.09,17.07,7.51,4.43,41.04,39.83,45.43,36.71-.61,3.12-2.09,6.39-5.19,6.61-5.15.37-6.85-4.84-9.33-8.05-21.16-27.43-48.71-43.43-83.29-46.5-41.87-3.72-67.42,18.26-81.97,53.98-3.25,7.97-5.39,16.4-7.93,24.66-.59,1.91-.53,4.09-3.23,4.34Z"/><path class="cls-4" d="M807.95,1687.87c11.41-7.87,23.84-4.96,35.7-2.37,14.67,3.2,28.97,5.43,43.36-.57-6.48,8.47-16.2,6.69-24.47,6.25-14.45-.78-28.79-3.6-43.17-5.64-4.13-.59-6.7,6.1-11.42,2.33Z"/><path class="cls-2" d="M1363.95,1178.86c-5.76,6.73-13.95,5.11-20.74,4.37-20.1-2.21-39.28-12.49-60.32-6.59,8.22-5.94,18.2-5.26,26.42-3.03,18.1,4.9,35.76,10.01,54.63,5.25Z"/><path class="cls-2" d="M893.07,616.84c6.52-15.3,6.05-15.88-13.18-16.22,3.4-4.49,8.82-2.06,13.02-3.81,4.03.33,6.49,2.64,6.92,6.48.64,5.82-1.03,10.77-6.76,13.54Z"/><path class="cls-4" d="M1873.93,227.89c-.35-.04-.71-.08-1.06-.12-2.59-7.21-1.73-14.58-.95-21.94.66-.33,1.33-.67,1.99-1,6.04,1.71,1.52,6.12,1.14,8.13-.97,5.01,4.03,10.45-1.11,14.93Z"/><path class="cls-2" d="M1706.96,821.82c-1.71-11-1.72-22,0-33,1.58,11,3.84,22,0,33Z"/><path class="cls-2" d="M1707.99,768.86c1-6.68,1.99-13.37,2.99-20.05,1.89,7.11,1.68,13.91-2.99,20.05Z"/><path class="cls-4" d="M57.92,1578.98c6.4-.97,12.72-.58,18.99,1-6.44,1.84-12.73.7-18.99-1Z"/><path class="cls-4" d="M88.92,1580.76c4.02-1.38,8.03-1.7,12,.2-4.02,1.27-8.02,1.52-12-.2Z"/><path class="cls-2" d="M1706.99,780.86c.33-3.01.66-6.03.98-9.04,1.65,3.23,3.85,6.52-.98,9.04Z"/><path class="cls-4" d="M28.92,1577.66c3.04-1.25,6.04-1.44,9,.25-3.04,1.35-6.05,1.61-9-.25Z"/><path class="cls-4" d="M16.92,1576.87c2.85-1.21,5.69-2.39,8.1.81-2.7-.27-5.4-.54-8.1-.81Z"/><path class="cls-2" d="M1375.9,1170.83c-1.05,2.77-3.18,3.86-6.01,3.89.72-3.28,3.29-3.7,6.01-3.89Z"/><path class="cls-7" d="M1912.89,284.87c-3.21-.21-2.81-3.25-3.96-5.07,3.63-.12,3.67,2.58,3.96,5.07Z"/><path class="cls-4" d="M171.92,1584.82c2.54-1.08,5.11-2.4,7.01.99-2.34-.33-4.67-.66-7.01-.99Z"/><path class="cls-4" d="M113.92,1581.78c2.31-1.41,4.64-1.36,6.99-.1-2.31,1.74-4.64,1.6-6.99.1Z"/><path class="cls-4" d="M80.92,1579.97c2.24-1.48,4.38-2.22,6.07.75-2.02-.25-4.05-.5-6.07-.75Z"/><path class="cls-4" d="M160.75,1583.09c2.21.07,4.82-1.47,6.27,1.59-2.17-.19-4.77,1.26-6.27-1.59Z"/><path class="cls-2" d="M1707.94,846.82c-1.46-1.66-1.44-3.33-.03-5,1.44,1.66,1.43,3.33.03,5Z"/><path class="cls-4" d="M106.92,1580.95c1.95-1.51,3.75-1.95,5.09.74-1.7-.25-3.4-.49-5.09-.74Z"/><path class="cls-2" d="M1269.85,1182.8c-.2,2.51-1.8,3.08-3.96,2.86,1.32-.96,2.64-1.91,3.96-2.86Z"/><path class="cls-2" d="M1277.94,1177.85c-.31,2.44-1.88,3.05-4.05,2.8,1.35-.93,2.7-1.87,4.05-2.8Z"/><path class="cls-4" d="M50.92,1578.71c1.43-1.19,2.77-1.24,3.99.3-1.42,1.08-2.77,1.2-3.99-.3Z"/><path class="cls-4" d="M141.77,1582.05c1.38.31,2.76.63,4.14.94-1.73,1.21-3.2,1.29-4.14-.94Z"/><path class="cls-4" d="M41.82,1577.95c1.36.26,2.73.52,4.09.78-1.71,1.57-3.13,1.61-4.09-.78Z"/><path class="cls-2" d="M1272.94,1180.85c-1.01.63-2.02,1.27-3.04,1.9,1.01-.63,2.02-1.27,3.04-1.9Z"/><path class="cls-4" d="M126.92,1581.67c1,.11,1.99.22,2.99.33-1-.11-1.99-.22-2.99-.33Z"/><path class="cls-2" d="M1264.97,1185.88c-.69.62-1.38,1.24-2.06,1.86.69-.62,1.38-1.24,2.06-1.86Z"/><path class="cls-1" d="M1076.96,1280.82c-1.35.33-2.71.67-4.06,1,1.35-.33,2.71-.67,4.06-1Z"/><path class="cls-2" d="M1367.96,1175.87c-.69.62-1.38,1.24-2.06,1.87.69-.62,1.38-1.24,2.06-1.87Z"/><path class="cls-1" d="M1080.97,1279.82c-1.04.32-2.09.63-3.13.95,1.04-.32,2.09-.63,3.13-.95Z"/><path class="cls-1" d="M1084.95,1278.8c-1.04.33-2.07.65-3.11.98,1.04-.33,2.07-.65,3.11-.98Z"/><path class="cls-1" d="M149.91,1037.8c.34.35.68.69,1.02,1.04-.34-.35-.68-.69-1.02-1.04Z"/><path class="cls-1" d="M1303.97,1766.71c-.39-.26-.78-.52-1.17-.78.39.26.78.52,1.17.78Z"/><path class="cls-5" d="M1420.15,465.8c-3.8-13.8-12.12-26.11-13.82-40.5-.96-8.16,1.6-39.28,11.27-42.02,11.01-3.13,17.95,68.29,22.01,78.09,11.16,26.94,20.64,48.21.59,73.93-18.1,23.24-47.49,38.59-73.95,50.22-60.8,26.72-129.55,31.66-189.52,59.69-29.2,13.65-54.88,33.89-83.34,48.98-27.03,14.33-54.28,27.93-74.08,52.05-24.17,29.45-28.1,57.67-11.62,91.84,8.83,18.3,17.87,36.5,26.76,54.77,7.71,15.83,23.81,36.96,24.7,54.48-7.45-2.09-13.05-7.02-19.32-11.43-40.03-34.05-73.07-87.34-82.96-139.41-9.11-47.98,40.61-101.28,80.94-119.43,24.49-11.03,45.93-17.48,63-39.82,15.82-20.7,24.24-44.26,45.45-60.83,47.4-37.02,102.89-19.19,157.18-16.83,48.54,2.11,150.74-21.38,119.3-89.67-.58-.73-1.16-1.47-1.74-2.2-.29-.64-.58-1.27-.87-1.91Z"/><path class="cls-8" d="M1871.92,205.84c-.78,7.36-1.64,14.72.95,21.94-76.43,5.47-145.24-20.77-214.34-49.71-34.77-14.56-72.31-27.15-110.36-28.17-31.08-.84-55.71,14.41-76.93,35.93-21.04,21.34-41.86,48.49-75.65,43.39-21.86-3.3-64.18-44.64-84.87-28.39-10.62,8.34-4.77,30.55-4.16,41.95,1.08,19.94,2.29,39.87,3.69,59.78,2.69,38.36,9.71,72.29,21.7,108.79,10.32,31.42,23.26,66.68-22.46,66.52-21.14-.07-42.16-3.51-62.89-7.32-21.33-3.93-49.34-4.47-68.74-13.71,37.66-6.89,78.82,12.55,116.4,3.68,33.37-7.87,17.51-41.5,10.73-65.11-11.51-40.07-19.38-78.53-24.64-119.85-2.6-20.38-6.16-40.63-10.42-60.72-3.94-18.62-13.87-40.72-13.76-59.68.26-44.69,72.91,2.55,87.8,12.65,25.82,17.51,52.7,36.87,83.02,17.26,27.46-17.76,41.3-50.41,69.57-67.31,36.16-21.61,78.75-7.61,114.96,6.42,42.66,16.53,82.48,39.27,123.95,58.41,39.8,18.37,92.37,30.5,136.45,23.24Z"/><path class="cls-2" d="M889.1,621.84c.61-.67,1.21-1.33,1.82-2-.61.67-1.21,1.33-1.82,2Z"/><path class="cls-1" d="M1421.02,467.71c.58.73,1.16,1.47,1.74,2.2-.58-.73-1.16-1.47-1.74-2.2Z"/><path class="cls-7" d="M720.91,1171.79c1.68.34,3.36.68,5.04,1.02-1.68-.34-3.36-.68-5.04-1.02Z"/><path class="cls-7" d="M712.9,1169.79c1.35.34,2.7.68,4.05,1.02-1.35-.34-2.7-.68-4.05-1.02Z"/><path class="cls-7" d="M708.9,1168.79c1.35.34,2.7.68,4.05,1.03-1.35-.34-2.7-.68-4.05-1.03Z"/><path class="cls-7" d="M704.9,1167.7c1.35.37,2.7.74,4.05,1.12-1.35-.37-2.7-.74-4.05-1.12Z"/><path class="cls-7" d="M716.9,1170.79c1.35.34,2.69.68,4.04,1.02-1.35-.34-2.69-.68-4.04-1.02Z"/></svg>