<svg width="303" height="370" viewBox="0 0 303 370" fill="none" xmlns="http://www.w3.org/2000/svg">
<path d="M303 319.5C303 364.511 227.661 353 170.5 353C113.339 353 67 316.511 67 271.5C67 226.489 113.339 190 170.5 190C227.661 190 303 274.489 303 319.5Z" fill="#BC9EE0"/>
<path d="M73.5 101C33.9 103.8 -1.40667e-05 55 2.49998 42.0195C83 59.0195 99 10.2109 133 6.21091C160.2 3.01091 191.833 36.1667 199 44.5C201.5 55.5 113.1 98.2 73.5 101Z" fill="#1B140F"/>
<path d="M78.0329 293.277C84.6021 288.057 78.9673 278.25 71.065 268.488C63.1627 258.726 55.9852 252.705 49.416 257.925C42.8469 263.144 37.7509 281.607 45.6532 291.369C53.5555 301.131 71.4637 298.496 78.0329 293.277Z" fill="#1B140F"/>
<path d="M52.9386 307.294C59.7269 304.733 71.7369 296.582 63.4415 286.334C57.2952 278.741 36.756 285.409 26.9022 293.237C17.0484 301.066 14.0428 313.568 20.1891 321.161C27.7622 330.517 31.15 326.183 35.9315 320.066C37.9408 317.496 40.1964 314.61 43.1121 312.294C46.2122 309.831 49.8226 308.469 52.9386 307.294Z" fill="#1B140F"/>
<path d="M78.0329 312.294C84.1791 319.886 81.3505 334.172 71.4968 342.001C61.643 349.83 48.6724 350.021 42.5261 342.428C36.3799 334.835 -7.2032 311.006 40.0626 305.971C49.9164 298.142 71.8866 304.701 78.0329 312.294Z" fill="#1B140F"/>
<path d="M90.5933 326.062C97.1626 320.842 100.729 307.725 95.4604 301.217C90.1919 294.708 45.6532 225.409 68.0156 291.369C39.0462 302.95 71.0943 309.482 76.3628 315.991C77.6665 317.602 78.7942 319.351 79.8527 320.994C83.0713 325.988 48.1944 364.378 90.5933 326.062Z" fill="#1B140F"/>
<path d="M242.5 159.5C242.5 231.021 174.214 278 116.5 278C58.7862 278 46.5 194.521 46.5 123C46.5 51.4791 94.7862 23 152.5 23C210.214 23 242.5 87.9791 242.5 159.5Z" fill="#F9E5AE"/>
<ellipse cx="176.835" cy="137.239" rx="29" ry="22.5" transform="rotate(-15 176.835 137.239)" fill="#1B140F"/>
<mask id="mask0_674_1905" style="mask-type:alpha" maskUnits="userSpaceOnUse" x="148" y="118" width="58" height="43">
<ellipse cx="177.482" cy="139.651" rx="29" ry="20" transform="rotate(-15 177.482 139.651)" fill="#FFFEFE"/>
</mask>
<g mask="url(#mask0_674_1905)">
<ellipse cx="177.482" cy="139.651" rx="29" ry="20" transform="rotate(-15 177.482 139.651)" fill="#FFFEFE"/>
<path fill-rule="evenodd" clip-rule="evenodd" d="M188.776 157.334C200.778 151.104 207.884 141.068 205.494 132.149C203.104 123.23 191.933 118.091 178.424 118.697C172.799 123.218 170.263 132.03 172.653 140.949C175.043 149.868 181.645 156.231 188.776 157.334Z" fill="#1B140F"/>
<path fill-rule="evenodd" clip-rule="evenodd" d="M191.701 155.369C201.87 149.801 207.747 140.557 205.493 132.146C203.24 123.734 193.527 118.667 181.937 118.93C177.208 123.04 175.228 131.24 177.482 139.651C179.735 148.063 185.55 154.174 191.701 155.369Z" fill="#7E5AAF"/>
</g>
<ellipse cx="85.7336" cy="154.128" rx="29" ry="18.2436" transform="rotate(-15 85.7336 154.128)" fill="#1B140F"/>
<mask id="mask1_674_1905" style="mask-type:alpha" maskUnits="userSpaceOnUse" x="57" y="138" width="58" height="36">
<ellipse cx="86.2576" cy="156.084" rx="29" ry="16.2165" transform="rotate(-15 86.2576 156.084)" fill="#FFFEFE"/>
</mask>
<g mask="url(#mask1_674_1905)">
<ellipse cx="86.2576" cy="156.084" rx="29" ry="16.2165" transform="rotate(-15 86.2576 156.084)" fill="#FFFEFE"/>
<path fill-rule="evenodd" clip-rule="evenodd" d="M96.5729 170.112C108.718 164.414 116.208 155.813 114.27 148.581C111.812 139.408 102.468 133.942 93.399 136.372C91.4798 136.886 89.7268 137.713 88.1788 138.784C82.4119 142.773 79.491 150.149 81.4287 157.381C83.3664 164.613 89.5842 169.54 96.5729 170.112Z" fill="#1B140F"/>
<path fill-rule="evenodd" clip-rule="evenodd" d="M91.6364 138.81C103.092 138.045 112.442 141.758 114.269 148.578C116.097 155.399 109.857 163.289 99.5533 168.355C93.5372 167.662 88.0851 162.904 86.2576 156.084C84.4301 149.264 86.7728 142.418 91.6364 138.81Z" fill="#7E5AAF"/>
</g>
<mask id="path-15-outside-1_674_1905" maskUnits="userSpaceOnUse" x="110" y="112" width="34" height="100" fill="black">
<rect fill="white" x="110" y="112" width="34" height="100"/>
<path d="M114 112H134C139.523 112 144 116.477 144 122V202C144 207.523 139.523 212 134 212H124C118.477 212 114 207.523 114 202V112Z"/>
</mask>
<path d="M114 112H134C139.523 112 144 116.477 144 122V202C144 207.523 139.523 212 134 212H124C118.477 212 114 207.523 114 202V112Z" fill="#F9E5AE"/>
<path d="M114 112H144H114ZM144 212H114H144ZM124 212C116.268 212 110 205.732 110 198V112H118V202C118 207.523 120.686 212 124 212ZM144 112V212V112Z" fill="#1B140F" mask="url(#path-15-outside-1_674_1905)"/>
<path d="M74.6193 96.8821C36.2598 99.6733 4.71325 52.1964 1 39.0713C78.9783 56.0177 100.773 5.17846 133.708 1.19107C160.056 -1.99884 195.058 35.6929 202 44C175.523 60.448 112.979 94.0909 74.6193 96.8821Z" fill="#F9E5AE" stroke="#F9E5AE"/>
<path d="M56.1702 283.93C73.1696 299.08 55.5769 297.614 46.3152 308.007C37.0535 318.399 37.7373 335.028 22.6307 321.565C13.9981 313.871 14.5081 299.21 23.7698 288.818C33.0315 278.425 47.5376 276.237 56.1702 283.93Z" fill="#F9E5AE"/>
<path d="M75.5 309.196C81.5467 316.736 95.5 324 71.4249 336.5C56 344.509 48.9703 344.464 42.9237 336.925C36.877 329.385 39.8339 316.97 49.528 309.196C59.2221 301.422 69.4533 301.656 75.5 309.196Z" fill="#F9E5AE"/>
<path d="M16.8013 358.556C15.1727 359.448 13.3131 357.833 13.9693 356.095L21.6305 335.812C22.1226 334.51 23.7621 334.096 24.8133 335.009L36.1668 344.874C37.218 345.787 37.0373 347.469 35.8161 348.138L16.8013 358.556Z" fill="#F9E5AE"/>
<mask id="path-21-outside-2_674_1905" maskUnits="userSpaceOnUse" x="16.9999" y="236.846" width="97.6517" height="115.687" fill="black">
<rect fill="white" x="16.9999" y="236.846" width="97.6517" height="115.687"/>
<path d="M90.1926 243.942C91.891 241.765 95.0329 241.377 97.2103 243.075L108.249 251.686C110.426 253.385 110.814 256.527 109.116 258.704L38.9987 348.59C37.3002 350.768 34.1583 351.156 31.981 349.457L20.9423 340.846C18.765 339.148 18.3768 336.006 20.0752 333.829L90.1926 243.942Z"/>
</mask>
<path d="M90.1926 243.942C91.891 241.765 95.0329 241.377 97.2103 243.075L108.249 251.686C110.426 253.385 110.814 256.527 109.116 258.704L38.9987 348.59C37.3002 350.768 34.1583 351.156 31.981 349.457L20.9423 340.846C18.765 339.148 18.3768 336.006 20.0752 333.829L90.1926 243.942Z" fill="#7E5AAF"/>
<path d="M90.1926 243.942C93.2498 240.023 98.9053 239.324 102.824 242.382L107.555 246.072C111.474 249.129 112.173 254.785 109.116 258.704C109.456 258.268 107.966 256.539 105.789 254.84L94.75 246.229C92.5727 244.531 90.5323 243.507 90.1926 243.942ZM35.9233 352.533L16.9999 337.771L35.9233 352.533ZM16.9999 337.771L93.2679 240L16.9999 337.771ZM112.191 254.762L35.9233 352.533L112.191 254.762Z" fill="#1B140F" mask="url(#path-21-outside-2_674_1905)"/>
<path d="M11.36 357.219C11.8298 356.376 12.8346 355.989 13.7486 356.299L15.1401 356.77C16.9121 357.37 16.9635 359.858 15.2178 360.53L13.1111 361.342C11.3654 362.015 9.73397 360.137 10.6448 358.503L11.36 357.219Z" fill="#7E5AAF"/>
<path d="M71 258.779C78.7743 268.473 84.3178 278.212 77.855 283.395C71.3922 288.577 59.8509 284.92 52.0766 275.226C44.3023 265.532 43.2391 253.472 49.7019 248.289C56.1646 243.106 63.2257 249.085 71 258.779Z" fill="#F9E5AE"/>
<path d="M94.7611 290.852C100.543 296.786 98.3058 310.089 92.3724 315.87C86.439 321.652 83.2557 313.199 77.474 307.265C71.6922 301.331 67.6162 296.359 73.5496 290.577C79.483 284.795 88.9794 284.918 94.7611 290.852Z" fill="#F9E5AE"/>
</svg>
